<?xml version="1.0" encoding="utf-8" ?>
<svg baseProfile="full" height="312px" preserveAspectRatio="xMidYMid meet" style="font-family: times, serif; font-weight:normal; font-style: normal; font-size: 16px;" version="1.1" viewBox="0,0,248.0,312.0" width="248px" xmlns="http://www.w3.org/2000/svg" xmlns:ev="http://www.w3.org/2001/xml-events" xmlns:xlink="http://www.w3.org/1999/xlink">
  <defs/>
  <svg width="100%" x="0" y="0em">
    <defs/>
    <text text-anchor="middle" x="50%" y="1em">Cm7</text>
  </svg>
  <svg width="83.871%" x="0%" y="3em">
    <defs/>
    <svg width="100%" x="0" y="0em">
      <defs/>
      <text text-anchor="middle" x="50%" y="1em">G7</text>
    </svg>
    <svg width="19.2308%" x="0%" y="3em">
      <defs/>
      <svg width="100%" x="0" y="0em">
        <defs/>
        <text text-anchor="middle" x="50%" y="1em">Dm7</text>
      </svg>
      <svg width="100%" x="0%" y="12em">
        <defs/>
        <svg width="100%" x="0" y="0em">
          <defs/>
          <text text-anchor="middle" x="50%" y="1em">Dm7</text>
        </svg>
      </svg>
      <line stroke="black" x1="50%" x2="50%" y1="1.2em" y2="12em"/>
    </svg>
    <line stroke="black" x1="50%" x2="9.61538%" y1="1.2em" y2="3em"/>
    <svg width="80.7692%" x="19.2308%" y="3em">
      <defs/>
      <svg width="100%" x="0" y="0em">
        <defs/>
        <text text-anchor="middle" x="50%" y="1em">G7</text>
      </svg>
      <svg width="19.0476%" x="0%" y="3em">
        <defs/>
        <svg width="100%" x="0" y="0em">
          <defs/>
          <text text-anchor="middle" x="50%" y="1em">G7</text>
        </svg>
        <svg width="100%" x="0%" y="9em">
          <defs/>
          <svg width="100%" x="0" y="0em">
            <defs/>
            <text text-anchor="middle" x="50%" y="1em">G7</text>
          </svg>
        </svg>
        <line stroke="black" x1="50%" x2="50%" y1="1.2em" y2="9em"/>
      </svg>
      <line stroke="black" x1="50%" x2="9.52381%" y1="1.2em" y2="3em"/>
      <svg width="80.9524%" x="19.0476%" y="3em">
        <defs/>
        <svg width="100%" x="0" y="0em">
          <defs/>
          <text text-anchor="middle" x="50%" y="1em">G7</text>
        </svg>
        <svg width="76.4706%" x="0%" y="3em">
          <defs/>
          <svg width="100%" x="0" y="0em">
            <defs/>
            <text text-anchor="middle" x="50%" y="1em">Dhdim7</text>
          </svg>
          <svg width="38.4615%" x="0%" y="3em">
            <defs/>
            <svg width="100%" x="0" y="0em">
              <defs/>
              <text text-anchor="middle" x="50%" y="1em">CM7</text>
            </svg>
            <svg width="100%" x="0%" y="3em">
              <defs/>
              <svg width="100%" x="0" y="0em">
                <defs/>
                <text text-anchor="middle" x="50%" y="1em">CM7</text>
              </svg>
            </svg>
            <line stroke="black" x1="50%" x2="50%" y1="1.2em" y2="3em"/>
          </svg>
          <line stroke="black" x1="50%" x2="19.2308%" y1="1.2em" y2="3em"/>
          <svg width="61.5385%" x="38.4615%" y="3em">
            <defs/>
            <svg width="100%" x="0" y="0em">
              <defs/>
              <text text-anchor="middle" x="50%" y="1em">Dhdim7</text>
            </svg>
            <svg width="100%" x="0%" y="3em">
              <defs/>
              <svg width="100%" x="0" y="0em">
                <defs/>
                <text text-anchor="middle" x="50%" y="1em">?</text>
              </svg>
            </svg>
            <line stroke="black" x1="50%" x2="50%" y1="1.2em" y2="3em"/>
          </svg>
          <line stroke="black" x1="50%" x2="69.2308%" y1="1.2em" y2="3em"/>
        </svg>
        <line stroke="black" x1="50%" x2="38.2353%" y1="1.2em" y2="3em"/>
        <svg width="23.5294%" x="76.4706%" y="3em">
          <defs/>
          <svg width="100%" x="0" y="0em">
            <defs/>
            <text text-anchor="middle" x="50%" y="1em">G7</text>
          </svg>
          <svg width="100%" x="0%" y="6em">
            <defs/>
            <svg width="100%" x="0" y="0em">
              <defs/>
              <text text-anchor="middle" x="50%" y="1em">?</text>
            </svg>
          </svg>
          <line stroke="black" x1="50%" x2="50%" y1="1.2em" y2="6em"/>
        </svg>
        <line stroke="black" x1="50%" x2="88.2353%" y1="1.2em" y2="3em"/>
      </svg>
      <line stroke="black" x1="50%" x2="59.5238%" y1="1.2em" y2="3em"/>
    </svg>
    <line stroke="black" x1="50%" x2="59.6154%" y1="1.2em" y2="3em"/>
  </svg>
  <line stroke="black" x1="50%" x2="41.9355%" y1="1.2em" y2="3em"/>
  <svg width="16.129%" x="83.871%" y="3em">
    <defs/>
    <svg width="100%" x="0" y="0em">
      <defs/>
      <text text-anchor="middle" x="50%" y="1em">Cm7</text>
    </svg>
    <svg width="100%" x="0%" y="15em">
      <defs/>
      <svg width="100%" x="0" y="0em">
        <defs/>
        <text text-anchor="middle" x="50%" y="1em">?</text>
      </svg>
    </svg>
    <line stroke="black" x1="50%" x2="50%" y1="1.2em" y2="15em"/>
  </svg>
  <line stroke="black" x1="50%" x2="91.9355%" y1="1.2em" y2="3em"/>
</svg>
