<?xml version="1.0" encoding="utf-8" ?>
<svg baseProfile="full" height="312px" preserveAspectRatio="xMidYMid meet" style="font-family: times, serif; font-weight:normal; font-style: normal; font-size: 16px;" version="1.1" viewBox="0,0,216.0,312.0" width="216px" xmlns="http://www.w3.org/2000/svg" xmlns:ev="http://www.w3.org/2001/xml-events" xmlns:xlink="http://www.w3.org/1999/xlink">
  <defs/>
  <svg width="100%" x="0" y="0em">
    <defs/>
    <text text-anchor="middle" x="50%" y="1em">Cm7</text>
  </svg>
  <svg width="81.4815%" x="0%" y="3em">
    <defs/>
    <svg width="100%" x="0" y="0em">
      <defs/>
      <text text-anchor="middle" x="50%" y="1em">G7</text>
    </svg>
    <svg width="22.7273%" x="0%" y="3em">
      <defs/>
      <svg width="100%" x="0" y="0em">
        <defs/>
        <text text-anchor="middle" x="50%" y="1em">Dm7</text>
      </svg>
      <svg width="100%" x="0%" y="12em">
        <defs/>
        <svg width="100%" x="0" y="0em">
          <defs/>
          <text text-anchor="middle" x="50%" y="1em">Dm7</text>
        </svg>
      </svg>
      <line stroke="black" x1="50%" x2="50%" y1="1.2em" y2="12em"/>
    </svg>
    <line stroke="black" x1="50%" x2="11.3636%" y1="1.2em" y2="3em"/>
    <svg width="77.2727%" x="22.7273%" y="3em">
      <defs/>
      <svg width="100%" x="0" y="0em">
        <defs/>
        <text text-anchor="middle" x="50%" y="1em">G7</text>
      </svg>
      <svg width="23.5294%" x="0%" y="3em">
        <defs/>
        <svg width="100%" x="0" y="0em">
          <defs/>
          <text text-anchor="middle" x="50%" y="1em">G7</text>
        </svg>
        <svg width="100%" x="0%" y="9em">
          <defs/>
          <svg width="100%" x="0" y="0em">
            <defs/>
            <text text-anchor="middle" x="50%" y="1em">G7</text>
          </svg>
        </svg>
        <line stroke="black" x1="50%" x2="50%" y1="1.2em" y2="9em"/>
      </svg>
      <line stroke="black" x1="50%" x2="11.7647%" y1="1.2em" y2="3em"/>
      <svg width="76.4706%" x="23.5294%" y="3em">
        <defs/>
        <svg width="100%" x="0" y="0em">
          <defs/>
          <text text-anchor="middle" x="50%" y="1em">G7</text>
        </svg>
        <svg width="69.2308%" x="0%" y="3em">
          <defs/>
          <svg width="100%" x="0" y="0em">
            <defs/>
            <text text-anchor="middle" x="50%" y="1em">F7</text>
          </svg>
          <svg width="55.5556%" x="0%" y="3em">
            <defs/>
            <svg width="100%" x="0" y="0em">
              <defs/>
              <text text-anchor="middle" x="50%" y="1em">CM7</text>
            </svg>
            <svg width="100%" x="0%" y="3em">
              <defs/>
              <svg width="100%" x="0" y="0em">
                <defs/>
                <text text-anchor="middle" x="50%" y="1em">CM7</text>
              </svg>
            </svg>
            <line stroke="black" x1="50%" x2="50%" y1="1.2em" y2="3em"/>
          </svg>
          <line stroke="black" x1="50%" x2="27.7778%" y1="1.2em" y2="3em"/>
          <svg width="44.4444%" x="55.5556%" y="3em">
            <defs/>
            <svg width="100%" x="0" y="0em">
              <defs/>
              <text text-anchor="middle" x="50%" y="1em">F7</text>
            </svg>
            <svg width="100%" x="0%" y="3em">
              <defs/>
              <svg width="100%" x="0" y="0em">
                <defs/>
                <text text-anchor="middle" x="50%" y="1em">?</text>
              </svg>
            </svg>
            <line stroke="black" x1="50%" x2="50%" y1="1.2em" y2="3em"/>
          </svg>
          <line stroke="black" x1="50%" x2="77.7778%" y1="1.2em" y2="3em"/>
        </svg>
        <line stroke="black" x1="50%" x2="34.6154%" y1="1.2em" y2="3em"/>
        <svg width="30.7692%" x="69.2308%" y="3em">
          <defs/>
          <svg width="100%" x="0" y="0em">
            <defs/>
            <text text-anchor="middle" x="50%" y="1em">G7</text>
          </svg>
          <svg width="100%" x="0%" y="6em">
            <defs/>
            <svg width="100%" x="0" y="0em">
              <defs/>
              <text text-anchor="middle" x="50%" y="1em">?</text>
            </svg>
          </svg>
          <line stroke="black" x1="50%" x2="50%" y1="1.2em" y2="6em"/>
        </svg>
        <line stroke="black" x1="50%" x2="84.6154%" y1="1.2em" y2="3em"/>
      </svg>
      <line stroke="black" x1="50%" x2="61.7647%" y1="1.2em" y2="3em"/>
    </svg>
    <line stroke="black" x1="50%" x2="61.3636%" y1="1.2em" y2="3em"/>
  </svg>
  <line stroke="black" x1="50%" x2="40.7407%" y1="1.2em" y2="3em"/>
  <svg width="18.5185%" x="81.4815%" y="3em">
    <defs/>
    <svg width="100%" x="0" y="0em">
      <defs/>
      <text text-anchor="middle" x="50%" y="1em">Cm7</text>
    </svg>
    <svg width="100%" x="0%" y="15em">
      <defs/>
      <svg width="100%" x="0" y="0em">
        <defs/>
        <text text-anchor="middle" x="50%" y="1em">?</text>
      </svg>
    </svg>
    <line stroke="black" x1="50%" x2="50%" y1="1.2em" y2="15em"/>
  </svg>
  <line stroke="black" x1="50%" x2="90.7407%" y1="1.2em" y2="3em"/>
</svg>
