<?xml version="1.0" encoding="utf-8" ?>
<svg xmlns="http://www.w3.org/2000/svg" xmlns:ev="http://www.w3.org/2001/xml-events" xmlns:xlink="http://www.w3.org/1999/xlink" baseProfile="full" height="216px" preserveAspectRatio="xMidYMid meet" style="font-family: times, serif; font-weight:normal; font-style: normal; font-size: 16px;" version="1.1" viewBox="0,0,344.0,216.0" width="344px">
  <defs/>
  <svg width="100%" x="0" y="0em">
    <defs/>
    <text text-anchor="middle" x="50%" y="1em">S</text>
  </svg>
  <svg width="39.5349%" x="0%" y="3em">
    <defs/>
    <svg width="100%" x="0" y="0em">
      <defs/>
      <text text-anchor="middle" x="50%" y="1em">NP</text>
    </svg>
    <svg width="29.4118%" x="0%" y="3em">
      <defs/>
      <svg width="100%" x="0" y="0em">
        <defs/>
        <text text-anchor="middle" x="50%" y="1em">D</text>
      </svg>
      <svg width="100%" x="0%" y="3em">
        <defs/>
        <svg width="100%" x="0" y="0em">
          <defs/>
          <text text-anchor="middle" x="50%" y="1em">the</text>
        </svg>
      </svg>
      <line stroke="black" x1="50%" x2="50%" y1="1.2em" y2="3em"/>
    </svg>
    <line stroke="black" x1="50%" x2="14.7059%" y1="1.2em" y2="3em"/>
    <svg width="70.5882%" x="29.4118%" y="3em">
      <defs/>
      <svg width="100%" x="0" y="0em">
        <defs/>
        <text text-anchor="middle" x="50%" y="1em">N</text>
      </svg>
      <svg width="100%" x="0%" y="3em">
        <defs/>
        <svg width="100%" x="0" y="0em">
          <defs/>
          <text text-anchor="middle" x="50%" y="1em">rhinoceros</text>
        </svg>
      </svg>
      <line stroke="black" x1="50%" x2="50%" y1="1.2em" y2="3em"/>
    </svg>
    <line stroke="black" x1="50%" x2="64.7059%" y1="1.2em" y2="3em"/>
  </svg>
  <line stroke="black" x1="50%" x2="19.7674%" y1="1.2em" y2="3em"/>
  <svg width="60.4651%" x="39.5349%" y="3em">
    <defs/>
    <svg width="100%" x="0" y="0em">
      <defs/>
      <text text-anchor="middle" x="50%" y="1em">VP</text>
    </svg>
    <svg width="19.2308%" x="0%" y="3em">
      <defs/>
      <svg width="100%" x="0" y="0em">
        <defs/>
        <text text-anchor="middle" x="50%" y="1em">V</text>
      </svg>
      <svg width="100%" x="0%" y="3em">
        <defs/>
        <svg width="100%" x="0" y="0em">
          <defs/>
          <text text-anchor="middle" x="50%" y="1em">saw</text>
        </svg>
      </svg>
      <line stroke="black" x1="50%" x2="50%" y1="1.2em" y2="3em"/>
    </svg>
    <line stroke="black" x1="50%" x2="9.61538%" y1="1.2em" y2="3em"/>
    <svg width="80.7692%" x="19.2308%" y="3em">
      <defs/>
      <svg width="100%" x="0" y="0em">
        <defs/>
        <text text-anchor="middle" x="50%" y="1em">NP</text>
      </svg>
      <svg width="23.8095%" x="0%" y="3em">
        <defs/>
        <svg width="100%" x="0" y="0em">
          <defs/>
          <text text-anchor="middle" x="50%" y="1em">D</text>
        </svg>
        <svg width="100%" x="0%" y="3em">
          <defs/>
          <svg width="100%" x="0" y="0em">
            <defs/>
            <text text-anchor="middle" x="50%" y="1em">the</text>
          </svg>
        </svg>
        <line stroke="black" x1="50%" x2="50%" y1="1.2em" y2="3em"/>
      </svg>
      <line stroke="black" x1="50%" x2="11.9048%" y1="1.2em" y2="3em"/>
      <svg width="28.5714%" x="23.8095%" y="3em">
        <defs/>
        <svg width="100%" x="0" y="0em">
          <defs/>
          <text text-anchor="middle" x="50%" y="1em">A</text>
        </svg>
        <svg width="100%" x="0%" y="3em">
          <defs/>
          <svg width="100%" x="0" y="0em">
            <defs/>
            <text text-anchor="middle" x="50%" y="1em">gray</text>
          </svg>
        </svg>
        <line stroke="black" x1="50%" x2="50%" y1="1.2em" y2="3em"/>
      </svg>
      <line stroke="black" x1="50%" x2="38.0952%" y1="1.2em" y2="3em"/>
      <svg width="47.619%" x="52.381%" y="3em">
        <defs/>
        <svg width="100%" x="0" y="0em">
          <defs/>
          <text text-anchor="middle" x="50%" y="1em">N</text>
        </svg>
        <svg width="100%" x="0%" y="3em">
          <defs/>
          <svg width="100%" x="0" y="0em">
            <defs/>
            <text text-anchor="middle" x="50%" y="1em">elephant</text>
          </svg>
        </svg>
        <line stroke="black" x1="50%" x2="50%" y1="1.2em" y2="3em"/>
      </svg>
      <line stroke="black" x1="50%" x2="76.1905%" y1="1.2em" y2="3em"/>
    </svg>
    <line stroke="black" x1="50%" x2="59.6154%" y1="1.2em" y2="3em"/>
  </svg>
  <line stroke="black" x1="50%" x2="69.7674%" y1="1.2em" y2="3em"/>
</svg>
