<?xml version="1.0" encoding="utf-8" ?>
<svg baseProfile="full" height="600px" preserveAspectRatio="xMidYMid meet" style="font-family: times, serif; font-weight:normal; font-style: normal; font-size: 16px;" version="1.1" viewBox="0,0,576.0,600.0" width="576px" xmlns="http://www.w3.org/2000/svg" xmlns:ev="http://www.w3.org/2001/xml-events" xmlns:xlink="http://www.w3.org/1999/xlink">
  <defs/>
  <svg width="100%" x="0" y="0em">
    <defs/>
    <text text-anchor="middle" x="50%" y="1em">CM7</text>
  </svg>
  <svg width="12.5%" x="0%" y="3em">
    <defs/>
    <svg width="100%" x="0" y="0em">
      <defs/>
      <text text-anchor="middle" x="50%" y="1em">G7</text>
    </svg>
    <svg width="55.5556%" x="0%" y="3em">
      <defs/>
      <svg width="100%" x="0" y="0em">
        <defs/>
        <text text-anchor="middle" x="50%" y="1em">Dm7</text>
      </svg>
      <svg width="100%" x="0%" y="30em">
        <defs/>
        <svg width="100%" x="0" y="0em">
          <defs/>
          <text text-anchor="middle" x="50%" y="1em">Dm7</text>
        </svg>
      </svg>
      <line stroke="black" x1="50%" x2="50%" y1="1.2em" y2="30em"/>
    </svg>
    <line stroke="black" x1="50%" x2="27.7778%" y1="1.2em" y2="3em"/>
    <svg width="44.4444%" x="55.5556%" y="3em">
      <defs/>
      <svg width="100%" x="0" y="0em">
        <defs/>
        <text text-anchor="middle" x="50%" y="1em">G7</text>
      </svg>
      <svg width="100%" x="0%" y="30em">
        <defs/>
        <svg width="100%" x="0" y="0em">
          <defs/>
          <text text-anchor="middle" x="50%" y="1em">G7</text>
        </svg>
      </svg>
      <line stroke="black" x1="50%" x2="50%" y1="1.2em" y2="30em"/>
    </svg>
    <line stroke="black" x1="50%" x2="77.7778%" y1="1.2em" y2="3em"/>
  </svg>
  <line stroke="black" x1="50%" x2="6.25%" y1="1.2em" y2="3em"/>
  <svg width="87.5%" x="12.5%" y="3em">
    <defs/>
    <svg width="100%" x="0" y="0em">
      <defs/>
      <text text-anchor="middle" x="50%" y="1em">CM7</text>
    </svg>
    <svg width="7.93651%" x="0%" y="3em">
      <defs/>
      <svg width="100%" x="0" y="0em">
        <defs/>
        <text text-anchor="middle" x="50%" y="1em">CM7</text>
      </svg>
      <svg width="100%" x="0%" y="30em">
        <defs/>
        <svg width="100%" x="0" y="0em">
          <defs/>
          <text text-anchor="middle" x="50%" y="1em">CM7</text>
        </svg>
      </svg>
      <line stroke="black" x1="50%" x2="50%" y1="1.2em" y2="30em"/>
    </svg>
    <line stroke="black" x1="50%" x2="3.96825%" y1="1.2em" y2="3em"/>
    <svg width="92.0635%" x="7.93651%" y="3em">
      <defs/>
      <svg width="100%" x="0" y="0em">
        <defs/>
        <text text-anchor="middle" x="50%" y="1em">CM7</text>
      </svg>
      <svg width="91.3793%" x="0%" y="3em">
        <defs/>
        <svg width="100%" x="0" y="0em">
          <defs/>
          <text text-anchor="middle" x="50%" y="1em">FM7</text>
        </svg>
        <svg width="9.43396%" x="0%" y="3em">
          <defs/>
          <svg width="100%" x="0" y="0em">
            <defs/>
            <text text-anchor="middle" x="50%" y="1em">Dm7</text>
          </svg>
          <svg width="100%" x="0%" y="24em">
            <defs/>
            <svg width="100%" x="0" y="0em">
              <defs/>
              <text text-anchor="middle" x="50%" y="1em">Dm7</text>
            </svg>
          </svg>
          <line stroke="black" x1="50%" x2="50%" y1="1.2em" y2="24em"/>
        </svg>
        <line stroke="black" x1="50%" x2="4.71698%" y1="1.2em" y2="3em"/>
        <svg width="90.566%" x="9.43396%" y="3em">
          <defs/>
          <svg width="100%" x="0" y="0em">
            <defs/>
            <text text-anchor="middle" x="50%" y="1em">FM7</text>
          </svg>
          <svg width="27.0833%" x="0%" y="3em">
            <defs/>
            <svg width="100%" x="0" y="0em">
              <defs/>
              <text text-anchor="middle" x="50%" y="1em">C7</text>
            </svg>
            <svg width="30.7692%" x="0%" y="3em">
              <defs/>
              <svg width="100%" x="0" y="0em">
                <defs/>
                <text text-anchor="middle" x="50%" y="1em">G7</text>
              </svg>
              <svg width="100%" x="0%" y="18em">
                <defs/>
                <svg width="100%" x="0" y="0em">
                  <defs/>
                  <text text-anchor="middle" x="50%" y="1em">G7</text>
                </svg>
              </svg>
              <line stroke="black" x1="50%" x2="50%" y1="1.2em" y2="18em"/>
            </svg>
            <line stroke="black" x1="50%" x2="15.3846%" y1="1.2em" y2="3em"/>
            <svg width="69.2308%" x="30.7692%" y="3em">
              <defs/>
              <svg width="100%" x="0" y="0em">
                <defs/>
                <text text-anchor="middle" x="50%" y="1em">C7</text>
              </svg>
              <svg width="55.5556%" x="0%" y="3em">
                <defs/>
                <svg width="100%" x="0" y="0em">
                  <defs/>
                  <text text-anchor="middle" x="50%" y="1em">Gm7</text>
                </svg>
                <svg width="100%" x="0%" y="15em">
                  <defs/>
                  <svg width="100%" x="0" y="0em">
                    <defs/>
                    <text text-anchor="middle" x="50%" y="1em">Gm7</text>
                  </svg>
                </svg>
                <line stroke="black" x1="50%" x2="50%" y1="1.2em" y2="15em"/>
              </svg>
              <line stroke="black" x1="50%" x2="27.7778%" y1="1.2em" y2="3em"/>
              <svg width="44.4444%" x="55.5556%" y="3em">
                <defs/>
                <svg width="100%" x="0" y="0em">
                  <defs/>
                  <text text-anchor="middle" x="50%" y="1em">C7</text>
                </svg>
                <svg width="100%" x="0%" y="15em">
                  <defs/>
                  <svg width="100%" x="0" y="0em">
                    <defs/>
                    <text text-anchor="middle" x="50%" y="1em">C7</text>
                  </svg>
                </svg>
                <line stroke="black" x1="50%" x2="50%" y1="1.2em" y2="15em"/>
              </svg>
              <line stroke="black" x1="50%" x2="77.7778%" y1="1.2em" y2="3em"/>
            </svg>
            <line stroke="black" x1="50%" x2="65.3846%" y1="1.2em" y2="3em"/>
          </svg>
          <line stroke="black" x1="50%" x2="13.5417%" y1="1.2em" y2="3em"/>
          <svg width="72.9167%" x="27.0833%" y="3em">
            <defs/>
            <svg width="100%" x="0" y="0em">
              <defs/>
              <text text-anchor="middle" x="50%" y="1em">FM7</text>
            </svg>
            <svg width="14.2857%" x="0%" y="3em">
              <defs/>
              <svg width="100%" x="0" y="0em">
                <defs/>
                <text text-anchor="middle" x="50%" y="1em">FM7</text>
              </svg>
              <svg width="100%" x="0%" y="18em">
                <defs/>
                <svg width="100%" x="0" y="0em">
                  <defs/>
                  <text text-anchor="middle" x="50%" y="1em">FM7</text>
                </svg>
              </svg>
              <line stroke="black" x1="50%" x2="50%" y1="1.2em" y2="18em"/>
            </svg>
            <line stroke="black" x1="50%" x2="7.14286%" y1="1.2em" y2="3em"/>
            <svg width="85.7143%" x="14.2857%" y="3em">
              <defs/>
              <svg width="100%" x="0" y="0em">
                <defs/>
                <text text-anchor="middle" x="50%" y="1em">FM7</text>
              </svg>
              <svg width="83.3333%" x="0%" y="3em">
                <defs/>
                <svg width="100%" x="0" y="0em">
                  <defs/>
                  <text text-anchor="middle" x="50%" y="1em">Eb7</text>
                </svg>
                <svg width="20%" x="0%" y="3em">
                  <defs/>
                  <svg width="100%" x="0" y="0em">
                    <defs/>
                    <text text-anchor="middle" x="50%" y="1em">Bb7</text>
                  </svg>
                  <svg width="100%" x="0%" y="12em">
                    <defs/>
                    <svg width="100%" x="0" y="0em">
                      <defs/>
                      <text text-anchor="middle" x="50%" y="1em">Bb7</text>
                    </svg>
                  </svg>
                  <line stroke="black" x1="50%" x2="50%" y1="1.2em" y2="12em"/>
                </svg>
                <line stroke="black" x1="50%" x2="10%" y1="1.2em" y2="3em"/>
                <svg width="80%" x="20%" y="3em">
                  <defs/>
                  <svg width="100%" x="0" y="0em">
                    <defs/>
                    <text text-anchor="middle" x="50%" y="1em">Eb7</text>
                  </svg>
                  <svg width="75%" x="0%" y="3em">
                    <defs/>
                    <svg width="100%" x="0" y="0em">
                      <defs/>
                      <text text-anchor="middle" x="50%" y="1em">Am7</text>
                    </svg>
                    <svg width="33.3333%" x="0%" y="3em">
                      <defs/>
                      <svg width="100%" x="0" y="0em">
                        <defs/>
                        <text text-anchor="middle" x="50%" y="1em">Em7</text>
                      </svg>
                      <svg width="100%" x="0%" y="6em">
                        <defs/>
                        <svg width="100%" x="0" y="0em">
                          <defs/>
                          <text text-anchor="middle" x="50%" y="1em">Em7</text>
                        </svg>
                      </svg>
                      <line stroke="black" x1="50%" x2="50%" y1="1.2em" y2="6em"/>
                    </svg>
                    <line stroke="black" x1="50%" x2="16.6667%" y1="1.2em" y2="3em"/>
                    <svg width="66.6667%" x="33.3333%" y="3em">
                      <defs/>
                      <svg width="100%" x="0" y="0em">
                        <defs/>
                        <text text-anchor="middle" x="50%" y="1em">Am7</text>
                      </svg>
                      <svg width="50%" x="0%" y="3em">
                        <defs/>
                        <svg width="100%" x="0" y="0em">
                          <defs/>
                          <text text-anchor="middle" x="50%" y="1em">Am7</text>
                        </svg>
                        <svg width="100%" x="0%" y="3em">
                          <defs/>
                          <svg width="100%" x="0" y="0em">
                            <defs/>
                            <text text-anchor="middle" x="50%" y="1em">Am7</text>
                          </svg>
                        </svg>
                        <line stroke="black" x1="50%" x2="50%" y1="1.2em" y2="3em"/>
                      </svg>
                      <line stroke="black" x1="50%" x2="25%" y1="1.2em" y2="3em"/>
                      <svg width="50%" x="50%" y="3em">
                        <defs/>
                        <svg width="100%" x="0" y="0em">
                          <defs/>
                          <text text-anchor="middle" x="50%" y="1em">Am7</text>
                        </svg>
                        <svg width="100%" x="0%" y="3em">
                          <defs/>
                          <svg width="100%" x="0" y="0em">
                            <defs/>
                            <text text-anchor="middle" x="50%" y="1em">?</text>
                          </svg>
                        </svg>
                        <line stroke="black" x1="50%" x2="50%" y1="1.2em" y2="3em"/>
                      </svg>
                      <line stroke="black" x1="50%" x2="75%" y1="1.2em" y2="3em"/>
                    </svg>
                    <line stroke="black" x1="50%" x2="66.6667%" y1="1.2em" y2="3em"/>
                  </svg>
                  <line stroke="black" x1="50%" x2="37.5%" y1="1.2em" y2="3em"/>
                  <svg width="25%" x="75%" y="3em">
                    <defs/>
                    <svg width="100%" x="0" y="0em">
                      <defs/>
                      <text text-anchor="middle" x="50%" y="1em">Eb7</text>
                    </svg>
                    <svg width="100%" x="0%" y="9em">
                      <defs/>
                      <svg width="100%" x="0" y="0em">
                        <defs/>
                        <text text-anchor="middle" x="50%" y="1em">?</text>
                      </svg>
                    </svg>
                    <line stroke="black" x1="50%" x2="50%" y1="1.2em" y2="9em"/>
                  </svg>
                  <line stroke="black" x1="50%" x2="87.5%" y1="1.2em" y2="3em"/>
                </svg>
                <line stroke="black" x1="50%" x2="60%" y1="1.2em" y2="3em"/>
              </svg>
              <line stroke="black" x1="50%" x2="41.6667%" y1="1.2em" y2="3em"/>
              <svg width="16.6667%" x="83.3333%" y="3em">
                <defs/>
                <svg width="100%" x="0" y="0em">
                  <defs/>
                  <text text-anchor="middle" x="50%" y="1em">FM7</text>
                </svg>
                <svg width="100%" x="0%" y="15em">
                  <defs/>
                  <svg width="100%" x="0" y="0em">
                    <defs/>
                    <text text-anchor="middle" x="50%" y="1em">?</text>
                  </svg>
                </svg>
                <line stroke="black" x1="50%" x2="50%" y1="1.2em" y2="15em"/>
              </svg>
              <line stroke="black" x1="50%" x2="91.6667%" y1="1.2em" y2="3em"/>
            </svg>
            <line stroke="black" x1="50%" x2="57.1429%" y1="1.2em" y2="3em"/>
          </svg>
          <line stroke="black" x1="50%" x2="63.5417%" y1="1.2em" y2="3em"/>
        </svg>
        <line stroke="black" x1="50%" x2="54.717%" y1="1.2em" y2="3em"/>
      </svg>
      <line stroke="black" x1="50%" x2="45.6897%" y1="1.2em" y2="3em"/>
      <svg width="8.62069%" x="91.3793%" y="3em">
        <defs/>
        <svg width="100%" x="0" y="0em">
          <defs/>
          <text text-anchor="middle" x="50%" y="1em">CM7</text>
        </svg>
        <svg width="100%" x="0%" y="27em">
          <defs/>
          <svg width="100%" x="0" y="0em">
            <defs/>
            <text text-anchor="middle" x="50%" y="1em">?</text>
          </svg>
        </svg>
        <line stroke="black" x1="50%" x2="50%" y1="1.2em" y2="27em"/>
      </svg>
      <line stroke="black" x1="50%" x2="95.6897%" y1="1.2em" y2="3em"/>
    </svg>
    <line stroke="black" x1="50%" x2="53.9683%" y1="1.2em" y2="3em"/>
  </svg>
  <line stroke="black" x1="50%" x2="56.25%" y1="1.2em" y2="3em"/>
</svg>
