<?xml version="1.0" encoding="utf-8" ?>
<svg baseProfile="full" height="648px" preserveAspectRatio="xMidYMid meet" style="font-family: times, serif; font-weight:normal; font-style: normal; font-size: 16px;" version="1.1" viewBox="0,0,568.0,648.0" width="568px" xmlns="http://www.w3.org/2000/svg" xmlns:ev="http://www.w3.org/2001/xml-events" xmlns:xlink="http://www.w3.org/1999/xlink">
  <defs/>
  <svg width="100%" x="0" y="0em">
    <defs/>
    <text text-anchor="middle" x="50%" y="1em">CM7</text>
  </svg>
  <svg width="12.6761%" x="0%" y="3em">
    <defs/>
    <svg width="100%" x="0" y="0em">
      <defs/>
      <text text-anchor="middle" x="50%" y="1em">G7</text>
    </svg>
    <svg width="55.5556%" x="0%" y="3em">
      <defs/>
      <svg width="100%" x="0" y="0em">
        <defs/>
        <text text-anchor="middle" x="50%" y="1em">Dm7</text>
      </svg>
      <svg width="100%" x="0%" y="33em">
        <defs/>
        <svg width="100%" x="0" y="0em">
          <defs/>
          <text text-anchor="middle" x="50%" y="1em">Dm7</text>
        </svg>
      </svg>
      <line stroke="black" x1="50%" x2="50%" y1="1.2em" y2="33em"/>
    </svg>
    <line stroke="black" x1="50%" x2="27.7778%" y1="1.2em" y2="3em"/>
    <svg width="44.4444%" x="55.5556%" y="3em">
      <defs/>
      <svg width="100%" x="0" y="0em">
        <defs/>
        <text text-anchor="middle" x="50%" y="1em">G7</text>
      </svg>
      <svg width="100%" x="0%" y="33em">
        <defs/>
        <svg width="100%" x="0" y="0em">
          <defs/>
          <text text-anchor="middle" x="50%" y="1em">G7</text>
        </svg>
      </svg>
      <line stroke="black" x1="50%" x2="50%" y1="1.2em" y2="33em"/>
    </svg>
    <line stroke="black" x1="50%" x2="77.7778%" y1="1.2em" y2="3em"/>
  </svg>
  <line stroke="black" x1="50%" x2="6.33803%" y1="1.2em" y2="3em"/>
  <svg width="87.3239%" x="12.6761%" y="3em">
    <defs/>
    <svg width="100%" x="0" y="0em">
      <defs/>
      <text text-anchor="middle" x="50%" y="1em">CM7</text>
    </svg>
    <svg width="8.06452%" x="0%" y="3em">
      <defs/>
      <svg width="100%" x="0" y="0em">
        <defs/>
        <text text-anchor="middle" x="50%" y="1em">CM7</text>
      </svg>
      <svg width="100%" x="0%" y="33em">
        <defs/>
        <svg width="100%" x="0" y="0em">
          <defs/>
          <text text-anchor="middle" x="50%" y="1em">CM7</text>
        </svg>
      </svg>
      <line stroke="black" x1="50%" x2="50%" y1="1.2em" y2="33em"/>
    </svg>
    <line stroke="black" x1="50%" x2="4.03226%" y1="1.2em" y2="3em"/>
    <svg width="91.9355%" x="8.06452%" y="3em">
      <defs/>
      <svg width="100%" x="0" y="0em">
        <defs/>
        <text text-anchor="middle" x="50%" y="1em">CM7</text>
      </svg>
      <svg width="15.7895%" x="0%" y="3em">
        <defs/>
        <svg width="100%" x="0" y="0em">
          <defs/>
          <text text-anchor="middle" x="50%" y="1em">G7</text>
        </svg>
        <svg width="55.5556%" x="0%" y="3em">
          <defs/>
          <svg width="100%" x="0" y="0em">
            <defs/>
            <text text-anchor="middle" x="50%" y="1em">Dm7</text>
          </svg>
          <svg width="100%" x="0%" y="27em">
            <defs/>
            <svg width="100%" x="0" y="0em">
              <defs/>
              <text text-anchor="middle" x="50%" y="1em">Dm7</text>
            </svg>
          </svg>
          <line stroke="black" x1="50%" x2="50%" y1="1.2em" y2="27em"/>
        </svg>
        <line stroke="black" x1="50%" x2="27.7778%" y1="1.2em" y2="3em"/>
        <svg width="44.4444%" x="55.5556%" y="3em">
          <defs/>
          <svg width="100%" x="0" y="0em">
            <defs/>
            <text text-anchor="middle" x="50%" y="1em">G7</text>
          </svg>
          <svg width="100%" x="0%" y="27em">
            <defs/>
            <svg width="100%" x="0" y="0em">
              <defs/>
              <text text-anchor="middle" x="50%" y="1em">G7</text>
            </svg>
          </svg>
          <line stroke="black" x1="50%" x2="50%" y1="1.2em" y2="27em"/>
        </svg>
        <line stroke="black" x1="50%" x2="77.7778%" y1="1.2em" y2="3em"/>
      </svg>
      <line stroke="black" x1="50%" x2="7.89474%" y1="1.2em" y2="3em"/>
      <svg width="84.2105%" x="15.7895%" y="3em">
        <defs/>
        <svg width="100%" x="0" y="0em">
          <defs/>
          <text text-anchor="middle" x="50%" y="1em">CM7</text>
        </svg>
        <svg width="89.5833%" x="0%" y="3em">
          <defs/>
          <svg width="100%" x="0" y="0em">
            <defs/>
            <text text-anchor="middle" x="50%" y="1em">FM7</text>
          </svg>
          <svg width="11.6279%" x="0%" y="3em">
            <defs/>
            <svg width="100%" x="0" y="0em">
              <defs/>
              <text text-anchor="middle" x="50%" y="1em">Gm7</text>
            </svg>
            <svg width="100%" x="0%" y="24em">
              <defs/>
              <svg width="100%" x="0" y="0em">
                <defs/>
                <text text-anchor="middle" x="50%" y="1em">Gm7</text>
              </svg>
            </svg>
            <line stroke="black" x1="50%" x2="50%" y1="1.2em" y2="24em"/>
          </svg>
          <line stroke="black" x1="50%" x2="5.81395%" y1="1.2em" y2="3em"/>
          <svg width="88.3721%" x="11.6279%" y="3em">
            <defs/>
            <svg width="100%" x="0" y="0em">
              <defs/>
              <text text-anchor="middle" x="50%" y="1em">FM7</text>
            </svg>
            <svg width="10.5263%" x="0%" y="3em">
              <defs/>
              <svg width="100%" x="0" y="0em">
                <defs/>
                <text text-anchor="middle" x="50%" y="1em">C7</text>
              </svg>
              <svg width="100%" x="0%" y="21em">
                <defs/>
                <svg width="100%" x="0" y="0em">
                  <defs/>
                  <text text-anchor="middle" x="50%" y="1em">C7</text>
                </svg>
              </svg>
              <line stroke="black" x1="50%" x2="50%" y1="1.2em" y2="21em"/>
            </svg>
            <line stroke="black" x1="50%" x2="5.26316%" y1="1.2em" y2="3em"/>
            <svg width="89.4737%" x="10.5263%" y="3em">
              <defs/>
              <svg width="100%" x="0" y="0em">
                <defs/>
                <text text-anchor="middle" x="50%" y="1em">FM7</text>
              </svg>
              <svg width="14.7059%" x="0%" y="3em">
                <defs/>
                <svg width="100%" x="0" y="0em">
                  <defs/>
                  <text text-anchor="middle" x="50%" y="1em">FM7</text>
                </svg>
                <svg width="100%" x="0%" y="18em">
                  <defs/>
                  <svg width="100%" x="0" y="0em">
                    <defs/>
                    <text text-anchor="middle" x="50%" y="1em">FM7</text>
                  </svg>
                </svg>
                <line stroke="black" x1="50%" x2="50%" y1="1.2em" y2="18em"/>
              </svg>
              <line stroke="black" x1="50%" x2="7.35294%" y1="1.2em" y2="3em"/>
              <svg width="85.2941%" x="14.7059%" y="3em">
                <defs/>
                <svg width="100%" x="0" y="0em">
                  <defs/>
                  <text text-anchor="middle" x="50%" y="1em">FM7</text>
                </svg>
                <svg width="17.2414%" x="0%" y="3em">
                  <defs/>
                  <svg width="100%" x="0" y="0em">
                    <defs/>
                    <text text-anchor="middle" x="50%" y="1em">Bb7</text>
                  </svg>
                  <svg width="100%" x="0%" y="15em">
                    <defs/>
                    <svg width="100%" x="0" y="0em">
                      <defs/>
                      <text text-anchor="middle" x="50%" y="1em">Bb7</text>
                    </svg>
                  </svg>
                  <line stroke="black" x1="50%" x2="50%" y1="1.2em" y2="15em"/>
                </svg>
                <line stroke="black" x1="50%" x2="8.62069%" y1="1.2em" y2="3em"/>
                <svg width="82.7586%" x="17.2414%" y="3em">
                  <defs/>
                  <svg width="100%" x="0" y="0em">
                    <defs/>
                    <text text-anchor="middle" x="50%" y="1em">FM7</text>
                  </svg>
                  <svg width="79.1667%" x="0%" y="3em">
                    <defs/>
                    <svg width="100%" x="0" y="0em">
                      <defs/>
                      <text text-anchor="middle" x="50%" y="1em">Em7</text>
                    </svg>
                    <svg width="26.3158%" x="0%" y="3em">
                      <defs/>
                      <svg width="100%" x="0" y="0em">
                        <defs/>
                        <text text-anchor="middle" x="50%" y="1em">Em7</text>
                      </svg>
                      <svg width="100%" x="0%" y="9em">
                        <defs/>
                        <svg width="100%" x="0" y="0em">
                          <defs/>
                          <text text-anchor="middle" x="50%" y="1em">Em7</text>
                        </svg>
                      </svg>
                      <line stroke="black" x1="50%" x2="50%" y1="1.2em" y2="9em"/>
                    </svg>
                    <line stroke="black" x1="50%" x2="13.1579%" y1="1.2em" y2="3em"/>
                    <svg width="73.6842%" x="26.3158%" y="3em">
                      <defs/>
                      <svg width="100%" x="0" y="0em">
                        <defs/>
                        <text text-anchor="middle" x="50%" y="1em">Em7</text>
                      </svg>
                      <svg width="64.2857%" x="0%" y="3em">
                        <defs/>
                        <svg width="100%" x="0" y="0em">
                          <defs/>
                          <text text-anchor="middle" x="50%" y="1em">D7</text>
                        </svg>
                        <svg width="55.5556%" x="0%" y="3em">
                          <defs/>
                          <svg width="100%" x="0" y="0em">
                            <defs/>
                            <text text-anchor="middle" x="50%" y="1em">Am7</text>
                          </svg>
                          <svg width="100%" x="0%" y="3em">
                            <defs/>
                            <svg width="100%" x="0" y="0em">
                              <defs/>
                              <text text-anchor="middle" x="50%" y="1em">Am7</text>
                            </svg>
                          </svg>
                          <line stroke="black" x1="50%" x2="50%" y1="1.2em" y2="3em"/>
                        </svg>
                        <line stroke="black" x1="50%" x2="27.7778%" y1="1.2em" y2="3em"/>
                        <svg width="44.4444%" x="55.5556%" y="3em">
                          <defs/>
                          <svg width="100%" x="0" y="0em">
                            <defs/>
                            <text text-anchor="middle" x="50%" y="1em">D7</text>
                          </svg>
                          <svg width="100%" x="0%" y="3em">
                            <defs/>
                            <svg width="100%" x="0" y="0em">
                              <defs/>
                              <text text-anchor="middle" x="50%" y="1em">?</text>
                            </svg>
                          </svg>
                          <line stroke="black" x1="50%" x2="50%" y1="1.2em" y2="3em"/>
                        </svg>
                        <line stroke="black" x1="50%" x2="77.7778%" y1="1.2em" y2="3em"/>
                      </svg>
                      <line stroke="black" x1="50%" x2="32.1429%" y1="1.2em" y2="3em"/>
                      <svg width="35.7143%" x="64.2857%" y="3em">
                        <defs/>
                        <svg width="100%" x="0" y="0em">
                          <defs/>
                          <text text-anchor="middle" x="50%" y="1em">Em7</text>
                        </svg>
                        <svg width="100%" x="0%" y="6em">
                          <defs/>
                          <svg width="100%" x="0" y="0em">
                            <defs/>
                            <text text-anchor="middle" x="50%" y="1em">?</text>
                          </svg>
                        </svg>
                        <line stroke="black" x1="50%" x2="50%" y1="1.2em" y2="6em"/>
                      </svg>
                      <line stroke="black" x1="50%" x2="82.1429%" y1="1.2em" y2="3em"/>
                    </svg>
                    <line stroke="black" x1="50%" x2="63.1579%" y1="1.2em" y2="3em"/>
                  </svg>
                  <line stroke="black" x1="50%" x2="39.5833%" y1="1.2em" y2="3em"/>
                  <svg width="20.8333%" x="79.1667%" y="3em">
                    <defs/>
                    <svg width="100%" x="0" y="0em">
                      <defs/>
                      <text text-anchor="middle" x="50%" y="1em">FM7</text>
                    </svg>
                    <svg width="100%" x="0%" y="12em">
                      <defs/>
                      <svg width="100%" x="0" y="0em">
                        <defs/>
                        <text text-anchor="middle" x="50%" y="1em">?</text>
                      </svg>
                    </svg>
                    <line stroke="black" x1="50%" x2="50%" y1="1.2em" y2="12em"/>
                  </svg>
                  <line stroke="black" x1="50%" x2="89.5833%" y1="1.2em" y2="3em"/>
                </svg>
                <line stroke="black" x1="50%" x2="58.6207%" y1="1.2em" y2="3em"/>
              </svg>
              <line stroke="black" x1="50%" x2="57.3529%" y1="1.2em" y2="3em"/>
            </svg>
            <line stroke="black" x1="50%" x2="55.2632%" y1="1.2em" y2="3em"/>
          </svg>
          <line stroke="black" x1="50%" x2="55.814%" y1="1.2em" y2="3em"/>
        </svg>
        <line stroke="black" x1="50%" x2="44.7917%" y1="1.2em" y2="3em"/>
        <svg width="10.4167%" x="89.5833%" y="3em">
          <defs/>
          <svg width="100%" x="0" y="0em">
            <defs/>
            <text text-anchor="middle" x="50%" y="1em">CM7</text>
          </svg>
          <svg width="100%" x="0%" y="27em">
            <defs/>
            <svg width="100%" x="0" y="0em">
              <defs/>
              <text text-anchor="middle" x="50%" y="1em">?</text>
            </svg>
          </svg>
          <line stroke="black" x1="50%" x2="50%" y1="1.2em" y2="27em"/>
        </svg>
        <line stroke="black" x1="50%" x2="94.7917%" y1="1.2em" y2="3em"/>
      </svg>
      <line stroke="black" x1="50%" x2="57.8947%" y1="1.2em" y2="3em"/>
    </svg>
    <line stroke="black" x1="50%" x2="54.0323%" y1="1.2em" y2="3em"/>
  </svg>
  <line stroke="black" x1="50%" x2="56.338%" y1="1.2em" y2="3em"/>
</svg>
