<?xml version="1.0" encoding="utf-8" ?>
<svg baseProfile="full" height="744px" preserveAspectRatio="xMidYMid meet" style="font-family: times, serif; font-weight:normal; font-style: normal; font-size: 16px;" version="1.1" viewBox="0,0,640.0,744.0" width="640px" xmlns="http://www.w3.org/2000/svg" xmlns:ev="http://www.w3.org/2001/xml-events" xmlns:xlink="http://www.w3.org/1999/xlink">
  <defs/>
  <svg width="100%" x="0" y="0em">
    <defs/>
    <text text-anchor="middle" x="50%" y="1em">CM7</text>
  </svg>
  <svg width="11.25%" x="0%" y="3em">
    <defs/>
    <svg width="100%" x="0" y="0em">
      <defs/>
      <text text-anchor="middle" x="50%" y="1em">G7</text>
    </svg>
    <svg width="55.5556%" x="0%" y="3em">
      <defs/>
      <svg width="100%" x="0" y="0em">
        <defs/>
        <text text-anchor="middle" x="50%" y="1em">Dm7</text>
      </svg>
      <svg width="100%" x="0%" y="39em">
        <defs/>
        <svg width="100%" x="0" y="0em">
          <defs/>
          <text text-anchor="middle" x="50%" y="1em">Dm7</text>
        </svg>
      </svg>
      <line stroke="black" x1="50%" x2="50%" y1="1.2em" y2="39em"/>
    </svg>
    <line stroke="black" x1="50%" x2="27.7778%" y1="1.2em" y2="3em"/>
    <svg width="44.4444%" x="55.5556%" y="3em">
      <defs/>
      <svg width="100%" x="0" y="0em">
        <defs/>
        <text text-anchor="middle" x="50%" y="1em">G7</text>
      </svg>
      <svg width="100%" x="0%" y="39em">
        <defs/>
        <svg width="100%" x="0" y="0em">
          <defs/>
          <text text-anchor="middle" x="50%" y="1em">G7</text>
        </svg>
      </svg>
      <line stroke="black" x1="50%" x2="50%" y1="1.2em" y2="39em"/>
    </svg>
    <line stroke="black" x1="50%" x2="77.7778%" y1="1.2em" y2="3em"/>
  </svg>
  <line stroke="black" x1="50%" x2="5.625%" y1="1.2em" y2="3em"/>
  <svg width="88.75%" x="11.25%" y="3em">
    <defs/>
    <svg width="100%" x="0" y="0em">
      <defs/>
      <text text-anchor="middle" x="50%" y="1em">CM7</text>
    </svg>
    <svg width="7.04225%" x="0%" y="3em">
      <defs/>
      <svg width="100%" x="0" y="0em">
        <defs/>
        <text text-anchor="middle" x="50%" y="1em">CM7</text>
      </svg>
      <svg width="100%" x="0%" y="39em">
        <defs/>
        <svg width="100%" x="0" y="0em">
          <defs/>
          <text text-anchor="middle" x="50%" y="1em">CM7</text>
        </svg>
      </svg>
      <line stroke="black" x1="50%" x2="50%" y1="1.2em" y2="39em"/>
    </svg>
    <line stroke="black" x1="50%" x2="3.52113%" y1="1.2em" y2="3em"/>
    <svg width="92.9577%" x="7.04225%" y="3em">
      <defs/>
      <svg width="100%" x="0" y="0em">
        <defs/>
        <text text-anchor="middle" x="50%" y="1em">CM7</text>
      </svg>
      <svg width="92.4242%" x="0%" y="3em">
        <defs/>
        <svg width="100%" x="0" y="0em">
          <defs/>
          <text text-anchor="middle" x="50%" y="1em">G7</text>
        </svg>
        <svg width="8.19672%" x="0%" y="3em">
          <defs/>
          <svg width="100%" x="0" y="0em">
            <defs/>
            <text text-anchor="middle" x="50%" y="1em">Dm7</text>
          </svg>
          <svg width="100%" x="0%" y="33em">
            <defs/>
            <svg width="100%" x="0" y="0em">
              <defs/>
              <text text-anchor="middle" x="50%" y="1em">Dm7</text>
            </svg>
          </svg>
          <line stroke="black" x1="50%" x2="50%" y1="1.2em" y2="33em"/>
        </svg>
        <line stroke="black" x1="50%" x2="4.09836%" y1="1.2em" y2="3em"/>
        <svg width="91.8033%" x="8.19672%" y="3em">
          <defs/>
          <svg width="100%" x="0" y="0em">
            <defs/>
            <text text-anchor="middle" x="50%" y="1em">G7</text>
          </svg>
          <svg width="7.14286%" x="0%" y="3em">
            <defs/>
            <svg width="100%" x="0" y="0em">
              <defs/>
              <text text-anchor="middle" x="50%" y="1em">G7</text>
            </svg>
            <svg width="100%" x="0%" y="30em">
              <defs/>
              <svg width="100%" x="0" y="0em">
                <defs/>
                <text text-anchor="middle" x="50%" y="1em">G7</text>
              </svg>
            </svg>
            <line stroke="black" x1="50%" x2="50%" y1="1.2em" y2="30em"/>
          </svg>
          <line stroke="black" x1="50%" x2="3.57143%" y1="1.2em" y2="3em"/>
          <svg width="92.8571%" x="7.14286%" y="3em">
            <defs/>
            <svg width="100%" x="0" y="0em">
              <defs/>
              <text text-anchor="middle" x="50%" y="1em">G7</text>
            </svg>
            <svg width="9.61538%" x="0%" y="3em">
              <defs/>
              <svg width="100%" x="0" y="0em">
                <defs/>
                <text text-anchor="middle" x="50%" y="1em">Gm7</text>
              </svg>
              <svg width="100%" x="0%" y="27em">
                <defs/>
                <svg width="100%" x="0" y="0em">
                  <defs/>
                  <text text-anchor="middle" x="50%" y="1em">Gm7</text>
                </svg>
              </svg>
              <line stroke="black" x1="50%" x2="50%" y1="1.2em" y2="27em"/>
            </svg>
            <line stroke="black" x1="50%" x2="4.80769%" y1="1.2em" y2="3em"/>
            <svg width="90.3846%" x="9.61538%" y="3em">
              <defs/>
              <svg width="100%" x="0" y="0em">
                <defs/>
                <text text-anchor="middle" x="50%" y="1em">G7</text>
              </svg>
              <svg width="91.4894%" x="0%" y="3em">
                <defs/>
                <svg width="100%" x="0" y="0em">
                  <defs/>
                  <text text-anchor="middle" x="50%" y="1em">FM7</text>
                </svg>
                <svg width="9.30233%" x="0%" y="3em">
                  <defs/>
                  <svg width="100%" x="0" y="0em">
                    <defs/>
                    <text text-anchor="middle" x="50%" y="1em">C7</text>
                  </svg>
                  <svg width="100%" x="0%" y="21em">
                    <defs/>
                    <svg width="100%" x="0" y="0em">
                      <defs/>
                      <text text-anchor="middle" x="50%" y="1em">C7</text>
                    </svg>
                  </svg>
                  <line stroke="black" x1="50%" x2="50%" y1="1.2em" y2="21em"/>
                </svg>
                <line stroke="black" x1="50%" x2="4.65116%" y1="1.2em" y2="3em"/>
                <svg width="90.6977%" x="9.30233%" y="3em">
                  <defs/>
                  <svg width="100%" x="0" y="0em">
                    <defs/>
                    <text text-anchor="middle" x="50%" y="1em">FM7</text>
                  </svg>
                  <svg width="12.8205%" x="0%" y="3em">
                    <defs/>
                    <svg width="100%" x="0" y="0em">
                      <defs/>
                      <text text-anchor="middle" x="50%" y="1em">FM7</text>
                    </svg>
                    <svg width="100%" x="0%" y="18em">
                      <defs/>
                      <svg width="100%" x="0" y="0em">
                        <defs/>
                        <text text-anchor="middle" x="50%" y="1em">FM7</text>
                      </svg>
                    </svg>
                    <line stroke="black" x1="50%" x2="50%" y1="1.2em" y2="18em"/>
                  </svg>
                  <line stroke="black" x1="50%" x2="6.41026%" y1="1.2em" y2="3em"/>
                  <svg width="87.1795%" x="12.8205%" y="3em">
                    <defs/>
                    <svg width="100%" x="0" y="0em">
                      <defs/>
                      <text text-anchor="middle" x="50%" y="1em">FM7</text>
                    </svg>
                    <svg width="85.2941%" x="0%" y="3em">
                      <defs/>
                      <svg width="100%" x="0" y="0em">
                        <defs/>
                        <text text-anchor="middle" x="50%" y="1em">C7</text>
                      </svg>
                      <svg width="17.2414%" x="0%" y="3em">
                        <defs/>
                        <svg width="100%" x="0" y="0em">
                          <defs/>
                          <text text-anchor="middle" x="50%" y="1em">Bb7</text>
                        </svg>
                        <svg width="100%" x="0%" y="12em">
                          <defs/>
                          <svg width="100%" x="0" y="0em">
                            <defs/>
                            <text text-anchor="middle" x="50%" y="1em">Bb7</text>
                          </svg>
                        </svg>
                        <line stroke="black" x1="50%" x2="50%" y1="1.2em" y2="12em"/>
                      </svg>
                      <line stroke="black" x1="50%" x2="8.62069%" y1="1.2em" y2="3em"/>
                      <svg width="82.7586%" x="17.2414%" y="3em">
                        <defs/>
                        <svg width="100%" x="0" y="0em">
                          <defs/>
                          <text text-anchor="middle" x="50%" y="1em">C7</text>
                        </svg>
                        <svg width="41.6667%" x="0%" y="3em">
                          <defs/>
                          <svg width="100%" x="0" y="0em">
                            <defs/>
                            <text text-anchor="middle" x="50%" y="1em">Am7</text>
                          </svg>
                          <svg width="50%" x="0%" y="3em">
                            <defs/>
                            <svg width="100%" x="0" y="0em">
                              <defs/>
                              <text text-anchor="middle" x="50%" y="1em">Em7</text>
                            </svg>
                            <svg width="100%" x="0%" y="6em">
                              <defs/>
                              <svg width="100%" x="0" y="0em">
                                <defs/>
                                <text text-anchor="middle" x="50%" y="1em">Em7</text>
                              </svg>
                            </svg>
                            <line stroke="black" x1="50%" x2="50%" y1="1.2em" y2="6em"/>
                          </svg>
                          <line stroke="black" x1="50%" x2="25%" y1="1.2em" y2="3em"/>
                          <svg width="50%" x="50%" y="3em">
                            <defs/>
                            <svg width="100%" x="0" y="0em">
                              <defs/>
                              <text text-anchor="middle" x="50%" y="1em">Am7</text>
                            </svg>
                            <svg width="100%" x="0%" y="6em">
                              <defs/>
                              <svg width="100%" x="0" y="0em">
                                <defs/>
                                <text text-anchor="middle" x="50%" y="1em">Am7</text>
                              </svg>
                            </svg>
                            <line stroke="black" x1="50%" x2="50%" y1="1.2em" y2="6em"/>
                          </svg>
                          <line stroke="black" x1="50%" x2="75%" y1="1.2em" y2="3em"/>
                        </svg>
                        <line stroke="black" x1="50%" x2="20.8333%" y1="1.2em" y2="3em"/>
                        <svg width="58.3333%" x="41.6667%" y="3em">
                          <defs/>
                          <svg width="100%" x="0" y="0em">
                            <defs/>
                            <text text-anchor="middle" x="50%" y="1em">C7</text>
                          </svg>
                          <svg width="71.4286%" x="0%" y="3em">
                            <defs/>
                            <svg width="100%" x="0" y="0em">
                              <defs/>
                              <text text-anchor="middle" x="50%" y="1em">Gm7</text>
                            </svg>
                            <svg width="50%" x="0%" y="3em">
                              <defs/>
                              <svg width="100%" x="0" y="0em">
                                <defs/>
                                <text text-anchor="middle" x="50%" y="1em">Dm7</text>
                              </svg>
                              <svg width="100%" x="0%" y="3em">
                                <defs/>
                                <svg width="100%" x="0" y="0em">
                                  <defs/>
                                  <text text-anchor="middle" x="50%" y="1em">Dm7</text>
                                </svg>
                              </svg>
                              <line stroke="black" x1="50%" x2="50%" y1="1.2em" y2="3em"/>
                            </svg>
                            <line stroke="black" x1="50%" x2="25%" y1="1.2em" y2="3em"/>
                            <svg width="50%" x="50%" y="3em">
                              <defs/>
                              <svg width="100%" x="0" y="0em">
                                <defs/>
                                <text text-anchor="middle" x="50%" y="1em">Gm7</text>
                              </svg>
                              <svg width="100%" x="0%" y="3em">
                                <defs/>
                                <svg width="100%" x="0" y="0em">
                                  <defs/>
                                  <text text-anchor="middle" x="50%" y="1em">?</text>
                                </svg>
                              </svg>
                              <line stroke="black" x1="50%" x2="50%" y1="1.2em" y2="3em"/>
                            </svg>
                            <line stroke="black" x1="50%" x2="75%" y1="1.2em" y2="3em"/>
                          </svg>
                          <line stroke="black" x1="50%" x2="35.7143%" y1="1.2em" y2="3em"/>
                          <svg width="28.5714%" x="71.4286%" y="3em">
                            <defs/>
                            <svg width="100%" x="0" y="0em">
                              <defs/>
                              <text text-anchor="middle" x="50%" y="1em">C7</text>
                            </svg>
                            <svg width="100%" x="0%" y="6em">
                              <defs/>
                              <svg width="100%" x="0" y="0em">
                                <defs/>
                                <text text-anchor="middle" x="50%" y="1em">?</text>
                              </svg>
                            </svg>
                            <line stroke="black" x1="50%" x2="50%" y1="1.2em" y2="6em"/>
                          </svg>
                          <line stroke="black" x1="50%" x2="85.7143%" y1="1.2em" y2="3em"/>
                        </svg>
                        <line stroke="black" x1="50%" x2="70.8333%" y1="1.2em" y2="3em"/>
                      </svg>
                      <line stroke="black" x1="50%" x2="58.6207%" y1="1.2em" y2="3em"/>
                    </svg>
                    <line stroke="black" x1="50%" x2="42.6471%" y1="1.2em" y2="3em"/>
                    <svg width="14.7059%" x="85.2941%" y="3em">
                      <defs/>
                      <svg width="100%" x="0" y="0em">
                        <defs/>
                        <text text-anchor="middle" x="50%" y="1em">FM7</text>
                      </svg>
                      <svg width="100%" x="0%" y="15em">
                        <defs/>
                        <svg width="100%" x="0" y="0em">
                          <defs/>
                          <text text-anchor="middle" x="50%" y="1em">?</text>
                        </svg>
                      </svg>
                      <line stroke="black" x1="50%" x2="50%" y1="1.2em" y2="15em"/>
                    </svg>
                    <line stroke="black" x1="50%" x2="92.6471%" y1="1.2em" y2="3em"/>
                  </svg>
                  <line stroke="black" x1="50%" x2="56.4103%" y1="1.2em" y2="3em"/>
                </svg>
                <line stroke="black" x1="50%" x2="54.6512%" y1="1.2em" y2="3em"/>
              </svg>
              <line stroke="black" x1="50%" x2="45.7447%" y1="1.2em" y2="3em"/>
              <svg width="8.51064%" x="91.4894%" y="3em">
                <defs/>
                <svg width="100%" x="0" y="0em">
                  <defs/>
                  <text text-anchor="middle" x="50%" y="1em">G7</text>
                </svg>
                <svg width="100%" x="0%" y="24em">
                  <defs/>
                  <svg width="100%" x="0" y="0em">
                    <defs/>
                    <text text-anchor="middle" x="50%" y="1em">?</text>
                  </svg>
                </svg>
                <line stroke="black" x1="50%" x2="50%" y1="1.2em" y2="24em"/>
              </svg>
              <line stroke="black" x1="50%" x2="95.7447%" y1="1.2em" y2="3em"/>
            </svg>
            <line stroke="black" x1="50%" x2="54.8077%" y1="1.2em" y2="3em"/>
          </svg>
          <line stroke="black" x1="50%" x2="53.5714%" y1="1.2em" y2="3em"/>
        </svg>
        <line stroke="black" x1="50%" x2="54.0984%" y1="1.2em" y2="3em"/>
      </svg>
      <line stroke="black" x1="50%" x2="46.2121%" y1="1.2em" y2="3em"/>
      <svg width="7.57576%" x="92.4242%" y="3em">
        <defs/>
        <svg width="100%" x="0" y="0em">
          <defs/>
          <text text-anchor="middle" x="50%" y="1em">CM7</text>
        </svg>
        <svg width="100%" x="0%" y="36em">
          <defs/>
          <svg width="100%" x="0" y="0em">
            <defs/>
            <text text-anchor="middle" x="50%" y="1em">?</text>
          </svg>
        </svg>
        <line stroke="black" x1="50%" x2="50%" y1="1.2em" y2="36em"/>
      </svg>
      <line stroke="black" x1="50%" x2="96.2121%" y1="1.2em" y2="3em"/>
    </svg>
    <line stroke="black" x1="50%" x2="53.5211%" y1="1.2em" y2="3em"/>
  </svg>
  <line stroke="black" x1="50%" x2="55.625%" y1="1.2em" y2="3em"/>
</svg>
