<?xml version="1.0" encoding="utf-8" ?>
<svg baseProfile="full" height="648px" preserveAspectRatio="xMidYMid meet" style="font-family: times, serif; font-weight:normal; font-style: normal; font-size: 16px;" version="1.1" viewBox="0,0,592.0,648.0" width="592px" xmlns="http://www.w3.org/2000/svg" xmlns:ev="http://www.w3.org/2001/xml-events" xmlns:xlink="http://www.w3.org/1999/xlink">
  <defs/>
  <svg width="100%" x="0" y="0em">
    <defs/>
    <text text-anchor="middle" x="50%" y="1em">CM7</text>
  </svg>
  <svg width="12.1622%" x="0%" y="3em">
    <defs/>
    <svg width="100%" x="0" y="0em">
      <defs/>
      <text text-anchor="middle" x="50%" y="1em">G7</text>
    </svg>
    <svg width="55.5556%" x="0%" y="3em">
      <defs/>
      <svg width="100%" x="0" y="0em">
        <defs/>
        <text text-anchor="middle" x="50%" y="1em">Dm7</text>
      </svg>
      <svg width="100%" x="0%" y="33em">
        <defs/>
        <svg width="100%" x="0" y="0em">
          <defs/>
          <text text-anchor="middle" x="50%" y="1em">Dm7</text>
        </svg>
      </svg>
      <line stroke="black" x1="50%" x2="50%" y1="1.2em" y2="33em"/>
    </svg>
    <line stroke="black" x1="50%" x2="27.7778%" y1="1.2em" y2="3em"/>
    <svg width="44.4444%" x="55.5556%" y="3em">
      <defs/>
      <svg width="100%" x="0" y="0em">
        <defs/>
        <text text-anchor="middle" x="50%" y="1em">G7</text>
      </svg>
      <svg width="100%" x="0%" y="33em">
        <defs/>
        <svg width="100%" x="0" y="0em">
          <defs/>
          <text text-anchor="middle" x="50%" y="1em">G7</text>
        </svg>
      </svg>
      <line stroke="black" x1="50%" x2="50%" y1="1.2em" y2="33em"/>
    </svg>
    <line stroke="black" x1="50%" x2="77.7778%" y1="1.2em" y2="3em"/>
  </svg>
  <line stroke="black" x1="50%" x2="6.08108%" y1="1.2em" y2="3em"/>
  <svg width="87.8378%" x="12.1622%" y="3em">
    <defs/>
    <svg width="100%" x="0" y="0em">
      <defs/>
      <text text-anchor="middle" x="50%" y="1em">CM7</text>
    </svg>
    <svg width="7.69231%" x="0%" y="3em">
      <defs/>
      <svg width="100%" x="0" y="0em">
        <defs/>
        <text text-anchor="middle" x="50%" y="1em">CM7</text>
      </svg>
      <svg width="100%" x="0%" y="33em">
        <defs/>
        <svg width="100%" x="0" y="0em">
          <defs/>
          <text text-anchor="middle" x="50%" y="1em">CM7</text>
        </svg>
      </svg>
      <line stroke="black" x1="50%" x2="50%" y1="1.2em" y2="33em"/>
    </svg>
    <line stroke="black" x1="50%" x2="3.84615%" y1="1.2em" y2="3em"/>
    <svg width="92.3077%" x="7.69231%" y="3em">
      <defs/>
      <svg width="100%" x="0" y="0em">
        <defs/>
        <text text-anchor="middle" x="50%" y="1em">CM7</text>
      </svg>
      <svg width="15%" x="0%" y="3em">
        <defs/>
        <svg width="100%" x="0" y="0em">
          <defs/>
          <text text-anchor="middle" x="50%" y="1em">G7</text>
        </svg>
        <svg width="55.5556%" x="0%" y="3em">
          <defs/>
          <svg width="100%" x="0" y="0em">
            <defs/>
            <text text-anchor="middle" x="50%" y="1em">Dm7</text>
          </svg>
          <svg width="100%" x="0%" y="27em">
            <defs/>
            <svg width="100%" x="0" y="0em">
              <defs/>
              <text text-anchor="middle" x="50%" y="1em">Dm7</text>
            </svg>
          </svg>
          <line stroke="black" x1="50%" x2="50%" y1="1.2em" y2="27em"/>
        </svg>
        <line stroke="black" x1="50%" x2="27.7778%" y1="1.2em" y2="3em"/>
        <svg width="44.4444%" x="55.5556%" y="3em">
          <defs/>
          <svg width="100%" x="0" y="0em">
            <defs/>
            <text text-anchor="middle" x="50%" y="1em">G7</text>
          </svg>
          <svg width="100%" x="0%" y="27em">
            <defs/>
            <svg width="100%" x="0" y="0em">
              <defs/>
              <text text-anchor="middle" x="50%" y="1em">G7</text>
            </svg>
          </svg>
          <line stroke="black" x1="50%" x2="50%" y1="1.2em" y2="27em"/>
        </svg>
        <line stroke="black" x1="50%" x2="77.7778%" y1="1.2em" y2="3em"/>
      </svg>
      <line stroke="black" x1="50%" x2="7.5%" y1="1.2em" y2="3em"/>
      <svg width="85%" x="15%" y="3em">
        <defs/>
        <svg width="100%" x="0" y="0em">
          <defs/>
          <text text-anchor="middle" x="50%" y="1em">CM7</text>
        </svg>
        <svg width="90.1961%" x="0%" y="3em">
          <defs/>
          <svg width="100%" x="0" y="0em">
            <defs/>
            <text text-anchor="middle" x="50%" y="1em">FM7</text>
          </svg>
          <svg width="10.8696%" x="0%" y="3em">
            <defs/>
            <svg width="100%" x="0" y="0em">
              <defs/>
              <text text-anchor="middle" x="50%" y="1em">Gm7</text>
            </svg>
            <svg width="100%" x="0%" y="24em">
              <defs/>
              <svg width="100%" x="0" y="0em">
                <defs/>
                <text text-anchor="middle" x="50%" y="1em">Gm7</text>
              </svg>
            </svg>
            <line stroke="black" x1="50%" x2="50%" y1="1.2em" y2="24em"/>
          </svg>
          <line stroke="black" x1="50%" x2="5.43478%" y1="1.2em" y2="3em"/>
          <svg width="89.1304%" x="10.8696%" y="3em">
            <defs/>
            <svg width="100%" x="0" y="0em">
              <defs/>
              <text text-anchor="middle" x="50%" y="1em">FM7</text>
            </svg>
            <svg width="9.7561%" x="0%" y="3em">
              <defs/>
              <svg width="100%" x="0" y="0em">
                <defs/>
                <text text-anchor="middle" x="50%" y="1em">C7</text>
              </svg>
              <svg width="100%" x="0%" y="21em">
                <defs/>
                <svg width="100%" x="0" y="0em">
                  <defs/>
                  <text text-anchor="middle" x="50%" y="1em">C7</text>
                </svg>
              </svg>
              <line stroke="black" x1="50%" x2="50%" y1="1.2em" y2="21em"/>
            </svg>
            <line stroke="black" x1="50%" x2="4.87805%" y1="1.2em" y2="3em"/>
            <svg width="90.2439%" x="9.7561%" y="3em">
              <defs/>
              <svg width="100%" x="0" y="0em">
                <defs/>
                <text text-anchor="middle" x="50%" y="1em">FM7</text>
              </svg>
              <svg width="13.5135%" x="0%" y="3em">
                <defs/>
                <svg width="100%" x="0" y="0em">
                  <defs/>
                  <text text-anchor="middle" x="50%" y="1em">FM7</text>
                </svg>
                <svg width="100%" x="0%" y="18em">
                  <defs/>
                  <svg width="100%" x="0" y="0em">
                    <defs/>
                    <text text-anchor="middle" x="50%" y="1em">FM7</text>
                  </svg>
                </svg>
                <line stroke="black" x1="50%" x2="50%" y1="1.2em" y2="18em"/>
              </svg>
              <line stroke="black" x1="50%" x2="6.75676%" y1="1.2em" y2="3em"/>
              <svg width="86.4865%" x="13.5135%" y="3em">
                <defs/>
                <svg width="100%" x="0" y="0em">
                  <defs/>
                  <text text-anchor="middle" x="50%" y="1em">F6</text>
                </svg>
                <svg width="87.5%" x="0%" y="3em">
                  <defs/>
                  <svg width="100%" x="0" y="0em">
                    <defs/>
                    <text text-anchor="middle" x="50%" y="1em">C7</text>
                  </svg>
                  <svg width="17.8571%" x="0%" y="3em">
                    <defs/>
                    <svg width="100%" x="0" y="0em">
                      <defs/>
                      <text text-anchor="middle" x="50%" y="1em">Bb7</text>
                    </svg>
                    <svg width="100%" x="0%" y="12em">
                      <defs/>
                      <svg width="100%" x="0" y="0em">
                        <defs/>
                        <text text-anchor="middle" x="50%" y="1em">Bb7</text>
                      </svg>
                    </svg>
                    <line stroke="black" x1="50%" x2="50%" y1="1.2em" y2="12em"/>
                  </svg>
                  <line stroke="black" x1="50%" x2="8.92857%" y1="1.2em" y2="3em"/>
                  <svg width="82.1429%" x="17.8571%" y="3em">
                    <defs/>
                    <svg width="100%" x="0" y="0em">
                      <defs/>
                      <text text-anchor="middle" x="50%" y="1em">C7</text>
                    </svg>
                    <svg width="43.4783%" x="0%" y="3em">
                      <defs/>
                      <svg width="100%" x="0" y="0em">
                        <defs/>
                        <text text-anchor="middle" x="50%" y="1em">Am7</text>
                      </svg>
                      <svg width="50%" x="0%" y="3em">
                        <defs/>
                        <svg width="100%" x="0" y="0em">
                          <defs/>
                          <text text-anchor="middle" x="50%" y="1em">Em7</text>
                        </svg>
                        <svg width="100%" x="0%" y="6em">
                          <defs/>
                          <svg width="100%" x="0" y="0em">
                            <defs/>
                            <text text-anchor="middle" x="50%" y="1em">Em7</text>
                          </svg>
                        </svg>
                        <line stroke="black" x1="50%" x2="50%" y1="1.2em" y2="6em"/>
                      </svg>
                      <line stroke="black" x1="50%" x2="25%" y1="1.2em" y2="3em"/>
                      <svg width="50%" x="50%" y="3em">
                        <defs/>
                        <svg width="100%" x="0" y="0em">
                          <defs/>
                          <text text-anchor="middle" x="50%" y="1em">Am7</text>
                        </svg>
                        <svg width="100%" x="0%" y="6em">
                          <defs/>
                          <svg width="100%" x="0" y="0em">
                            <defs/>
                            <text text-anchor="middle" x="50%" y="1em">Am7</text>
                          </svg>
                        </svg>
                        <line stroke="black" x1="50%" x2="50%" y1="1.2em" y2="6em"/>
                      </svg>
                      <line stroke="black" x1="50%" x2="75%" y1="1.2em" y2="3em"/>
                    </svg>
                    <line stroke="black" x1="50%" x2="21.7391%" y1="1.2em" y2="3em"/>
                    <svg width="56.5217%" x="43.4783%" y="3em">
                      <defs/>
                      <svg width="100%" x="0" y="0em">
                        <defs/>
                        <text text-anchor="middle" x="50%" y="1em">C7</text>
                      </svg>
                      <svg width="69.2308%" x="0%" y="3em">
                        <defs/>
                        <svg width="100%" x="0" y="0em">
                          <defs/>
                          <text text-anchor="middle" x="50%" y="1em">G7</text>
                        </svg>
                        <svg width="55.5556%" x="0%" y="3em">
                          <defs/>
                          <svg width="100%" x="0" y="0em">
                            <defs/>
                            <text text-anchor="middle" x="50%" y="1em">Dm7</text>
                          </svg>
                          <svg width="100%" x="0%" y="3em">
                            <defs/>
                            <svg width="100%" x="0" y="0em">
                              <defs/>
                              <text text-anchor="middle" x="50%" y="1em">Dm7</text>
                            </svg>
                          </svg>
                          <line stroke="black" x1="50%" x2="50%" y1="1.2em" y2="3em"/>
                        </svg>
                        <line stroke="black" x1="50%" x2="27.7778%" y1="1.2em" y2="3em"/>
                        <svg width="44.4444%" x="55.5556%" y="3em">
                          <defs/>
                          <svg width="100%" x="0" y="0em">
                            <defs/>
                            <text text-anchor="middle" x="50%" y="1em">G7</text>
                          </svg>
                          <svg width="100%" x="0%" y="3em">
                            <defs/>
                            <svg width="100%" x="0" y="0em">
                              <defs/>
                              <text text-anchor="middle" x="50%" y="1em">?</text>
                            </svg>
                          </svg>
                          <line stroke="black" x1="50%" x2="50%" y1="1.2em" y2="3em"/>
                        </svg>
                        <line stroke="black" x1="50%" x2="77.7778%" y1="1.2em" y2="3em"/>
                      </svg>
                      <line stroke="black" x1="50%" x2="34.6154%" y1="1.2em" y2="3em"/>
                      <svg width="30.7692%" x="69.2308%" y="3em">
                        <defs/>
                        <svg width="100%" x="0" y="0em">
                          <defs/>
                          <text text-anchor="middle" x="50%" y="1em">C7</text>
                        </svg>
                        <svg width="100%" x="0%" y="6em">
                          <defs/>
                          <svg width="100%" x="0" y="0em">
                            <defs/>
                            <text text-anchor="middle" x="50%" y="1em">?</text>
                          </svg>
                        </svg>
                        <line stroke="black" x1="50%" x2="50%" y1="1.2em" y2="6em"/>
                      </svg>
                      <line stroke="black" x1="50%" x2="84.6154%" y1="1.2em" y2="3em"/>
                    </svg>
                    <line stroke="black" x1="50%" x2="71.7391%" y1="1.2em" y2="3em"/>
                  </svg>
                  <line stroke="black" x1="50%" x2="58.9286%" y1="1.2em" y2="3em"/>
                </svg>
                <line stroke="black" x1="50%" x2="43.75%" y1="1.2em" y2="3em"/>
                <svg width="12.5%" x="87.5%" y="3em">
                  <defs/>
                  <svg width="100%" x="0" y="0em">
                    <defs/>
                    <text text-anchor="middle" x="50%" y="1em">F6</text>
                  </svg>
                  <svg width="100%" x="0%" y="15em">
                    <defs/>
                    <svg width="100%" x="0" y="0em">
                      <defs/>
                      <text text-anchor="middle" x="50%" y="1em">?</text>
                    </svg>
                  </svg>
                  <line stroke="black" x1="50%" x2="50%" y1="1.2em" y2="15em"/>
                </svg>
                <line stroke="black" x1="50%" x2="93.75%" y1="1.2em" y2="3em"/>
              </svg>
              <line stroke="black" x1="50%" x2="56.7568%" y1="1.2em" y2="3em"/>
            </svg>
            <line stroke="black" x1="50%" x2="54.878%" y1="1.2em" y2="3em"/>
          </svg>
          <line stroke="black" x1="50%" x2="55.4348%" y1="1.2em" y2="3em"/>
        </svg>
        <line stroke="black" x1="50%" x2="45.098%" y1="1.2em" y2="3em"/>
        <svg width="9.80392%" x="90.1961%" y="3em">
          <defs/>
          <svg width="100%" x="0" y="0em">
            <defs/>
            <text text-anchor="middle" x="50%" y="1em">CM7</text>
          </svg>
          <svg width="100%" x="0%" y="27em">
            <defs/>
            <svg width="100%" x="0" y="0em">
              <defs/>
              <text text-anchor="middle" x="50%" y="1em">?</text>
            </svg>
          </svg>
          <line stroke="black" x1="50%" x2="50%" y1="1.2em" y2="27em"/>
        </svg>
        <line stroke="black" x1="50%" x2="95.098%" y1="1.2em" y2="3em"/>
      </svg>
      <line stroke="black" x1="50%" x2="57.5%" y1="1.2em" y2="3em"/>
    </svg>
    <line stroke="black" x1="50%" x2="53.8462%" y1="1.2em" y2="3em"/>
  </svg>
  <line stroke="black" x1="50%" x2="56.0811%" y1="1.2em" y2="3em"/>
</svg>
