<?xml version="1.0" encoding="utf-8" ?>
<svg baseProfile="full" height="600px" preserveAspectRatio="xMidYMid meet" style="font-family: times, serif; font-weight:normal; font-style: normal; font-size: 16px;" version="1.1" viewBox="0,0,488.0,600.0" width="488px" xmlns="http://www.w3.org/2000/svg" xmlns:ev="http://www.w3.org/2001/xml-events" xmlns:xlink="http://www.w3.org/1999/xlink">
  <defs/>
  <svg width="100%" x="0" y="0em">
    <defs/>
    <text text-anchor="middle" x="50%" y="1em">CM7</text>
  </svg>
  <svg width="14.7541%" x="0%" y="3em">
    <defs/>
    <svg width="100%" x="0" y="0em">
      <defs/>
      <text text-anchor="middle" x="50%" y="1em">G7</text>
    </svg>
    <svg width="55.5556%" x="0%" y="3em">
      <defs/>
      <svg width="100%" x="0" y="0em">
        <defs/>
        <text text-anchor="middle" x="50%" y="1em">Dm7</text>
      </svg>
      <svg width="100%" x="0%" y="30em">
        <defs/>
        <svg width="100%" x="0" y="0em">
          <defs/>
          <text text-anchor="middle" x="50%" y="1em">Dm7</text>
        </svg>
      </svg>
      <line stroke="black" x1="50%" x2="50%" y1="1.2em" y2="30em"/>
    </svg>
    <line stroke="black" x1="50%" x2="27.7778%" y1="1.2em" y2="3em"/>
    <svg width="44.4444%" x="55.5556%" y="3em">
      <defs/>
      <svg width="100%" x="0" y="0em">
        <defs/>
        <text text-anchor="middle" x="50%" y="1em">G7</text>
      </svg>
      <svg width="100%" x="0%" y="30em">
        <defs/>
        <svg width="100%" x="0" y="0em">
          <defs/>
          <text text-anchor="middle" x="50%" y="1em">G7</text>
        </svg>
      </svg>
      <line stroke="black" x1="50%" x2="50%" y1="1.2em" y2="30em"/>
    </svg>
    <line stroke="black" x1="50%" x2="77.7778%" y1="1.2em" y2="3em"/>
  </svg>
  <line stroke="black" x1="50%" x2="7.37705%" y1="1.2em" y2="3em"/>
  <svg width="85.2459%" x="14.7541%" y="3em">
    <defs/>
    <svg width="100%" x="0" y="0em">
      <defs/>
      <text text-anchor="middle" x="50%" y="1em">CM7</text>
    </svg>
    <svg width="9.61538%" x="0%" y="3em">
      <defs/>
      <svg width="100%" x="0" y="0em">
        <defs/>
        <text text-anchor="middle" x="50%" y="1em">CM7</text>
      </svg>
      <svg width="100%" x="0%" y="30em">
        <defs/>
        <svg width="100%" x="0" y="0em">
          <defs/>
          <text text-anchor="middle" x="50%" y="1em">CM7</text>
        </svg>
      </svg>
      <line stroke="black" x1="50%" x2="50%" y1="1.2em" y2="30em"/>
    </svg>
    <line stroke="black" x1="50%" x2="4.80769%" y1="1.2em" y2="3em"/>
    <svg width="90.3846%" x="9.61538%" y="3em">
      <defs/>
      <svg width="100%" x="0" y="0em">
        <defs/>
        <text text-anchor="middle" x="50%" y="1em">CM7</text>
      </svg>
      <svg width="89.3617%" x="0%" y="3em">
        <defs/>
        <svg width="100%" x="0" y="0em">
          <defs/>
          <text text-anchor="middle" x="50%" y="1em">G7</text>
        </svg>
        <svg width="11.9048%" x="0%" y="3em">
          <defs/>
          <svg width="100%" x="0" y="0em">
            <defs/>
            <text text-anchor="middle" x="50%" y="1em">Dm7</text>
          </svg>
          <svg width="100%" x="0%" y="24em">
            <defs/>
            <svg width="100%" x="0" y="0em">
              <defs/>
              <text text-anchor="middle" x="50%" y="1em">Dm7</text>
            </svg>
          </svg>
          <line stroke="black" x1="50%" x2="50%" y1="1.2em" y2="24em"/>
        </svg>
        <line stroke="black" x1="50%" x2="5.95238%" y1="1.2em" y2="3em"/>
        <svg width="88.0952%" x="11.9048%" y="3em">
          <defs/>
          <svg width="100%" x="0" y="0em">
            <defs/>
            <text text-anchor="middle" x="50%" y="1em">G7</text>
          </svg>
          <svg width="10.8108%" x="0%" y="3em">
            <defs/>
            <svg width="100%" x="0" y="0em">
              <defs/>
              <text text-anchor="middle" x="50%" y="1em">G7</text>
            </svg>
            <svg width="100%" x="0%" y="21em">
              <defs/>
              <svg width="100%" x="0" y="0em">
                <defs/>
                <text text-anchor="middle" x="50%" y="1em">G7</text>
              </svg>
            </svg>
            <line stroke="black" x1="50%" x2="50%" y1="1.2em" y2="21em"/>
          </svg>
          <line stroke="black" x1="50%" x2="5.40541%" y1="1.2em" y2="3em"/>
          <svg width="89.1892%" x="10.8108%" y="3em">
            <defs/>
            <svg width="100%" x="0" y="0em">
              <defs/>
              <text text-anchor="middle" x="50%" y="1em">G7</text>
            </svg>
            <svg width="87.8788%" x="0%" y="3em">
              <defs/>
              <svg width="100%" x="0" y="0em">
                <defs/>
                <text text-anchor="middle" x="50%" y="1em">FM7</text>
              </svg>
              <svg width="17.2414%" x="0%" y="3em">
                <defs/>
                <svg width="100%" x="0" y="0em">
                  <defs/>
                  <text text-anchor="middle" x="50%" y="1em">Gm7</text>
                </svg>
                <svg width="100%" x="0%" y="15em">
                  <defs/>
                  <svg width="100%" x="0" y="0em">
                    <defs/>
                    <text text-anchor="middle" x="50%" y="1em">Gm7</text>
                  </svg>
                </svg>
                <line stroke="black" x1="50%" x2="50%" y1="1.2em" y2="15em"/>
              </svg>
              <line stroke="black" x1="50%" x2="8.62069%" y1="1.2em" y2="3em"/>
              <svg width="82.7586%" x="17.2414%" y="3em">
                <defs/>
                <svg width="100%" x="0" y="0em">
                  <defs/>
                  <text text-anchor="middle" x="50%" y="1em">FM7</text>
                </svg>
                <svg width="16.6667%" x="0%" y="3em">
                  <defs/>
                  <svg width="100%" x="0" y="0em">
                    <defs/>
                    <text text-anchor="middle" x="50%" y="1em">C7</text>
                  </svg>
                  <svg width="100%" x="0%" y="12em">
                    <defs/>
                    <svg width="100%" x="0" y="0em">
                      <defs/>
                      <text text-anchor="middle" x="50%" y="1em">C7</text>
                    </svg>
                  </svg>
                  <line stroke="black" x1="50%" x2="50%" y1="1.2em" y2="12em"/>
                </svg>
                <line stroke="black" x1="50%" x2="8.33333%" y1="1.2em" y2="3em"/>
                <svg width="83.3333%" x="16.6667%" y="3em">
                  <defs/>
                  <svg width="100%" x="0" y="0em">
                    <defs/>
                    <text text-anchor="middle" x="50%" y="1em">FM7</text>
                  </svg>
                  <svg width="25%" x="0%" y="3em">
                    <defs/>
                    <svg width="100%" x="0" y="0em">
                      <defs/>
                      <text text-anchor="middle" x="50%" y="1em">FM7</text>
                    </svg>
                    <svg width="100%" x="0%" y="9em">
                      <defs/>
                      <svg width="100%" x="0" y="0em">
                        <defs/>
                        <text text-anchor="middle" x="50%" y="1em">FM7</text>
                      </svg>
                    </svg>
                    <line stroke="black" x1="50%" x2="50%" y1="1.2em" y2="9em"/>
                  </svg>
                  <line stroke="black" x1="50%" x2="12.5%" y1="1.2em" y2="3em"/>
                  <svg width="75%" x="25%" y="3em">
                    <defs/>
                    <svg width="100%" x="0" y="0em">
                      <defs/>
                      <text text-anchor="middle" x="50%" y="1em">FM7</text>
                    </svg>
                    <svg width="66.6667%" x="0%" y="3em">
                      <defs/>
                      <svg width="100%" x="0" y="0em">
                        <defs/>
                        <text text-anchor="middle" x="50%" y="1em">Eb7</text>
                      </svg>
                      <svg width="50%" x="0%" y="3em">
                        <defs/>
                        <svg width="100%" x="0" y="0em">
                          <defs/>
                          <text text-anchor="middle" x="50%" y="1em">Bb7</text>
                        </svg>
                        <svg width="100%" x="0%" y="3em">
                          <defs/>
                          <svg width="100%" x="0" y="0em">
                            <defs/>
                            <text text-anchor="middle" x="50%" y="1em">Bb7</text>
                          </svg>
                        </svg>
                        <line stroke="black" x1="50%" x2="50%" y1="1.2em" y2="3em"/>
                      </svg>
                      <line stroke="black" x1="50%" x2="25%" y1="1.2em" y2="3em"/>
                      <svg width="50%" x="50%" y="3em">
                        <defs/>
                        <svg width="100%" x="0" y="0em">
                          <defs/>
                          <text text-anchor="middle" x="50%" y="1em">Eb7</text>
                        </svg>
                        <svg width="100%" x="0%" y="3em">
                          <defs/>
                          <svg width="100%" x="0" y="0em">
                            <defs/>
                            <text text-anchor="middle" x="50%" y="1em">?</text>
                          </svg>
                        </svg>
                        <line stroke="black" x1="50%" x2="50%" y1="1.2em" y2="3em"/>
                      </svg>
                      <line stroke="black" x1="50%" x2="75%" y1="1.2em" y2="3em"/>
                    </svg>
                    <line stroke="black" x1="50%" x2="33.3333%" y1="1.2em" y2="3em"/>
                    <svg width="33.3333%" x="66.6667%" y="3em">
                      <defs/>
                      <svg width="100%" x="0" y="0em">
                        <defs/>
                        <text text-anchor="middle" x="50%" y="1em">FM7</text>
                      </svg>
                      <svg width="100%" x="0%" y="6em">
                        <defs/>
                        <svg width="100%" x="0" y="0em">
                          <defs/>
                          <text text-anchor="middle" x="50%" y="1em">?</text>
                        </svg>
                      </svg>
                      <line stroke="black" x1="50%" x2="50%" y1="1.2em" y2="6em"/>
                    </svg>
                    <line stroke="black" x1="50%" x2="83.3333%" y1="1.2em" y2="3em"/>
                  </svg>
                  <line stroke="black" x1="50%" x2="62.5%" y1="1.2em" y2="3em"/>
                </svg>
                <line stroke="black" x1="50%" x2="58.3333%" y1="1.2em" y2="3em"/>
              </svg>
              <line stroke="black" x1="50%" x2="58.6207%" y1="1.2em" y2="3em"/>
            </svg>
            <line stroke="black" x1="50%" x2="43.9394%" y1="1.2em" y2="3em"/>
            <svg width="12.1212%" x="87.8788%" y="3em">
              <defs/>
              <svg width="100%" x="0" y="0em">
                <defs/>
                <text text-anchor="middle" x="50%" y="1em">G7</text>
              </svg>
              <svg width="100%" x="0%" y="18em">
                <defs/>
                <svg width="100%" x="0" y="0em">
                  <defs/>
                  <text text-anchor="middle" x="50%" y="1em">?</text>
                </svg>
              </svg>
              <line stroke="black" x1="50%" x2="50%" y1="1.2em" y2="18em"/>
            </svg>
            <line stroke="black" x1="50%" x2="93.9394%" y1="1.2em" y2="3em"/>
          </svg>
          <line stroke="black" x1="50%" x2="55.4054%" y1="1.2em" y2="3em"/>
        </svg>
        <line stroke="black" x1="50%" x2="55.9524%" y1="1.2em" y2="3em"/>
      </svg>
      <line stroke="black" x1="50%" x2="44.6809%" y1="1.2em" y2="3em"/>
      <svg width="10.6383%" x="89.3617%" y="3em">
        <defs/>
        <svg width="100%" x="0" y="0em">
          <defs/>
          <text text-anchor="middle" x="50%" y="1em">CM7</text>
        </svg>
        <svg width="100%" x="0%" y="27em">
          <defs/>
          <svg width="100%" x="0" y="0em">
            <defs/>
            <text text-anchor="middle" x="50%" y="1em">?</text>
          </svg>
        </svg>
        <line stroke="black" x1="50%" x2="50%" y1="1.2em" y2="27em"/>
      </svg>
      <line stroke="black" x1="50%" x2="94.6809%" y1="1.2em" y2="3em"/>
    </svg>
    <line stroke="black" x1="50%" x2="54.8077%" y1="1.2em" y2="3em"/>
  </svg>
  <line stroke="black" x1="50%" x2="57.377%" y1="1.2em" y2="3em"/>
</svg>
