<?xml version="1.0" encoding="utf-8" ?>
<svg baseProfile="full" height="600px" preserveAspectRatio="xMidYMid meet" style="font-family: times, serif; font-weight:normal; font-style: normal; font-size: 16px;" version="1.1" viewBox="0,0,520.0,600.0" width="520px" xmlns="http://www.w3.org/2000/svg" xmlns:ev="http://www.w3.org/2001/xml-events" xmlns:xlink="http://www.w3.org/1999/xlink">
  <defs/>
  <svg width="100%" x="0" y="0em">
    <defs/>
    <text text-anchor="middle" x="50%" y="1em">CM7</text>
  </svg>
  <svg width="13.8462%" x="0%" y="3em">
    <defs/>
    <svg width="100%" x="0" y="0em">
      <defs/>
      <text text-anchor="middle" x="50%" y="1em">G7</text>
    </svg>
    <svg width="55.5556%" x="0%" y="3em">
      <defs/>
      <svg width="100%" x="0" y="0em">
        <defs/>
        <text text-anchor="middle" x="50%" y="1em">Dm7</text>
      </svg>
      <svg width="100%" x="0%" y="30em">
        <defs/>
        <svg width="100%" x="0" y="0em">
          <defs/>
          <text text-anchor="middle" x="50%" y="1em">Dm7</text>
        </svg>
      </svg>
      <line stroke="black" x1="50%" x2="50%" y1="1.2em" y2="30em"/>
    </svg>
    <line stroke="black" x1="50%" x2="27.7778%" y1="1.2em" y2="3em"/>
    <svg width="44.4444%" x="55.5556%" y="3em">
      <defs/>
      <svg width="100%" x="0" y="0em">
        <defs/>
        <text text-anchor="middle" x="50%" y="1em">G7</text>
      </svg>
      <svg width="100%" x="0%" y="30em">
        <defs/>
        <svg width="100%" x="0" y="0em">
          <defs/>
          <text text-anchor="middle" x="50%" y="1em">G7</text>
        </svg>
      </svg>
      <line stroke="black" x1="50%" x2="50%" y1="1.2em" y2="30em"/>
    </svg>
    <line stroke="black" x1="50%" x2="77.7778%" y1="1.2em" y2="3em"/>
  </svg>
  <line stroke="black" x1="50%" x2="6.92308%" y1="1.2em" y2="3em"/>
  <svg width="86.1538%" x="13.8462%" y="3em">
    <defs/>
    <svg width="100%" x="0" y="0em">
      <defs/>
      <text text-anchor="middle" x="50%" y="1em">CM7</text>
    </svg>
    <svg width="8.92857%" x="0%" y="3em">
      <defs/>
      <svg width="100%" x="0" y="0em">
        <defs/>
        <text text-anchor="middle" x="50%" y="1em">CM7</text>
      </svg>
      <svg width="100%" x="0%" y="30em">
        <defs/>
        <svg width="100%" x="0" y="0em">
          <defs/>
          <text text-anchor="middle" x="50%" y="1em">CM7</text>
        </svg>
      </svg>
      <line stroke="black" x1="50%" x2="50%" y1="1.2em" y2="30em"/>
    </svg>
    <line stroke="black" x1="50%" x2="4.46429%" y1="1.2em" y2="3em"/>
    <svg width="91.0714%" x="8.92857%" y="3em">
      <defs/>
      <svg width="100%" x="0" y="0em">
        <defs/>
        <text text-anchor="middle" x="50%" y="1em">CM7</text>
      </svg>
      <svg width="17.6471%" x="0%" y="3em">
        <defs/>
        <svg width="100%" x="0" y="0em">
          <defs/>
          <text text-anchor="middle" x="50%" y="1em">G7</text>
        </svg>
        <svg width="55.5556%" x="0%" y="3em">
          <defs/>
          <svg width="100%" x="0" y="0em">
            <defs/>
            <text text-anchor="middle" x="50%" y="1em">Dm7</text>
          </svg>
          <svg width="100%" x="0%" y="24em">
            <defs/>
            <svg width="100%" x="0" y="0em">
              <defs/>
              <text text-anchor="middle" x="50%" y="1em">Dm7</text>
            </svg>
          </svg>
          <line stroke="black" x1="50%" x2="50%" y1="1.2em" y2="24em"/>
        </svg>
        <line stroke="black" x1="50%" x2="27.7778%" y1="1.2em" y2="3em"/>
        <svg width="44.4444%" x="55.5556%" y="3em">
          <defs/>
          <svg width="100%" x="0" y="0em">
            <defs/>
            <text text-anchor="middle" x="50%" y="1em">G7</text>
          </svg>
          <svg width="100%" x="0%" y="24em">
            <defs/>
            <svg width="100%" x="0" y="0em">
              <defs/>
              <text text-anchor="middle" x="50%" y="1em">G7</text>
            </svg>
          </svg>
          <line stroke="black" x1="50%" x2="50%" y1="1.2em" y2="24em"/>
        </svg>
        <line stroke="black" x1="50%" x2="77.7778%" y1="1.2em" y2="3em"/>
      </svg>
      <line stroke="black" x1="50%" x2="8.82353%" y1="1.2em" y2="3em"/>
      <svg width="82.3529%" x="17.6471%" y="3em">
        <defs/>
        <svg width="100%" x="0" y="0em">
          <defs/>
          <text text-anchor="middle" x="50%" y="1em">CM7</text>
        </svg>
        <svg width="88.0952%" x="0%" y="3em">
          <defs/>
          <svg width="100%" x="0" y="0em">
            <defs/>
            <text text-anchor="middle" x="50%" y="1em">FM7</text>
          </svg>
          <svg width="13.5135%" x="0%" y="3em">
            <defs/>
            <svg width="100%" x="0" y="0em">
              <defs/>
              <text text-anchor="middle" x="50%" y="1em">Gm7</text>
            </svg>
            <svg width="100%" x="0%" y="21em">
              <defs/>
              <svg width="100%" x="0" y="0em">
                <defs/>
                <text text-anchor="middle" x="50%" y="1em">Gm7</text>
              </svg>
            </svg>
            <line stroke="black" x1="50%" x2="50%" y1="1.2em" y2="21em"/>
          </svg>
          <line stroke="black" x1="50%" x2="6.75676%" y1="1.2em" y2="3em"/>
          <svg width="86.4865%" x="13.5135%" y="3em">
            <defs/>
            <svg width="100%" x="0" y="0em">
              <defs/>
              <text text-anchor="middle" x="50%" y="1em">FM7</text>
            </svg>
            <svg width="12.5%" x="0%" y="3em">
              <defs/>
              <svg width="100%" x="0" y="0em">
                <defs/>
                <text text-anchor="middle" x="50%" y="1em">C7</text>
              </svg>
              <svg width="100%" x="0%" y="18em">
                <defs/>
                <svg width="100%" x="0" y="0em">
                  <defs/>
                  <text text-anchor="middle" x="50%" y="1em">C7</text>
                </svg>
              </svg>
              <line stroke="black" x1="50%" x2="50%" y1="1.2em" y2="18em"/>
            </svg>
            <line stroke="black" x1="50%" x2="6.25%" y1="1.2em" y2="3em"/>
            <svg width="87.5%" x="12.5%" y="3em">
              <defs/>
              <svg width="100%" x="0" y="0em">
                <defs/>
                <text text-anchor="middle" x="50%" y="1em">FM7</text>
              </svg>
              <svg width="17.8571%" x="0%" y="3em">
                <defs/>
                <svg width="100%" x="0" y="0em">
                  <defs/>
                  <text text-anchor="middle" x="50%" y="1em">FM7</text>
                </svg>
                <svg width="100%" x="0%" y="15em">
                  <defs/>
                  <svg width="100%" x="0" y="0em">
                    <defs/>
                    <text text-anchor="middle" x="50%" y="1em">FM7</text>
                  </svg>
                </svg>
                <line stroke="black" x1="50%" x2="50%" y1="1.2em" y2="15em"/>
              </svg>
              <line stroke="black" x1="50%" x2="8.92857%" y1="1.2em" y2="3em"/>
              <svg width="82.1429%" x="17.8571%" y="3em">
                <defs/>
                <svg width="100%" x="0" y="0em">
                  <defs/>
                  <text text-anchor="middle" x="50%" y="1em">FM7</text>
                </svg>
                <svg width="78.2609%" x="0%" y="3em">
                  <defs/>
                  <svg width="100%" x="0" y="0em">
                    <defs/>
                    <text text-anchor="middle" x="50%" y="1em">C7</text>
                  </svg>
                  <svg width="27.7778%" x="0%" y="3em">
                    <defs/>
                    <svg width="100%" x="0" y="0em">
                      <defs/>
                      <text text-anchor="middle" x="50%" y="1em">Bb7</text>
                    </svg>
                    <svg width="100%" x="0%" y="9em">
                      <defs/>
                      <svg width="100%" x="0" y="0em">
                        <defs/>
                        <text text-anchor="middle" x="50%" y="1em">Bb7</text>
                      </svg>
                    </svg>
                    <line stroke="black" x1="50%" x2="50%" y1="1.2em" y2="9em"/>
                  </svg>
                  <line stroke="black" x1="50%" x2="13.8889%" y1="1.2em" y2="3em"/>
                  <svg width="72.2222%" x="27.7778%" y="3em">
                    <defs/>
                    <svg width="100%" x="0" y="0em">
                      <defs/>
                      <text text-anchor="middle" x="50%" y="1em">C7</text>
                    </svg>
                    <svg width="69.2308%" x="0%" y="3em">
                      <defs/>
                      <svg width="100%" x="0" y="0em">
                        <defs/>
                        <text text-anchor="middle" x="50%" y="1em">A7</text>
                      </svg>
                      <svg width="55.5556%" x="0%" y="3em">
                        <defs/>
                        <svg width="100%" x="0" y="0em">
                          <defs/>
                          <text text-anchor="middle" x="50%" y="1em">Em7</text>
                        </svg>
                        <svg width="100%" x="0%" y="3em">
                          <defs/>
                          <svg width="100%" x="0" y="0em">
                            <defs/>
                            <text text-anchor="middle" x="50%" y="1em">Em7</text>
                          </svg>
                        </svg>
                        <line stroke="black" x1="50%" x2="50%" y1="1.2em" y2="3em"/>
                      </svg>
                      <line stroke="black" x1="50%" x2="27.7778%" y1="1.2em" y2="3em"/>
                      <svg width="44.4444%" x="55.5556%" y="3em">
                        <defs/>
                        <svg width="100%" x="0" y="0em">
                          <defs/>
                          <text text-anchor="middle" x="50%" y="1em">A7</text>
                        </svg>
                        <svg width="100%" x="0%" y="3em">
                          <defs/>
                          <svg width="100%" x="0" y="0em">
                            <defs/>
                            <text text-anchor="middle" x="50%" y="1em">?</text>
                          </svg>
                        </svg>
                        <line stroke="black" x1="50%" x2="50%" y1="1.2em" y2="3em"/>
                      </svg>
                      <line stroke="black" x1="50%" x2="77.7778%" y1="1.2em" y2="3em"/>
                    </svg>
                    <line stroke="black" x1="50%" x2="34.6154%" y1="1.2em" y2="3em"/>
                    <svg width="30.7692%" x="69.2308%" y="3em">
                      <defs/>
                      <svg width="100%" x="0" y="0em">
                        <defs/>
                        <text text-anchor="middle" x="50%" y="1em">C7</text>
                      </svg>
                      <svg width="100%" x="0%" y="6em">
                        <defs/>
                        <svg width="100%" x="0" y="0em">
                          <defs/>
                          <text text-anchor="middle" x="50%" y="1em">?</text>
                        </svg>
                      </svg>
                      <line stroke="black" x1="50%" x2="50%" y1="1.2em" y2="6em"/>
                    </svg>
                    <line stroke="black" x1="50%" x2="84.6154%" y1="1.2em" y2="3em"/>
                  </svg>
                  <line stroke="black" x1="50%" x2="63.8889%" y1="1.2em" y2="3em"/>
                </svg>
                <line stroke="black" x1="50%" x2="39.1304%" y1="1.2em" y2="3em"/>
                <svg width="21.7391%" x="78.2609%" y="3em">
                  <defs/>
                  <svg width="100%" x="0" y="0em">
                    <defs/>
                    <text text-anchor="middle" x="50%" y="1em">FM7</text>
                  </svg>
                  <svg width="100%" x="0%" y="12em">
                    <defs/>
                    <svg width="100%" x="0" y="0em">
                      <defs/>
                      <text text-anchor="middle" x="50%" y="1em">?</text>
                    </svg>
                  </svg>
                  <line stroke="black" x1="50%" x2="50%" y1="1.2em" y2="12em"/>
                </svg>
                <line stroke="black" x1="50%" x2="89.1304%" y1="1.2em" y2="3em"/>
              </svg>
              <line stroke="black" x1="50%" x2="58.9286%" y1="1.2em" y2="3em"/>
            </svg>
            <line stroke="black" x1="50%" x2="56.25%" y1="1.2em" y2="3em"/>
          </svg>
          <line stroke="black" x1="50%" x2="56.7568%" y1="1.2em" y2="3em"/>
        </svg>
        <line stroke="black" x1="50%" x2="44.0476%" y1="1.2em" y2="3em"/>
        <svg width="11.9048%" x="88.0952%" y="3em">
          <defs/>
          <svg width="100%" x="0" y="0em">
            <defs/>
            <text text-anchor="middle" x="50%" y="1em">CM7</text>
          </svg>
          <svg width="100%" x="0%" y="24em">
            <defs/>
            <svg width="100%" x="0" y="0em">
              <defs/>
              <text text-anchor="middle" x="50%" y="1em">?</text>
            </svg>
          </svg>
          <line stroke="black" x1="50%" x2="50%" y1="1.2em" y2="24em"/>
        </svg>
        <line stroke="black" x1="50%" x2="94.0476%" y1="1.2em" y2="3em"/>
      </svg>
      <line stroke="black" x1="50%" x2="58.8235%" y1="1.2em" y2="3em"/>
    </svg>
    <line stroke="black" x1="50%" x2="54.4643%" y1="1.2em" y2="3em"/>
  </svg>
  <line stroke="black" x1="50%" x2="56.9231%" y1="1.2em" y2="3em"/>
</svg>
