<?xml version="1.0" encoding="utf-8" ?>
<svg baseProfile="full" height="648px" preserveAspectRatio="xMidYMid meet" style="font-family: times, serif; font-weight:normal; font-style: normal; font-size: 16px;" version="1.1" viewBox="0,0,528.0,648.0" width="528px" xmlns="http://www.w3.org/2000/svg" xmlns:ev="http://www.w3.org/2001/xml-events" xmlns:xlink="http://www.w3.org/1999/xlink">
  <defs/>
  <svg width="100%" x="0" y="0em">
    <defs/>
    <text text-anchor="middle" x="50%" y="1em">CM7</text>
  </svg>
  <svg width="13.6364%" x="0%" y="3em">
    <defs/>
    <svg width="100%" x="0" y="0em">
      <defs/>
      <text text-anchor="middle" x="50%" y="1em">G7</text>
    </svg>
    <svg width="55.5556%" x="0%" y="3em">
      <defs/>
      <svg width="100%" x="0" y="0em">
        <defs/>
        <text text-anchor="middle" x="50%" y="1em">Dm7</text>
      </svg>
      <svg width="100%" x="0%" y="33em">
        <defs/>
        <svg width="100%" x="0" y="0em">
          <defs/>
          <text text-anchor="middle" x="50%" y="1em">Dm7</text>
        </svg>
      </svg>
      <line stroke="black" x1="50%" x2="50%" y1="1.2em" y2="33em"/>
    </svg>
    <line stroke="black" x1="50%" x2="27.7778%" y1="1.2em" y2="3em"/>
    <svg width="44.4444%" x="55.5556%" y="3em">
      <defs/>
      <svg width="100%" x="0" y="0em">
        <defs/>
        <text text-anchor="middle" x="50%" y="1em">G7</text>
      </svg>
      <svg width="100%" x="0%" y="33em">
        <defs/>
        <svg width="100%" x="0" y="0em">
          <defs/>
          <text text-anchor="middle" x="50%" y="1em">G7</text>
        </svg>
      </svg>
      <line stroke="black" x1="50%" x2="50%" y1="1.2em" y2="33em"/>
    </svg>
    <line stroke="black" x1="50%" x2="77.7778%" y1="1.2em" y2="3em"/>
  </svg>
  <line stroke="black" x1="50%" x2="6.81818%" y1="1.2em" y2="3em"/>
  <svg width="86.3636%" x="13.6364%" y="3em">
    <defs/>
    <svg width="100%" x="0" y="0em">
      <defs/>
      <text text-anchor="middle" x="50%" y="1em">CM7</text>
    </svg>
    <svg width="8.77193%" x="0%" y="3em">
      <defs/>
      <svg width="100%" x="0" y="0em">
        <defs/>
        <text text-anchor="middle" x="50%" y="1em">CM7</text>
      </svg>
      <svg width="100%" x="0%" y="33em">
        <defs/>
        <svg width="100%" x="0" y="0em">
          <defs/>
          <text text-anchor="middle" x="50%" y="1em">CM7</text>
        </svg>
      </svg>
      <line stroke="black" x1="50%" x2="50%" y1="1.2em" y2="33em"/>
    </svg>
    <line stroke="black" x1="50%" x2="4.38596%" y1="1.2em" y2="3em"/>
    <svg width="91.2281%" x="8.77193%" y="3em">
      <defs/>
      <svg width="100%" x="0" y="0em">
        <defs/>
        <text text-anchor="middle" x="50%" y="1em">CM7</text>
      </svg>
      <svg width="90.3846%" x="0%" y="3em">
        <defs/>
        <svg width="100%" x="0" y="0em">
          <defs/>
          <text text-anchor="middle" x="50%" y="1em">G7</text>
        </svg>
        <svg width="10.6383%" x="0%" y="3em">
          <defs/>
          <svg width="100%" x="0" y="0em">
            <defs/>
            <text text-anchor="middle" x="50%" y="1em">Dm7</text>
          </svg>
          <svg width="100%" x="0%" y="27em">
            <defs/>
            <svg width="100%" x="0" y="0em">
              <defs/>
              <text text-anchor="middle" x="50%" y="1em">Dm7</text>
            </svg>
          </svg>
          <line stroke="black" x1="50%" x2="50%" y1="1.2em" y2="27em"/>
        </svg>
        <line stroke="black" x1="50%" x2="5.31915%" y1="1.2em" y2="3em"/>
        <svg width="89.3617%" x="10.6383%" y="3em">
          <defs/>
          <svg width="100%" x="0" y="0em">
            <defs/>
            <text text-anchor="middle" x="50%" y="1em">G7</text>
          </svg>
          <svg width="9.52381%" x="0%" y="3em">
            <defs/>
            <svg width="100%" x="0" y="0em">
              <defs/>
              <text text-anchor="middle" x="50%" y="1em">G7</text>
            </svg>
            <svg width="100%" x="0%" y="24em">
              <defs/>
              <svg width="100%" x="0" y="0em">
                <defs/>
                <text text-anchor="middle" x="50%" y="1em">G7</text>
              </svg>
            </svg>
            <line stroke="black" x1="50%" x2="50%" y1="1.2em" y2="24em"/>
          </svg>
          <line stroke="black" x1="50%" x2="4.7619%" y1="1.2em" y2="3em"/>
          <svg width="90.4762%" x="9.52381%" y="3em">
            <defs/>
            <svg width="100%" x="0" y="0em">
              <defs/>
              <text text-anchor="middle" x="50%" y="1em">G7</text>
            </svg>
            <svg width="13.1579%" x="0%" y="3em">
              <defs/>
              <svg width="100%" x="0" y="0em">
                <defs/>
                <text text-anchor="middle" x="50%" y="1em">Gm7</text>
              </svg>
              <svg width="100%" x="0%" y="21em">
                <defs/>
                <svg width="100%" x="0" y="0em">
                  <defs/>
                  <text text-anchor="middle" x="50%" y="1em">Gm7</text>
                </svg>
              </svg>
              <line stroke="black" x1="50%" x2="50%" y1="1.2em" y2="21em"/>
            </svg>
            <line stroke="black" x1="50%" x2="6.57895%" y1="1.2em" y2="3em"/>
            <svg width="86.8421%" x="13.1579%" y="3em">
              <defs/>
              <svg width="100%" x="0" y="0em">
                <defs/>
                <text text-anchor="middle" x="50%" y="1em">G7</text>
              </svg>
              <svg width="87.8788%" x="0%" y="3em">
                <defs/>
                <svg width="100%" x="0" y="0em">
                  <defs/>
                  <text text-anchor="middle" x="50%" y="1em">FM7</text>
                </svg>
                <svg width="13.7931%" x="0%" y="3em">
                  <defs/>
                  <svg width="100%" x="0" y="0em">
                    <defs/>
                    <text text-anchor="middle" x="50%" y="1em">C7</text>
                  </svg>
                  <svg width="100%" x="0%" y="15em">
                    <defs/>
                    <svg width="100%" x="0" y="0em">
                      <defs/>
                      <text text-anchor="middle" x="50%" y="1em">C7</text>
                    </svg>
                  </svg>
                  <line stroke="black" x1="50%" x2="50%" y1="1.2em" y2="15em"/>
                </svg>
                <line stroke="black" x1="50%" x2="6.89655%" y1="1.2em" y2="3em"/>
                <svg width="86.2069%" x="13.7931%" y="3em">
                  <defs/>
                  <svg width="100%" x="0" y="0em">
                    <defs/>
                    <text text-anchor="middle" x="50%" y="1em">FM7</text>
                  </svg>
                  <svg width="20%" x="0%" y="3em">
                    <defs/>
                    <svg width="100%" x="0" y="0em">
                      <defs/>
                      <text text-anchor="middle" x="50%" y="1em">FM7</text>
                    </svg>
                    <svg width="100%" x="0%" y="12em">
                      <defs/>
                      <svg width="100%" x="0" y="0em">
                        <defs/>
                        <text text-anchor="middle" x="50%" y="1em">FM7</text>
                      </svg>
                    </svg>
                    <line stroke="black" x1="50%" x2="50%" y1="1.2em" y2="12em"/>
                  </svg>
                  <line stroke="black" x1="50%" x2="10%" y1="1.2em" y2="3em"/>
                  <svg width="80%" x="20%" y="3em">
                    <defs/>
                    <svg width="100%" x="0" y="0em">
                      <defs/>
                      <text text-anchor="middle" x="50%" y="1em">FM7</text>
                    </svg>
                    <svg width="25%" x="0%" y="3em">
                      <defs/>
                      <svg width="100%" x="0" y="0em">
                        <defs/>
                        <text text-anchor="middle" x="50%" y="1em">Bb7</text>
                      </svg>
                      <svg width="100%" x="0%" y="9em">
                        <defs/>
                        <svg width="100%" x="0" y="0em">
                          <defs/>
                          <text text-anchor="middle" x="50%" y="1em">Bb7</text>
                        </svg>
                      </svg>
                      <line stroke="black" x1="50%" x2="50%" y1="1.2em" y2="9em"/>
                    </svg>
                    <line stroke="black" x1="50%" x2="12.5%" y1="1.2em" y2="3em"/>
                    <svg width="75%" x="25%" y="3em">
                      <defs/>
                      <svg width="100%" x="0" y="0em">
                        <defs/>
                        <text text-anchor="middle" x="50%" y="1em">FM7</text>
                      </svg>
                      <svg width="66.6667%" x="0%" y="3em">
                        <defs/>
                        <svg width="100%" x="0" y="0em">
                          <defs/>
                          <text text-anchor="middle" x="50%" y="1em">Em7</text>
                        </svg>
                        <svg width="50%" x="0%" y="3em">
                          <defs/>
                          <svg width="100%" x="0" y="0em">
                            <defs/>
                            <text text-anchor="middle" x="50%" y="1em">Em7</text>
                          </svg>
                          <svg width="100%" x="0%" y="3em">
                            <defs/>
                            <svg width="100%" x="0" y="0em">
                              <defs/>
                              <text text-anchor="middle" x="50%" y="1em">Em7</text>
                            </svg>
                          </svg>
                          <line stroke="black" x1="50%" x2="50%" y1="1.2em" y2="3em"/>
                        </svg>
                        <line stroke="black" x1="50%" x2="25%" y1="1.2em" y2="3em"/>
                        <svg width="50%" x="50%" y="3em">
                          <defs/>
                          <svg width="100%" x="0" y="0em">
                            <defs/>
                            <text text-anchor="middle" x="50%" y="1em">Em7</text>
                          </svg>
                          <svg width="100%" x="0%" y="3em">
                            <defs/>
                            <svg width="100%" x="0" y="0em">
                              <defs/>
                              <text text-anchor="middle" x="50%" y="1em">?</text>
                            </svg>
                          </svg>
                          <line stroke="black" x1="50%" x2="50%" y1="1.2em" y2="3em"/>
                        </svg>
                        <line stroke="black" x1="50%" x2="75%" y1="1.2em" y2="3em"/>
                      </svg>
                      <line stroke="black" x1="50%" x2="33.3333%" y1="1.2em" y2="3em"/>
                      <svg width="33.3333%" x="66.6667%" y="3em">
                        <defs/>
                        <svg width="100%" x="0" y="0em">
                          <defs/>
                          <text text-anchor="middle" x="50%" y="1em">FM7</text>
                        </svg>
                        <svg width="100%" x="0%" y="6em">
                          <defs/>
                          <svg width="100%" x="0" y="0em">
                            <defs/>
                            <text text-anchor="middle" x="50%" y="1em">?</text>
                          </svg>
                        </svg>
                        <line stroke="black" x1="50%" x2="50%" y1="1.2em" y2="6em"/>
                      </svg>
                      <line stroke="black" x1="50%" x2="83.3333%" y1="1.2em" y2="3em"/>
                    </svg>
                    <line stroke="black" x1="50%" x2="62.5%" y1="1.2em" y2="3em"/>
                  </svg>
                  <line stroke="black" x1="50%" x2="60%" y1="1.2em" y2="3em"/>
                </svg>
                <line stroke="black" x1="50%" x2="56.8966%" y1="1.2em" y2="3em"/>
              </svg>
              <line stroke="black" x1="50%" x2="43.9394%" y1="1.2em" y2="3em"/>
              <svg width="12.1212%" x="87.8788%" y="3em">
                <defs/>
                <svg width="100%" x="0" y="0em">
                  <defs/>
                  <text text-anchor="middle" x="50%" y="1em">G7</text>
                </svg>
                <svg width="100%" x="0%" y="18em">
                  <defs/>
                  <svg width="100%" x="0" y="0em">
                    <defs/>
                    <text text-anchor="middle" x="50%" y="1em">?</text>
                  </svg>
                </svg>
                <line stroke="black" x1="50%" x2="50%" y1="1.2em" y2="18em"/>
              </svg>
              <line stroke="black" x1="50%" x2="93.9394%" y1="1.2em" y2="3em"/>
            </svg>
            <line stroke="black" x1="50%" x2="56.5789%" y1="1.2em" y2="3em"/>
          </svg>
          <line stroke="black" x1="50%" x2="54.7619%" y1="1.2em" y2="3em"/>
        </svg>
        <line stroke="black" x1="50%" x2="55.3191%" y1="1.2em" y2="3em"/>
      </svg>
      <line stroke="black" x1="50%" x2="45.1923%" y1="1.2em" y2="3em"/>
      <svg width="9.61538%" x="90.3846%" y="3em">
        <defs/>
        <svg width="100%" x="0" y="0em">
          <defs/>
          <text text-anchor="middle" x="50%" y="1em">CM7</text>
        </svg>
        <svg width="100%" x="0%" y="30em">
          <defs/>
          <svg width="100%" x="0" y="0em">
            <defs/>
            <text text-anchor="middle" x="50%" y="1em">?</text>
          </svg>
        </svg>
        <line stroke="black" x1="50%" x2="50%" y1="1.2em" y2="30em"/>
      </svg>
      <line stroke="black" x1="50%" x2="95.1923%" y1="1.2em" y2="3em"/>
    </svg>
    <line stroke="black" x1="50%" x2="54.386%" y1="1.2em" y2="3em"/>
  </svg>
  <line stroke="black" x1="50%" x2="56.8182%" y1="1.2em" y2="3em"/>
</svg>
