<?xml version="1.0" encoding="utf-8" ?>
<svg baseProfile="full" height="600px" preserveAspectRatio="xMidYMid meet" style="font-family: times, serif; font-weight:normal; font-style: normal; font-size: 16px;" version="1.1" viewBox="0,0,600.0,600.0" width="600px" xmlns="http://www.w3.org/2000/svg" xmlns:ev="http://www.w3.org/2001/xml-events" xmlns:xlink="http://www.w3.org/1999/xlink">
  <defs/>
  <svg width="100%" x="0" y="0em">
    <defs/>
    <text text-anchor="middle" x="50%" y="1em">CM7</text>
  </svg>
  <svg width="12%" x="0%" y="3em">
    <defs/>
    <svg width="100%" x="0" y="0em">
      <defs/>
      <text text-anchor="middle" x="50%" y="1em">G7</text>
    </svg>
    <svg width="55.5556%" x="0%" y="3em">
      <defs/>
      <svg width="100%" x="0" y="0em">
        <defs/>
        <text text-anchor="middle" x="50%" y="1em">Dm7</text>
      </svg>
      <svg width="100%" x="0%" y="30em">
        <defs/>
        <svg width="100%" x="0" y="0em">
          <defs/>
          <text text-anchor="middle" x="50%" y="1em">Dm7</text>
        </svg>
      </svg>
      <line stroke="black" x1="50%" x2="50%" y1="1.2em" y2="30em"/>
    </svg>
    <line stroke="black" x1="50%" x2="27.7778%" y1="1.2em" y2="3em"/>
    <svg width="44.4444%" x="55.5556%" y="3em">
      <defs/>
      <svg width="100%" x="0" y="0em">
        <defs/>
        <text text-anchor="middle" x="50%" y="1em">G7</text>
      </svg>
      <svg width="100%" x="0%" y="30em">
        <defs/>
        <svg width="100%" x="0" y="0em">
          <defs/>
          <text text-anchor="middle" x="50%" y="1em">G7</text>
        </svg>
      </svg>
      <line stroke="black" x1="50%" x2="50%" y1="1.2em" y2="30em"/>
    </svg>
    <line stroke="black" x1="50%" x2="77.7778%" y1="1.2em" y2="3em"/>
  </svg>
  <line stroke="black" x1="50%" x2="6%" y1="1.2em" y2="3em"/>
  <svg width="88%" x="12%" y="3em">
    <defs/>
    <svg width="100%" x="0" y="0em">
      <defs/>
      <text text-anchor="middle" x="50%" y="1em">CM7</text>
    </svg>
    <svg width="7.57576%" x="0%" y="3em">
      <defs/>
      <svg width="100%" x="0" y="0em">
        <defs/>
        <text text-anchor="middle" x="50%" y="1em">CM7</text>
      </svg>
      <svg width="100%" x="0%" y="30em">
        <defs/>
        <svg width="100%" x="0" y="0em">
          <defs/>
          <text text-anchor="middle" x="50%" y="1em">CM7</text>
        </svg>
      </svg>
      <line stroke="black" x1="50%" x2="50%" y1="1.2em" y2="30em"/>
    </svg>
    <line stroke="black" x1="50%" x2="3.78788%" y1="1.2em" y2="3em"/>
    <svg width="92.4242%" x="7.57576%" y="3em">
      <defs/>
      <svg width="100%" x="0" y="0em">
        <defs/>
        <text text-anchor="middle" x="50%" y="1em">CM7</text>
      </svg>
      <svg width="14.7541%" x="0%" y="3em">
        <defs/>
        <svg width="100%" x="0" y="0em">
          <defs/>
          <text text-anchor="middle" x="50%" y="1em">G7</text>
        </svg>
        <svg width="55.5556%" x="0%" y="3em">
          <defs/>
          <svg width="100%" x="0" y="0em">
            <defs/>
            <text text-anchor="middle" x="50%" y="1em">Dm7</text>
          </svg>
          <svg width="100%" x="0%" y="24em">
            <defs/>
            <svg width="100%" x="0" y="0em">
              <defs/>
              <text text-anchor="middle" x="50%" y="1em">Dm7</text>
            </svg>
          </svg>
          <line stroke="black" x1="50%" x2="50%" y1="1.2em" y2="24em"/>
        </svg>
        <line stroke="black" x1="50%" x2="27.7778%" y1="1.2em" y2="3em"/>
        <svg width="44.4444%" x="55.5556%" y="3em">
          <defs/>
          <svg width="100%" x="0" y="0em">
            <defs/>
            <text text-anchor="middle" x="50%" y="1em">G7</text>
          </svg>
          <svg width="100%" x="0%" y="24em">
            <defs/>
            <svg width="100%" x="0" y="0em">
              <defs/>
              <text text-anchor="middle" x="50%" y="1em">G7</text>
            </svg>
          </svg>
          <line stroke="black" x1="50%" x2="50%" y1="1.2em" y2="24em"/>
        </svg>
        <line stroke="black" x1="50%" x2="77.7778%" y1="1.2em" y2="3em"/>
      </svg>
      <line stroke="black" x1="50%" x2="7.37705%" y1="1.2em" y2="3em"/>
      <svg width="85.2459%" x="14.7541%" y="3em">
        <defs/>
        <svg width="100%" x="0" y="0em">
          <defs/>
          <text text-anchor="middle" x="50%" y="1em">CM7</text>
        </svg>
        <svg width="90.3846%" x="0%" y="3em">
          <defs/>
          <svg width="100%" x="0" y="0em">
            <defs/>
            <text text-anchor="middle" x="50%" y="1em">FM7</text>
          </svg>
          <svg width="10.6383%" x="0%" y="3em">
            <defs/>
            <svg width="100%" x="0" y="0em">
              <defs/>
              <text text-anchor="middle" x="50%" y="1em">Gm7</text>
            </svg>
            <svg width="100%" x="0%" y="21em">
              <defs/>
              <svg width="100%" x="0" y="0em">
                <defs/>
                <text text-anchor="middle" x="50%" y="1em">Gm7</text>
              </svg>
            </svg>
            <line stroke="black" x1="50%" x2="50%" y1="1.2em" y2="21em"/>
          </svg>
          <line stroke="black" x1="50%" x2="5.31915%" y1="1.2em" y2="3em"/>
          <svg width="89.3617%" x="10.6383%" y="3em">
            <defs/>
            <svg width="100%" x="0" y="0em">
              <defs/>
              <text text-anchor="middle" x="50%" y="1em">FM7</text>
            </svg>
            <svg width="9.52381%" x="0%" y="3em">
              <defs/>
              <svg width="100%" x="0" y="0em">
                <defs/>
                <text text-anchor="middle" x="50%" y="1em">C7</text>
              </svg>
              <svg width="100%" x="0%" y="18em">
                <defs/>
                <svg width="100%" x="0" y="0em">
                  <defs/>
                  <text text-anchor="middle" x="50%" y="1em">C7</text>
                </svg>
              </svg>
              <line stroke="black" x1="50%" x2="50%" y1="1.2em" y2="18em"/>
            </svg>
            <line stroke="black" x1="50%" x2="4.7619%" y1="1.2em" y2="3em"/>
            <svg width="90.4762%" x="9.52381%" y="3em">
              <defs/>
              <svg width="100%" x="0" y="0em">
                <defs/>
                <text text-anchor="middle" x="50%" y="1em">FM7</text>
              </svg>
              <svg width="13.1579%" x="0%" y="3em">
                <defs/>
                <svg width="100%" x="0" y="0em">
                  <defs/>
                  <text text-anchor="middle" x="50%" y="1em">FM7</text>
                </svg>
                <svg width="100%" x="0%" y="15em">
                  <defs/>
                  <svg width="100%" x="0" y="0em">
                    <defs/>
                    <text text-anchor="middle" x="50%" y="1em">FM7</text>
                  </svg>
                </svg>
                <line stroke="black" x1="50%" x2="50%" y1="1.2em" y2="15em"/>
              </svg>
              <line stroke="black" x1="50%" x2="6.57895%" y1="1.2em" y2="3em"/>
              <svg width="86.8421%" x="13.1579%" y="3em">
                <defs/>
                <svg width="100%" x="0" y="0em">
                  <defs/>
                  <text text-anchor="middle" x="50%" y="1em">Dm7</text>
                </svg>
                <svg width="45.4545%" x="0%" y="3em">
                  <defs/>
                  <svg width="100%" x="0" y="0em">
                    <defs/>
                    <text text-anchor="middle" x="50%" y="1em">Am7</text>
                  </svg>
                  <svg width="33.3333%" x="0%" y="3em">
                    <defs/>
                    <svg width="100%" x="0" y="0em">
                      <defs/>
                      <text text-anchor="middle" x="50%" y="1em">Bb7</text>
                    </svg>
                    <svg width="100%" x="0%" y="9em">
                      <defs/>
                      <svg width="100%" x="0" y="0em">
                        <defs/>
                        <text text-anchor="middle" x="50%" y="1em">Bb7</text>
                      </svg>
                    </svg>
                    <line stroke="black" x1="50%" x2="50%" y1="1.2em" y2="9em"/>
                  </svg>
                  <line stroke="black" x1="50%" x2="16.6667%" y1="1.2em" y2="3em"/>
                  <svg width="66.6667%" x="33.3333%" y="3em">
                    <defs/>
                    <svg width="100%" x="0" y="0em">
                      <defs/>
                      <text text-anchor="middle" x="50%" y="1em">Am7</text>
                    </svg>
                    <svg width="50%" x="0%" y="3em">
                      <defs/>
                      <svg width="100%" x="0" y="0em">
                        <defs/>
                        <text text-anchor="middle" x="50%" y="1em">Em7</text>
                      </svg>
                      <svg width="100%" x="0%" y="6em">
                        <defs/>
                        <svg width="100%" x="0" y="0em">
                          <defs/>
                          <text text-anchor="middle" x="50%" y="1em">Em7</text>
                        </svg>
                      </svg>
                      <line stroke="black" x1="50%" x2="50%" y1="1.2em" y2="6em"/>
                    </svg>
                    <line stroke="black" x1="50%" x2="25%" y1="1.2em" y2="3em"/>
                    <svg width="50%" x="50%" y="3em">
                      <defs/>
                      <svg width="100%" x="0" y="0em">
                        <defs/>
                        <text text-anchor="middle" x="50%" y="1em">Am7</text>
                      </svg>
                      <svg width="100%" x="0%" y="6em">
                        <defs/>
                        <svg width="100%" x="0" y="0em">
                          <defs/>
                          <text text-anchor="middle" x="50%" y="1em">Am7</text>
                        </svg>
                      </svg>
                      <line stroke="black" x1="50%" x2="50%" y1="1.2em" y2="6em"/>
                    </svg>
                    <line stroke="black" x1="50%" x2="75%" y1="1.2em" y2="3em"/>
                  </svg>
                  <line stroke="black" x1="50%" x2="66.6667%" y1="1.2em" y2="3em"/>
                </svg>
                <line stroke="black" x1="50%" x2="22.7273%" y1="1.2em" y2="3em"/>
                <svg width="54.5455%" x="45.4545%" y="3em">
                  <defs/>
                  <svg width="100%" x="0" y="0em">
                    <defs/>
                    <text text-anchor="middle" x="50%" y="1em">Dm7</text>
                  </svg>
                  <svg width="27.7778%" x="0%" y="3em">
                    <defs/>
                    <svg width="100%" x="0" y="0em">
                      <defs/>
                      <text text-anchor="middle" x="50%" y="1em">Dm7</text>
                    </svg>
                    <svg width="100%" x="0%" y="9em">
                      <defs/>
                      <svg width="100%" x="0" y="0em">
                        <defs/>
                        <text text-anchor="middle" x="50%" y="1em">Dm7</text>
                      </svg>
                    </svg>
                    <line stroke="black" x1="50%" x2="50%" y1="1.2em" y2="9em"/>
                  </svg>
                  <line stroke="black" x1="50%" x2="13.8889%" y1="1.2em" y2="3em"/>
                  <svg width="72.2222%" x="27.7778%" y="3em">
                    <defs/>
                    <svg width="100%" x="0" y="0em">
                      <defs/>
                      <text text-anchor="middle" x="50%" y="1em">Dm7</text>
                    </svg>
                    <svg width="61.5385%" x="0%" y="3em">
                      <defs/>
                      <svg width="100%" x="0" y="0em">
                        <defs/>
                        <text text-anchor="middle" x="50%" y="1em">A7</text>
                      </svg>
                      <svg width="50%" x="0%" y="3em">
                        <defs/>
                        <svg width="100%" x="0" y="0em">
                          <defs/>
                          <text text-anchor="middle" x="50%" y="1em">G7</text>
                        </svg>
                        <svg width="100%" x="0%" y="3em">
                          <defs/>
                          <svg width="100%" x="0" y="0em">
                            <defs/>
                            <text text-anchor="middle" x="50%" y="1em">G7</text>
                          </svg>
                        </svg>
                        <line stroke="black" x1="50%" x2="50%" y1="1.2em" y2="3em"/>
                      </svg>
                      <line stroke="black" x1="50%" x2="25%" y1="1.2em" y2="3em"/>
                      <svg width="50%" x="50%" y="3em">
                        <defs/>
                        <svg width="100%" x="0" y="0em">
                          <defs/>
                          <text text-anchor="middle" x="50%" y="1em">A7</text>
                        </svg>
                        <svg width="100%" x="0%" y="3em">
                          <defs/>
                          <svg width="100%" x="0" y="0em">
                            <defs/>
                            <text text-anchor="middle" x="50%" y="1em">?</text>
                          </svg>
                        </svg>
                        <line stroke="black" x1="50%" x2="50%" y1="1.2em" y2="3em"/>
                      </svg>
                      <line stroke="black" x1="50%" x2="75%" y1="1.2em" y2="3em"/>
                    </svg>
                    <line stroke="black" x1="50%" x2="30.7692%" y1="1.2em" y2="3em"/>
                    <svg width="38.4615%" x="61.5385%" y="3em">
                      <defs/>
                      <svg width="100%" x="0" y="0em">
                        <defs/>
                        <text text-anchor="middle" x="50%" y="1em">Dm7</text>
                      </svg>
                      <svg width="100%" x="0%" y="6em">
                        <defs/>
                        <svg width="100%" x="0" y="0em">
                          <defs/>
                          <text text-anchor="middle" x="50%" y="1em">?</text>
                        </svg>
                      </svg>
                      <line stroke="black" x1="50%" x2="50%" y1="1.2em" y2="6em"/>
                    </svg>
                    <line stroke="black" x1="50%" x2="80.7692%" y1="1.2em" y2="3em"/>
                  </svg>
                  <line stroke="black" x1="50%" x2="63.8889%" y1="1.2em" y2="3em"/>
                </svg>
                <line stroke="black" x1="50%" x2="72.7273%" y1="1.2em" y2="3em"/>
              </svg>
              <line stroke="black" x1="50%" x2="56.5789%" y1="1.2em" y2="3em"/>
            </svg>
            <line stroke="black" x1="50%" x2="54.7619%" y1="1.2em" y2="3em"/>
          </svg>
          <line stroke="black" x1="50%" x2="55.3191%" y1="1.2em" y2="3em"/>
        </svg>
        <line stroke="black" x1="50%" x2="45.1923%" y1="1.2em" y2="3em"/>
        <svg width="9.61538%" x="90.3846%" y="3em">
          <defs/>
          <svg width="100%" x="0" y="0em">
            <defs/>
            <text text-anchor="middle" x="50%" y="1em">CM7</text>
          </svg>
          <svg width="100%" x="0%" y="24em">
            <defs/>
            <svg width="100%" x="0" y="0em">
              <defs/>
              <text text-anchor="middle" x="50%" y="1em">?</text>
            </svg>
          </svg>
          <line stroke="black" x1="50%" x2="50%" y1="1.2em" y2="24em"/>
        </svg>
        <line stroke="black" x1="50%" x2="95.1923%" y1="1.2em" y2="3em"/>
      </svg>
      <line stroke="black" x1="50%" x2="57.377%" y1="1.2em" y2="3em"/>
    </svg>
    <line stroke="black" x1="50%" x2="53.7879%" y1="1.2em" y2="3em"/>
  </svg>
  <line stroke="black" x1="50%" x2="56%" y1="1.2em" y2="3em"/>
</svg>
