<?xml version="1.0" encoding="utf-8" ?>
<svg baseProfile="full" height="744px" preserveAspectRatio="xMidYMid meet" style="font-family: times, serif; font-weight:normal; font-style: normal; font-size: 16px;" version="1.1" viewBox="0,0,640.0,744.0" width="640px" xmlns="http://www.w3.org/2000/svg" xmlns:ev="http://www.w3.org/2001/xml-events" xmlns:xlink="http://www.w3.org/1999/xlink">
  <defs/>
  <svg width="100%" x="0" y="0em">
    <defs/>
    <text text-anchor="middle" x="50%" y="1em">CM7</text>
  </svg>
  <svg width="11.25%" x="0%" y="3em">
    <defs/>
    <svg width="100%" x="0" y="0em">
      <defs/>
      <text text-anchor="middle" x="50%" y="1em">G7</text>
    </svg>
    <svg width="55.5556%" x="0%" y="3em">
      <defs/>
      <svg width="100%" x="0" y="0em">
        <defs/>
        <text text-anchor="middle" x="50%" y="1em">Dm7</text>
      </svg>
      <svg width="100%" x="0%" y="39em">
        <defs/>
        <svg width="100%" x="0" y="0em">
          <defs/>
          <text text-anchor="middle" x="50%" y="1em">Dm7</text>
        </svg>
      </svg>
      <line stroke="black" x1="50%" x2="50%" y1="1.2em" y2="39em"/>
    </svg>
    <line stroke="black" x1="50%" x2="27.7778%" y1="1.2em" y2="3em"/>
    <svg width="44.4444%" x="55.5556%" y="3em">
      <defs/>
      <svg width="100%" x="0" y="0em">
        <defs/>
        <text text-anchor="middle" x="50%" y="1em">G7</text>
      </svg>
      <svg width="100%" x="0%" y="39em">
        <defs/>
        <svg width="100%" x="0" y="0em">
          <defs/>
          <text text-anchor="middle" x="50%" y="1em">G7</text>
        </svg>
      </svg>
      <line stroke="black" x1="50%" x2="50%" y1="1.2em" y2="39em"/>
    </svg>
    <line stroke="black" x1="50%" x2="77.7778%" y1="1.2em" y2="3em"/>
  </svg>
  <line stroke="black" x1="50%" x2="5.625%" y1="1.2em" y2="3em"/>
  <svg width="88.75%" x="11.25%" y="3em">
    <defs/>
    <svg width="100%" x="0" y="0em">
      <defs/>
      <text text-anchor="middle" x="50%" y="1em">CM7</text>
    </svg>
    <svg width="7.04225%" x="0%" y="3em">
      <defs/>
      <svg width="100%" x="0" y="0em">
        <defs/>
        <text text-anchor="middle" x="50%" y="1em">CM7</text>
      </svg>
      <svg width="100%" x="0%" y="39em">
        <defs/>
        <svg width="100%" x="0" y="0em">
          <defs/>
          <text text-anchor="middle" x="50%" y="1em">CM7</text>
        </svg>
      </svg>
      <line stroke="black" x1="50%" x2="50%" y1="1.2em" y2="39em"/>
    </svg>
    <line stroke="black" x1="50%" x2="3.52113%" y1="1.2em" y2="3em"/>
    <svg width="92.9577%" x="7.04225%" y="3em">
      <defs/>
      <svg width="100%" x="0" y="0em">
        <defs/>
        <text text-anchor="middle" x="50%" y="1em">CM7</text>
      </svg>
      <svg width="13.6364%" x="0%" y="3em">
        <defs/>
        <svg width="100%" x="0" y="0em">
          <defs/>
          <text text-anchor="middle" x="50%" y="1em">G7</text>
        </svg>
        <svg width="55.5556%" x="0%" y="3em">
          <defs/>
          <svg width="100%" x="0" y="0em">
            <defs/>
            <text text-anchor="middle" x="50%" y="1em">Dm7</text>
          </svg>
          <svg width="100%" x="0%" y="33em">
            <defs/>
            <svg width="100%" x="0" y="0em">
              <defs/>
              <text text-anchor="middle" x="50%" y="1em">Dm7</text>
            </svg>
          </svg>
          <line stroke="black" x1="50%" x2="50%" y1="1.2em" y2="33em"/>
        </svg>
        <line stroke="black" x1="50%" x2="27.7778%" y1="1.2em" y2="3em"/>
        <svg width="44.4444%" x="55.5556%" y="3em">
          <defs/>
          <svg width="100%" x="0" y="0em">
            <defs/>
            <text text-anchor="middle" x="50%" y="1em">G7</text>
          </svg>
          <svg width="100%" x="0%" y="33em">
            <defs/>
            <svg width="100%" x="0" y="0em">
              <defs/>
              <text text-anchor="middle" x="50%" y="1em">G7</text>
            </svg>
          </svg>
          <line stroke="black" x1="50%" x2="50%" y1="1.2em" y2="33em"/>
        </svg>
        <line stroke="black" x1="50%" x2="77.7778%" y1="1.2em" y2="3em"/>
      </svg>
      <line stroke="black" x1="50%" x2="6.81818%" y1="1.2em" y2="3em"/>
      <svg width="86.3636%" x="13.6364%" y="3em">
        <defs/>
        <svg width="100%" x="0" y="0em">
          <defs/>
          <text text-anchor="middle" x="50%" y="1em">CM7</text>
        </svg>
        <svg width="91.2281%" x="0%" y="3em">
          <defs/>
          <svg width="100%" x="0" y="0em">
            <defs/>
            <text text-anchor="middle" x="50%" y="1em">FM7</text>
          </svg>
          <svg width="9.61538%" x="0%" y="3em">
            <defs/>
            <svg width="100%" x="0" y="0em">
              <defs/>
              <text text-anchor="middle" x="50%" y="1em">Gm7</text>
            </svg>
            <svg width="100%" x="0%" y="30em">
              <defs/>
              <svg width="100%" x="0" y="0em">
                <defs/>
                <text text-anchor="middle" x="50%" y="1em">Gm7</text>
              </svg>
            </svg>
            <line stroke="black" x1="50%" x2="50%" y1="1.2em" y2="30em"/>
          </svg>
          <line stroke="black" x1="50%" x2="4.80769%" y1="1.2em" y2="3em"/>
          <svg width="90.3846%" x="9.61538%" y="3em">
            <defs/>
            <svg width="100%" x="0" y="0em">
              <defs/>
              <text text-anchor="middle" x="50%" y="1em">FM7</text>
            </svg>
            <svg width="8.51064%" x="0%" y="3em">
              <defs/>
              <svg width="100%" x="0" y="0em">
                <defs/>
                <text text-anchor="middle" x="50%" y="1em">C7</text>
              </svg>
              <svg width="100%" x="0%" y="27em">
                <defs/>
                <svg width="100%" x="0" y="0em">
                  <defs/>
                  <text text-anchor="middle" x="50%" y="1em">C7</text>
                </svg>
              </svg>
              <line stroke="black" x1="50%" x2="50%" y1="1.2em" y2="27em"/>
            </svg>
            <line stroke="black" x1="50%" x2="4.25532%" y1="1.2em" y2="3em"/>
            <svg width="91.4894%" x="8.51064%" y="3em">
              <defs/>
              <svg width="100%" x="0" y="0em">
                <defs/>
                <text text-anchor="middle" x="50%" y="1em">FM7</text>
              </svg>
              <svg width="11.6279%" x="0%" y="3em">
                <defs/>
                <svg width="100%" x="0" y="0em">
                  <defs/>
                  <text text-anchor="middle" x="50%" y="1em">FM7</text>
                </svg>
                <svg width="100%" x="0%" y="24em">
                  <defs/>
                  <svg width="100%" x="0" y="0em">
                    <defs/>
                    <text text-anchor="middle" x="50%" y="1em">FM7</text>
                  </svg>
                </svg>
                <line stroke="black" x1="50%" x2="50%" y1="1.2em" y2="24em"/>
              </svg>
              <line stroke="black" x1="50%" x2="5.81395%" y1="1.2em" y2="3em"/>
              <svg width="88.3721%" x="11.6279%" y="3em">
                <defs/>
                <svg width="100%" x="0" y="0em">
                  <defs/>
                  <text text-anchor="middle" x="50%" y="1em">FM7</text>
                </svg>
                <svg width="86.8421%" x="0%" y="3em">
                  <defs/>
                  <svg width="100%" x="0" y="0em">
                    <defs/>
                    <text text-anchor="middle" x="50%" y="1em">C7</text>
                  </svg>
                  <svg width="15.1515%" x="0%" y="3em">
                    <defs/>
                    <svg width="100%" x="0" y="0em">
                      <defs/>
                      <text text-anchor="middle" x="50%" y="1em">Bb7</text>
                    </svg>
                    <svg width="100%" x="0%" y="18em">
                      <defs/>
                      <svg width="100%" x="0" y="0em">
                        <defs/>
                        <text text-anchor="middle" x="50%" y="1em">Bb7</text>
                      </svg>
                    </svg>
                    <line stroke="black" x1="50%" x2="50%" y1="1.2em" y2="18em"/>
                  </svg>
                  <line stroke="black" x1="50%" x2="7.57576%" y1="1.2em" y2="3em"/>
                  <svg width="84.8485%" x="15.1515%" y="3em">
                    <defs/>
                    <svg width="100%" x="0" y="0em">
                      <defs/>
                      <text text-anchor="middle" x="50%" y="1em">C7</text>
                    </svg>
                    <svg width="85.7143%" x="0%" y="3em">
                      <defs/>
                      <svg width="100%" x="0" y="0em">
                        <defs/>
                        <text text-anchor="middle" x="50%" y="1em">Am7</text>
                      </svg>
                      <svg width="20.8333%" x="0%" y="3em">
                        <defs/>
                        <svg width="100%" x="0" y="0em">
                          <defs/>
                          <text text-anchor="middle" x="50%" y="1em">Em7</text>
                        </svg>
                        <svg width="100%" x="0%" y="12em">
                          <defs/>
                          <svg width="100%" x="0" y="0em">
                            <defs/>
                            <text text-anchor="middle" x="50%" y="1em">Em7</text>
                          </svg>
                        </svg>
                        <line stroke="black" x1="50%" x2="50%" y1="1.2em" y2="12em"/>
                      </svg>
                      <line stroke="black" x1="50%" x2="10.4167%" y1="1.2em" y2="3em"/>
                      <svg width="79.1667%" x="20.8333%" y="3em">
                        <defs/>
                        <svg width="100%" x="0" y="0em">
                          <defs/>
                          <text text-anchor="middle" x="50%" y="1em">Am7</text>
                        </svg>
                        <svg width="26.3158%" x="0%" y="3em">
                          <defs/>
                          <svg width="100%" x="0" y="0em">
                            <defs/>
                            <text text-anchor="middle" x="50%" y="1em">Am7</text>
                          </svg>
                          <svg width="100%" x="0%" y="9em">
                            <defs/>
                            <svg width="100%" x="0" y="0em">
                              <defs/>
                              <text text-anchor="middle" x="50%" y="1em">Am7</text>
                            </svg>
                          </svg>
                          <line stroke="black" x1="50%" x2="50%" y1="1.2em" y2="9em"/>
                        </svg>
                        <line stroke="black" x1="50%" x2="13.1579%" y1="1.2em" y2="3em"/>
                        <svg width="73.6842%" x="26.3158%" y="3em">
                          <defs/>
                          <svg width="100%" x="0" y="0em">
                            <defs/>
                            <text text-anchor="middle" x="50%" y="1em">Am7</text>
                          </svg>
                          <svg width="64.2857%" x="0%" y="3em">
                            <defs/>
                            <svg width="100%" x="0" y="0em">
                              <defs/>
                              <text text-anchor="middle" x="50%" y="1em">G7</text>
                            </svg>
                            <svg width="55.5556%" x="0%" y="3em">
                              <defs/>
                              <svg width="100%" x="0" y="0em">
                                <defs/>
                                <text text-anchor="middle" x="50%" y="1em">Dm7</text>
                              </svg>
                              <svg width="100%" x="0%" y="3em">
                                <defs/>
                                <svg width="100%" x="0" y="0em">
                                  <defs/>
                                  <text text-anchor="middle" x="50%" y="1em">Dm7</text>
                                </svg>
                              </svg>
                              <line stroke="black" x1="50%" x2="50%" y1="1.2em" y2="3em"/>
                            </svg>
                            <line stroke="black" x1="50%" x2="27.7778%" y1="1.2em" y2="3em"/>
                            <svg width="44.4444%" x="55.5556%" y="3em">
                              <defs/>
                              <svg width="100%" x="0" y="0em">
                                <defs/>
                                <text text-anchor="middle" x="50%" y="1em">G7</text>
                              </svg>
                              <svg width="100%" x="0%" y="3em">
                                <defs/>
                                <svg width="100%" x="0" y="0em">
                                  <defs/>
                                  <text text-anchor="middle" x="50%" y="1em">G7</text>
                                </svg>
                              </svg>
                              <line stroke="black" x1="50%" x2="50%" y1="1.2em" y2="3em"/>
                            </svg>
                            <line stroke="black" x1="50%" x2="77.7778%" y1="1.2em" y2="3em"/>
                          </svg>
                          <line stroke="black" x1="50%" x2="32.1429%" y1="1.2em" y2="3em"/>
                          <svg width="35.7143%" x="64.2857%" y="3em">
                            <defs/>
                            <svg width="100%" x="0" y="0em">
                              <defs/>
                              <text text-anchor="middle" x="50%" y="1em">Am7</text>
                            </svg>
                            <svg width="100%" x="0%" y="6em">
                              <defs/>
                              <svg width="100%" x="0" y="0em">
                                <defs/>
                                <text text-anchor="middle" x="50%" y="1em">?</text>
                              </svg>
                            </svg>
                            <line stroke="black" x1="50%" x2="50%" y1="1.2em" y2="6em"/>
                          </svg>
                          <line stroke="black" x1="50%" x2="82.1429%" y1="1.2em" y2="3em"/>
                        </svg>
                        <line stroke="black" x1="50%" x2="63.1579%" y1="1.2em" y2="3em"/>
                      </svg>
                      <line stroke="black" x1="50%" x2="60.4167%" y1="1.2em" y2="3em"/>
                    </svg>
                    <line stroke="black" x1="50%" x2="42.8571%" y1="1.2em" y2="3em"/>
                    <svg width="14.2857%" x="85.7143%" y="3em">
                      <defs/>
                      <svg width="100%" x="0" y="0em">
                        <defs/>
                        <text text-anchor="middle" x="50%" y="1em">C7</text>
                      </svg>
                      <svg width="100%" x="0%" y="15em">
                        <defs/>
                        <svg width="100%" x="0" y="0em">
                          <defs/>
                          <text text-anchor="middle" x="50%" y="1em">?</text>
                        </svg>
                      </svg>
                      <line stroke="black" x1="50%" x2="50%" y1="1.2em" y2="15em"/>
                    </svg>
                    <line stroke="black" x1="50%" x2="92.8571%" y1="1.2em" y2="3em"/>
                  </svg>
                  <line stroke="black" x1="50%" x2="57.5758%" y1="1.2em" y2="3em"/>
                </svg>
                <line stroke="black" x1="50%" x2="43.4211%" y1="1.2em" y2="3em"/>
                <svg width="13.1579%" x="86.8421%" y="3em">
                  <defs/>
                  <svg width="100%" x="0" y="0em">
                    <defs/>
                    <text text-anchor="middle" x="50%" y="1em">FM7</text>
                  </svg>
                  <svg width="100%" x="0%" y="21em">
                    <defs/>
                    <svg width="100%" x="0" y="0em">
                      <defs/>
                      <text text-anchor="middle" x="50%" y="1em">?</text>
                    </svg>
                  </svg>
                  <line stroke="black" x1="50%" x2="50%" y1="1.2em" y2="21em"/>
                </svg>
                <line stroke="black" x1="50%" x2="93.4211%" y1="1.2em" y2="3em"/>
              </svg>
              <line stroke="black" x1="50%" x2="55.814%" y1="1.2em" y2="3em"/>
            </svg>
            <line stroke="black" x1="50%" x2="54.2553%" y1="1.2em" y2="3em"/>
          </svg>
          <line stroke="black" x1="50%" x2="54.8077%" y1="1.2em" y2="3em"/>
        </svg>
        <line stroke="black" x1="50%" x2="45.614%" y1="1.2em" y2="3em"/>
        <svg width="8.77193%" x="91.2281%" y="3em">
          <defs/>
          <svg width="100%" x="0" y="0em">
            <defs/>
            <text text-anchor="middle" x="50%" y="1em">CM7</text>
          </svg>
          <svg width="100%" x="0%" y="33em">
            <defs/>
            <svg width="100%" x="0" y="0em">
              <defs/>
              <text text-anchor="middle" x="50%" y="1em">?</text>
            </svg>
          </svg>
          <line stroke="black" x1="50%" x2="50%" y1="1.2em" y2="33em"/>
        </svg>
        <line stroke="black" x1="50%" x2="95.614%" y1="1.2em" y2="3em"/>
      </svg>
      <line stroke="black" x1="50%" x2="56.8182%" y1="1.2em" y2="3em"/>
    </svg>
    <line stroke="black" x1="50%" x2="53.5211%" y1="1.2em" y2="3em"/>
  </svg>
  <line stroke="black" x1="50%" x2="55.625%" y1="1.2em" y2="3em"/>
</svg>
