<?xml version="1.0" encoding="utf-8" ?>
<svg baseProfile="full" height="792px" preserveAspectRatio="xMidYMid meet" style="font-family: times, serif; font-weight:normal; font-style: normal; font-size: 16px;" version="1.1" viewBox="0,0,664.0,792.0" width="664px" xmlns="http://www.w3.org/2000/svg" xmlns:ev="http://www.w3.org/2001/xml-events" xmlns:xlink="http://www.w3.org/1999/xlink">
  <defs/>
  <svg width="100%" x="0" y="0em">
    <defs/>
    <text text-anchor="middle" x="50%" y="1em">CM7</text>
  </svg>
  <svg width="10.8434%" x="0%" y="3em">
    <defs/>
    <svg width="100%" x="0" y="0em">
      <defs/>
      <text text-anchor="middle" x="50%" y="1em">G7</text>
    </svg>
    <svg width="55.5556%" x="0%" y="3em">
      <defs/>
      <svg width="100%" x="0" y="0em">
        <defs/>
        <text text-anchor="middle" x="50%" y="1em">Dm7</text>
      </svg>
      <svg width="100%" x="0%" y="42em">
        <defs/>
        <svg width="100%" x="0" y="0em">
          <defs/>
          <text text-anchor="middle" x="50%" y="1em">Dm7</text>
        </svg>
      </svg>
      <line stroke="black" x1="50%" x2="50%" y1="1.2em" y2="42em"/>
    </svg>
    <line stroke="black" x1="50%" x2="27.7778%" y1="1.2em" y2="3em"/>
    <svg width="44.4444%" x="55.5556%" y="3em">
      <defs/>
      <svg width="100%" x="0" y="0em">
        <defs/>
        <text text-anchor="middle" x="50%" y="1em">G7</text>
      </svg>
      <svg width="100%" x="0%" y="42em">
        <defs/>
        <svg width="100%" x="0" y="0em">
          <defs/>
          <text text-anchor="middle" x="50%" y="1em">G7</text>
        </svg>
      </svg>
      <line stroke="black" x1="50%" x2="50%" y1="1.2em" y2="42em"/>
    </svg>
    <line stroke="black" x1="50%" x2="77.7778%" y1="1.2em" y2="3em"/>
  </svg>
  <line stroke="black" x1="50%" x2="5.42169%" y1="1.2em" y2="3em"/>
  <svg width="89.1566%" x="10.8434%" y="3em">
    <defs/>
    <svg width="100%" x="0" y="0em">
      <defs/>
      <text text-anchor="middle" x="50%" y="1em">CM7</text>
    </svg>
    <svg width="6.75676%" x="0%" y="3em">
      <defs/>
      <svg width="100%" x="0" y="0em">
        <defs/>
        <text text-anchor="middle" x="50%" y="1em">CM7</text>
      </svg>
      <svg width="100%" x="0%" y="42em">
        <defs/>
        <svg width="100%" x="0" y="0em">
          <defs/>
          <text text-anchor="middle" x="50%" y="1em">CM7</text>
        </svg>
      </svg>
      <line stroke="black" x1="50%" x2="50%" y1="1.2em" y2="42em"/>
    </svg>
    <line stroke="black" x1="50%" x2="3.37838%" y1="1.2em" y2="3em"/>
    <svg width="93.2432%" x="6.75676%" y="3em">
      <defs/>
      <svg width="100%" x="0" y="0em">
        <defs/>
        <text text-anchor="middle" x="50%" y="1em">CM7</text>
      </svg>
      <svg width="92.7536%" x="0%" y="3em">
        <defs/>
        <svg width="100%" x="0" y="0em">
          <defs/>
          <text text-anchor="middle" x="50%" y="1em">G7</text>
        </svg>
        <svg width="7.8125%" x="0%" y="3em">
          <defs/>
          <svg width="100%" x="0" y="0em">
            <defs/>
            <text text-anchor="middle" x="50%" y="1em">Dm7</text>
          </svg>
          <svg width="100%" x="0%" y="36em">
            <defs/>
            <svg width="100%" x="0" y="0em">
              <defs/>
              <text text-anchor="middle" x="50%" y="1em">Dm7</text>
            </svg>
          </svg>
          <line stroke="black" x1="50%" x2="50%" y1="1.2em" y2="36em"/>
        </svg>
        <line stroke="black" x1="50%" x2="3.90625%" y1="1.2em" y2="3em"/>
        <svg width="92.1875%" x="7.8125%" y="3em">
          <defs/>
          <svg width="100%" x="0" y="0em">
            <defs/>
            <text text-anchor="middle" x="50%" y="1em">G7</text>
          </svg>
          <svg width="6.77966%" x="0%" y="3em">
            <defs/>
            <svg width="100%" x="0" y="0em">
              <defs/>
              <text text-anchor="middle" x="50%" y="1em">G7</text>
            </svg>
            <svg width="100%" x="0%" y="33em">
              <defs/>
              <svg width="100%" x="0" y="0em">
                <defs/>
                <text text-anchor="middle" x="50%" y="1em">G7</text>
              </svg>
            </svg>
            <line stroke="black" x1="50%" x2="50%" y1="1.2em" y2="33em"/>
          </svg>
          <line stroke="black" x1="50%" x2="3.38983%" y1="1.2em" y2="3em"/>
          <svg width="93.2203%" x="6.77966%" y="3em">
            <defs/>
            <svg width="100%" x="0" y="0em">
              <defs/>
              <text text-anchor="middle" x="50%" y="1em">G7</text>
            </svg>
            <svg width="9.09091%" x="0%" y="3em">
              <defs/>
              <svg width="100%" x="0" y="0em">
                <defs/>
                <text text-anchor="middle" x="50%" y="1em">Gm7</text>
              </svg>
              <svg width="100%" x="0%" y="30em">
                <defs/>
                <svg width="100%" x="0" y="0em">
                  <defs/>
                  <text text-anchor="middle" x="50%" y="1em">Gm7</text>
                </svg>
              </svg>
              <line stroke="black" x1="50%" x2="50%" y1="1.2em" y2="30em"/>
            </svg>
            <line stroke="black" x1="50%" x2="4.54545%" y1="1.2em" y2="3em"/>
            <svg width="90.9091%" x="9.09091%" y="3em">
              <defs/>
              <svg width="100%" x="0" y="0em">
                <defs/>
                <text text-anchor="middle" x="50%" y="1em">G7</text>
              </svg>
              <svg width="92%" x="0%" y="3em">
                <defs/>
                <svg width="100%" x="0" y="0em">
                  <defs/>
                  <text text-anchor="middle" x="50%" y="1em">FM7</text>
                </svg>
                <svg width="8.69565%" x="0%" y="3em">
                  <defs/>
                  <svg width="100%" x="0" y="0em">
                    <defs/>
                    <text text-anchor="middle" x="50%" y="1em">C7</text>
                  </svg>
                  <svg width="100%" x="0%" y="24em">
                    <defs/>
                    <svg width="100%" x="0" y="0em">
                      <defs/>
                      <text text-anchor="middle" x="50%" y="1em">C7</text>
                    </svg>
                  </svg>
                  <line stroke="black" x1="50%" x2="50%" y1="1.2em" y2="24em"/>
                </svg>
                <line stroke="black" x1="50%" x2="4.34783%" y1="1.2em" y2="3em"/>
                <svg width="91.3043%" x="8.69565%" y="3em">
                  <defs/>
                  <svg width="100%" x="0" y="0em">
                    <defs/>
                    <text text-anchor="middle" x="50%" y="1em">FM7</text>
                  </svg>
                  <svg width="11.9048%" x="0%" y="3em">
                    <defs/>
                    <svg width="100%" x="0" y="0em">
                      <defs/>
                      <text text-anchor="middle" x="50%" y="1em">FM7</text>
                    </svg>
                    <svg width="100%" x="0%" y="21em">
                      <defs/>
                      <svg width="100%" x="0" y="0em">
                        <defs/>
                        <text text-anchor="middle" x="50%" y="1em">FM7</text>
                      </svg>
                    </svg>
                    <line stroke="black" x1="50%" x2="50%" y1="1.2em" y2="21em"/>
                  </svg>
                  <line stroke="black" x1="50%" x2="5.95238%" y1="1.2em" y2="3em"/>
                  <svg width="88.0952%" x="11.9048%" y="3em">
                    <defs/>
                    <svg width="100%" x="0" y="0em">
                      <defs/>
                      <text text-anchor="middle" x="50%" y="1em">FM7</text>
                    </svg>
                    <svg width="86.4865%" x="0%" y="3em">
                      <defs/>
                      <svg width="100%" x="0" y="0em">
                        <defs/>
                        <text text-anchor="middle" x="50%" y="1em">C7</text>
                      </svg>
                      <svg width="15.625%" x="0%" y="3em">
                        <defs/>
                        <svg width="100%" x="0" y="0em">
                          <defs/>
                          <text text-anchor="middle" x="50%" y="1em">Bb7</text>
                        </svg>
                        <svg width="100%" x="0%" y="15em">
                          <defs/>
                          <svg width="100%" x="0" y="0em">
                            <defs/>
                            <text text-anchor="middle" x="50%" y="1em">Bb7</text>
                          </svg>
                        </svg>
                        <line stroke="black" x1="50%" x2="50%" y1="1.2em" y2="15em"/>
                      </svg>
                      <line stroke="black" x1="50%" x2="7.8125%" y1="1.2em" y2="3em"/>
                      <svg width="84.375%" x="15.625%" y="3em">
                        <defs/>
                        <svg width="100%" x="0" y="0em">
                          <defs/>
                          <text text-anchor="middle" x="50%" y="1em">C7</text>
                        </svg>
                        <svg width="37.037%" x="0%" y="3em">
                          <defs/>
                          <svg width="100%" x="0" y="0em">
                            <defs/>
                            <text text-anchor="middle" x="50%" y="1em">Am7</text>
                          </svg>
                          <svg width="50%" x="0%" y="3em">
                            <defs/>
                            <svg width="100%" x="0" y="0em">
                              <defs/>
                              <text text-anchor="middle" x="50%" y="1em">Em7</text>
                            </svg>
                            <svg width="100%" x="0%" y="9em">
                              <defs/>
                              <svg width="100%" x="0" y="0em">
                                <defs/>
                                <text text-anchor="middle" x="50%" y="1em">Em7</text>
                              </svg>
                            </svg>
                            <line stroke="black" x1="50%" x2="50%" y1="1.2em" y2="9em"/>
                          </svg>
                          <line stroke="black" x1="50%" x2="25%" y1="1.2em" y2="3em"/>
                          <svg width="50%" x="50%" y="3em">
                            <defs/>
                            <svg width="100%" x="0" y="0em">
                              <defs/>
                              <text text-anchor="middle" x="50%" y="1em">Am7</text>
                            </svg>
                            <svg width="100%" x="0%" y="9em">
                              <defs/>
                              <svg width="100%" x="0" y="0em">
                                <defs/>
                                <text text-anchor="middle" x="50%" y="1em">Am7</text>
                              </svg>
                            </svg>
                            <line stroke="black" x1="50%" x2="50%" y1="1.2em" y2="9em"/>
                          </svg>
                          <line stroke="black" x1="50%" x2="75%" y1="1.2em" y2="3em"/>
                        </svg>
                        <line stroke="black" x1="50%" x2="18.5185%" y1="1.2em" y2="3em"/>
                        <svg width="62.963%" x="37.037%" y="3em">
                          <defs/>
                          <svg width="100%" x="0" y="0em">
                            <defs/>
                            <text text-anchor="middle" x="50%" y="1em">C7</text>
                          </svg>
                          <svg width="76.4706%" x="0%" y="3em">
                            <defs/>
                            <svg width="100%" x="0" y="0em">
                              <defs/>
                              <text text-anchor="middle" x="50%" y="1em">G7</text>
                            </svg>
                            <svg width="38.4615%" x="0%" y="3em">
                              <defs/>
                              <svg width="100%" x="0" y="0em">
                                <defs/>
                                <text text-anchor="middle" x="50%" y="1em">Dm7</text>
                              </svg>
                              <svg width="100%" x="0%" y="6em">
                                <defs/>
                                <svg width="100%" x="0" y="0em">
                                  <defs/>
                                  <text text-anchor="middle" x="50%" y="1em">Dm7</text>
                                </svg>
                              </svg>
                              <line stroke="black" x1="50%" x2="50%" y1="1.2em" y2="6em"/>
                            </svg>
                            <line stroke="black" x1="50%" x2="19.2308%" y1="1.2em" y2="3em"/>
                            <svg width="61.5385%" x="38.4615%" y="3em">
                              <defs/>
                              <svg width="100%" x="0" y="0em">
                                <defs/>
                                <text text-anchor="middle" x="50%" y="1em">G7</text>
                              </svg>
                              <svg width="50%" x="0%" y="3em">
                                <defs/>
                                <svg width="100%" x="0" y="0em">
                                  <defs/>
                                  <text text-anchor="middle" x="50%" y="1em">G7</text>
                                </svg>
                                <svg width="100%" x="0%" y="3em">
                                  <defs/>
                                  <svg width="100%" x="0" y="0em">
                                    <defs/>
                                    <text text-anchor="middle" x="50%" y="1em">G7</text>
                                  </svg>
                                </svg>
                                <line stroke="black" x1="50%" x2="50%" y1="1.2em" y2="3em"/>
                              </svg>
                              <line stroke="black" x1="50%" x2="25%" y1="1.2em" y2="3em"/>
                              <svg width="50%" x="50%" y="3em">
                                <defs/>
                                <svg width="100%" x="0" y="0em">
                                  <defs/>
                                  <text text-anchor="middle" x="50%" y="1em">G7</text>
                                </svg>
                                <svg width="100%" x="0%" y="3em">
                                  <defs/>
                                  <svg width="100%" x="0" y="0em">
                                    <defs/>
                                    <text text-anchor="middle" x="50%" y="1em">?</text>
                                  </svg>
                                </svg>
                                <line stroke="black" x1="50%" x2="50%" y1="1.2em" y2="3em"/>
                              </svg>
                              <line stroke="black" x1="50%" x2="75%" y1="1.2em" y2="3em"/>
                            </svg>
                            <line stroke="black" x1="50%" x2="69.2308%" y1="1.2em" y2="3em"/>
                          </svg>
                          <line stroke="black" x1="50%" x2="38.2353%" y1="1.2em" y2="3em"/>
                          <svg width="23.5294%" x="76.4706%" y="3em">
                            <defs/>
                            <svg width="100%" x="0" y="0em">
                              <defs/>
                              <text text-anchor="middle" x="50%" y="1em">C7</text>
                            </svg>
                            <svg width="100%" x="0%" y="9em">
                              <defs/>
                              <svg width="100%" x="0" y="0em">
                                <defs/>
                                <text text-anchor="middle" x="50%" y="1em">?</text>
                              </svg>
                            </svg>
                            <line stroke="black" x1="50%" x2="50%" y1="1.2em" y2="9em"/>
                          </svg>
                          <line stroke="black" x1="50%" x2="88.2353%" y1="1.2em" y2="3em"/>
                        </svg>
                        <line stroke="black" x1="50%" x2="68.5185%" y1="1.2em" y2="3em"/>
                      </svg>
                      <line stroke="black" x1="50%" x2="57.8125%" y1="1.2em" y2="3em"/>
                    </svg>
                    <line stroke="black" x1="50%" x2="43.2432%" y1="1.2em" y2="3em"/>
                    <svg width="13.5135%" x="86.4865%" y="3em">
                      <defs/>
                      <svg width="100%" x="0" y="0em">
                        <defs/>
                        <text text-anchor="middle" x="50%" y="1em">FM7</text>
                      </svg>
                      <svg width="100%" x="0%" y="18em">
                        <defs/>
                        <svg width="100%" x="0" y="0em">
                          <defs/>
                          <text text-anchor="middle" x="50%" y="1em">?</text>
                        </svg>
                      </svg>
                      <line stroke="black" x1="50%" x2="50%" y1="1.2em" y2="18em"/>
                    </svg>
                    <line stroke="black" x1="50%" x2="93.2432%" y1="1.2em" y2="3em"/>
                  </svg>
                  <line stroke="black" x1="50%" x2="55.9524%" y1="1.2em" y2="3em"/>
                </svg>
                <line stroke="black" x1="50%" x2="54.3478%" y1="1.2em" y2="3em"/>
              </svg>
              <line stroke="black" x1="50%" x2="46%" y1="1.2em" y2="3em"/>
              <svg width="8%" x="92%" y="3em">
                <defs/>
                <svg width="100%" x="0" y="0em">
                  <defs/>
                  <text text-anchor="middle" x="50%" y="1em">G7</text>
                </svg>
                <svg width="100%" x="0%" y="27em">
                  <defs/>
                  <svg width="100%" x="0" y="0em">
                    <defs/>
                    <text text-anchor="middle" x="50%" y="1em">?</text>
                  </svg>
                </svg>
                <line stroke="black" x1="50%" x2="50%" y1="1.2em" y2="27em"/>
              </svg>
              <line stroke="black" x1="50%" x2="96%" y1="1.2em" y2="3em"/>
            </svg>
            <line stroke="black" x1="50%" x2="54.5455%" y1="1.2em" y2="3em"/>
          </svg>
          <line stroke="black" x1="50%" x2="53.3898%" y1="1.2em" y2="3em"/>
        </svg>
        <line stroke="black" x1="50%" x2="53.9062%" y1="1.2em" y2="3em"/>
      </svg>
      <line stroke="black" x1="50%" x2="46.3768%" y1="1.2em" y2="3em"/>
      <svg width="7.24638%" x="92.7536%" y="3em">
        <defs/>
        <svg width="100%" x="0" y="0em">
          <defs/>
          <text text-anchor="middle" x="50%" y="1em">CM7</text>
        </svg>
        <svg width="100%" x="0%" y="39em">
          <defs/>
          <svg width="100%" x="0" y="0em">
            <defs/>
            <text text-anchor="middle" x="50%" y="1em">?</text>
          </svg>
        </svg>
        <line stroke="black" x1="50%" x2="50%" y1="1.2em" y2="39em"/>
      </svg>
      <line stroke="black" x1="50%" x2="96.3768%" y1="1.2em" y2="3em"/>
    </svg>
    <line stroke="black" x1="50%" x2="53.3784%" y1="1.2em" y2="3em"/>
  </svg>
  <line stroke="black" x1="50%" x2="55.4217%" y1="1.2em" y2="3em"/>
</svg>
