<?xml version="1.0" encoding="utf-8" ?>
<svg baseProfile="full" height="264px" preserveAspectRatio="xMidYMid meet" style="font-family: times, serif; font-weight:normal; font-style: normal; font-size: 16px;" version="1.1" viewBox="0,0,184.0,264.0" width="184px" xmlns="http://www.w3.org/2000/svg" xmlns:ev="http://www.w3.org/2001/xml-events" xmlns:xlink="http://www.w3.org/1999/xlink">
  <defs/>
  <svg width="100%" x="0" y="0em">
    <defs/>
    <text text-anchor="middle" x="50%" y="1em">Dm</text>
  </svg>
  <svg width="82.6087%" x="0%" y="3em">
    <defs/>
    <svg width="100%" x="0" y="0em">
      <defs/>
      <text text-anchor="middle" x="50%" y="1em">Dbo7</text>
    </svg>
    <svg width="26.3158%" x="0%" y="3em">
      <defs/>
      <svg width="100%" x="0" y="0em">
        <defs/>
        <text text-anchor="middle" x="50%" y="1em">Dm7</text>
      </svg>
      <svg width="100%" x="0%" y="9em">
        <defs/>
        <svg width="100%" x="0" y="0em">
          <defs/>
          <text text-anchor="middle" x="50%" y="1em">Dm7</text>
        </svg>
      </svg>
      <line stroke="black" x1="50%" x2="50%" y1="1.2em" y2="9em"/>
    </svg>
    <line stroke="black" x1="50%" x2="13.1579%" y1="1.2em" y2="3em"/>
    <svg width="73.6842%" x="26.3158%" y="3em">
      <defs/>
      <svg width="100%" x="0" y="0em">
        <defs/>
        <text text-anchor="middle" x="50%" y="1em">Dbo7</text>
      </svg>
      <svg width="57.1429%" x="0%" y="3em">
        <defs/>
        <svg width="100%" x="0" y="0em">
          <defs/>
          <text text-anchor="middle" x="50%" y="1em">CM</text>
        </svg>
        <svg width="50%" x="0%" y="3em">
          <defs/>
          <svg width="100%" x="0" y="0em">
            <defs/>
            <text text-anchor="middle" x="50%" y="1em">G7</text>
          </svg>
          <svg width="100%" x="0%" y="3em">
            <defs/>
            <svg width="100%" x="0" y="0em">
              <defs/>
              <text text-anchor="middle" x="50%" y="1em">G7</text>
            </svg>
          </svg>
          <line stroke="black" x1="50%" x2="50%" y1="1.2em" y2="3em"/>
        </svg>
        <line stroke="black" x1="50%" x2="25%" y1="1.2em" y2="3em"/>
        <svg width="50%" x="50%" y="3em">
          <defs/>
          <svg width="100%" x="0" y="0em">
            <defs/>
            <text text-anchor="middle" x="50%" y="1em">CM</text>
          </svg>
          <svg width="100%" x="0%" y="3em">
            <defs/>
            <svg width="100%" x="0" y="0em">
              <defs/>
              <text text-anchor="middle" x="50%" y="1em">?</text>
            </svg>
          </svg>
          <line stroke="black" x1="50%" x2="50%" y1="1.2em" y2="3em"/>
        </svg>
        <line stroke="black" x1="50%" x2="75%" y1="1.2em" y2="3em"/>
      </svg>
      <line stroke="black" x1="50%" x2="28.5714%" y1="1.2em" y2="3em"/>
      <svg width="42.8571%" x="57.1429%" y="3em">
        <defs/>
        <svg width="100%" x="0" y="0em">
          <defs/>
          <text text-anchor="middle" x="50%" y="1em">Dbo7</text>
        </svg>
        <svg width="100%" x="0%" y="6em">
          <defs/>
          <svg width="100%" x="0" y="0em">
            <defs/>
            <text text-anchor="middle" x="50%" y="1em">?</text>
          </svg>
        </svg>
        <line stroke="black" x1="50%" x2="50%" y1="1.2em" y2="6em"/>
      </svg>
      <line stroke="black" x1="50%" x2="78.5714%" y1="1.2em" y2="3em"/>
    </svg>
    <line stroke="black" x1="50%" x2="63.1579%" y1="1.2em" y2="3em"/>
  </svg>
  <line stroke="black" x1="50%" x2="41.3043%" y1="1.2em" y2="3em"/>
  <svg width="17.3913%" x="82.6087%" y="3em">
    <defs/>
    <svg width="100%" x="0" y="0em">
      <defs/>
      <text text-anchor="middle" x="50%" y="1em">Dm</text>
    </svg>
    <svg width="100%" x="0%" y="12em">
      <defs/>
      <svg width="100%" x="0" y="0em">
        <defs/>
        <text text-anchor="middle" x="50%" y="1em">?</text>
      </svg>
    </svg>
    <line stroke="black" x1="50%" x2="50%" y1="1.2em" y2="12em"/>
  </svg>
  <line stroke="black" x1="50%" x2="91.3043%" y1="1.2em" y2="3em"/>
</svg>
