<?xml version="1.0" encoding="utf-8" ?>
<svg baseProfile="full" height="216px" preserveAspectRatio="xMidYMid meet" style="font-family: times, serif; font-weight:normal; font-style: normal; font-size: 16px;" version="1.1" viewBox="0,0,152.0,216.0" width="152px" xmlns="http://www.w3.org/2000/svg" xmlns:ev="http://www.w3.org/2001/xml-events" xmlns:xlink="http://www.w3.org/1999/xlink">
  <defs/>
  <svg width="100%" x="0" y="0em">
    <defs/>
    <text text-anchor="middle" x="50%" y="1em">Dm7</text>
  </svg>
  <svg width="26.3158%" x="0%" y="3em">
    <defs/>
    <svg width="100%" x="0" y="0em">
      <defs/>
      <text text-anchor="middle" x="50%" y="1em">Dm7</text>
    </svg>
    <svg width="100%" x="0%" y="9em">
      <defs/>
      <svg width="100%" x="0" y="0em">
        <defs/>
        <text text-anchor="middle" x="50%" y="1em">Dm7</text>
      </svg>
    </svg>
    <line stroke="black" x1="50%" x2="50%" y1="1.2em" y2="9em"/>
  </svg>
  <line stroke="black" x1="50%" x2="13.1579%" y1="1.2em" y2="3em"/>
  <svg width="73.6842%" x="26.3158%" y="3em">
    <defs/>
    <svg width="100%" x="0" y="0em">
      <defs/>
      <text text-anchor="middle" x="50%" y="1em">Dm7</text>
    </svg>
    <svg width="64.2857%" x="0%" y="3em">
      <defs/>
      <svg width="100%" x="0" y="0em">
        <defs/>
        <text text-anchor="middle" x="50%" y="1em">Cm7</text>
      </svg>
      <svg width="44.4444%" x="0%" y="3em">
        <defs/>
        <svg width="100%" x="0" y="0em">
          <defs/>
          <text text-anchor="middle" x="50%" y="1em">G7</text>
        </svg>
        <svg width="100%" x="0%" y="3em">
          <defs/>
          <svg width="100%" x="0" y="0em">
            <defs/>
            <text text-anchor="middle" x="50%" y="1em">G7</text>
          </svg>
        </svg>
        <line stroke="black" x1="50%" x2="50%" y1="1.2em" y2="3em"/>
      </svg>
      <line stroke="black" x1="50%" x2="22.2222%" y1="1.2em" y2="3em"/>
      <svg width="55.5556%" x="44.4444%" y="3em">
        <defs/>
        <svg width="100%" x="0" y="0em">
          <defs/>
          <text text-anchor="middle" x="50%" y="1em">Cm7</text>
        </svg>
        <svg width="100%" x="0%" y="3em">
          <defs/>
          <svg width="100%" x="0" y="0em">
            <defs/>
            <text text-anchor="middle" x="50%" y="1em">?</text>
          </svg>
        </svg>
        <line stroke="black" x1="50%" x2="50%" y1="1.2em" y2="3em"/>
      </svg>
      <line stroke="black" x1="50%" x2="72.2222%" y1="1.2em" y2="3em"/>
    </svg>
    <line stroke="black" x1="50%" x2="32.1429%" y1="1.2em" y2="3em"/>
    <svg width="35.7143%" x="64.2857%" y="3em">
      <defs/>
      <svg width="100%" x="0" y="0em">
        <defs/>
        <text text-anchor="middle" x="50%" y="1em">Dm7</text>
      </svg>
      <svg width="100%" x="0%" y="6em">
        <defs/>
        <svg width="100%" x="0" y="0em">
          <defs/>
          <text text-anchor="middle" x="50%" y="1em">?</text>
        </svg>
      </svg>
      <line stroke="black" x1="50%" x2="50%" y1="1.2em" y2="6em"/>
    </svg>
    <line stroke="black" x1="50%" x2="82.1429%" y1="1.2em" y2="3em"/>
  </svg>
  <line stroke="black" x1="50%" x2="63.1579%" y1="1.2em" y2="3em"/>
</svg>
