<?xml version="1.0" encoding="utf-8" ?>
<svg baseProfile="full" height="408px" preserveAspectRatio="xMidYMid meet" style="font-family: times, serif; font-weight:normal; font-style: normal; font-size: 16px;" version="1.1" viewBox="0,0,312.0,408.0" width="312px" xmlns="http://www.w3.org/2000/svg" xmlns:ev="http://www.w3.org/2001/xml-events" xmlns:xlink="http://www.w3.org/1999/xlink">
  <defs/>
  <svg width="100%" x="0" y="0em">
    <defs/>
    <text text-anchor="middle" x="50%" y="1em">CM7</text>
  </svg>
  <svg width="87.1795%" x="0%" y="3em">
    <defs/>
    <svg width="100%" x="0" y="0em">
      <defs/>
      <text text-anchor="middle" x="50%" y="1em">G7</text>
    </svg>
    <svg width="14.7059%" x="0%" y="3em">
      <defs/>
      <svg width="100%" x="0" y="0em">
        <defs/>
        <text text-anchor="middle" x="50%" y="1em">Dm7</text>
      </svg>
      <svg width="100%" x="0%" y="18em">
        <defs/>
        <svg width="100%" x="0" y="0em">
          <defs/>
          <text text-anchor="middle" x="50%" y="1em">Dm7</text>
        </svg>
      </svg>
      <line stroke="black" x1="50%" x2="50%" y1="1.2em" y2="18em"/>
    </svg>
    <line stroke="black" x1="50%" x2="7.35294%" y1="1.2em" y2="3em"/>
    <svg width="85.2941%" x="14.7059%" y="3em">
      <defs/>
      <svg width="100%" x="0" y="0em">
        <defs/>
        <text text-anchor="middle" x="50%" y="1em">G7</text>
      </svg>
      <svg width="13.7931%" x="0%" y="3em">
        <defs/>
        <svg width="100%" x="0" y="0em">
          <defs/>
          <text text-anchor="middle" x="50%" y="1em">G7</text>
        </svg>
        <svg width="100%" x="0%" y="15em">
          <defs/>
          <svg width="100%" x="0" y="0em">
            <defs/>
            <text text-anchor="middle" x="50%" y="1em">G7</text>
          </svg>
        </svg>
        <line stroke="black" x1="50%" x2="50%" y1="1.2em" y2="15em"/>
      </svg>
      <line stroke="black" x1="50%" x2="6.89655%" y1="1.2em" y2="3em"/>
      <svg width="86.2069%" x="13.7931%" y="3em">
        <defs/>
        <svg width="100%" x="0" y="0em">
          <defs/>
          <text text-anchor="middle" x="50%" y="1em">G7</text>
        </svg>
        <svg width="84%" x="0%" y="3em">
          <defs/>
          <svg width="100%" x="0" y="0em">
            <defs/>
            <text text-anchor="middle" x="50%" y="1em">Ab7</text>
          </svg>
          <svg width="23.8095%" x="0%" y="3em">
            <defs/>
            <svg width="100%" x="0" y="0em">
              <defs/>
              <text text-anchor="middle" x="50%" y="1em">CM7</text>
            </svg>
            <svg width="100%" x="0%" y="9em">
              <defs/>
              <svg width="100%" x="0" y="0em">
                <defs/>
                <text text-anchor="middle" x="50%" y="1em">CM7</text>
              </svg>
            </svg>
            <line stroke="black" x1="50%" x2="50%" y1="1.2em" y2="9em"/>
          </svg>
          <line stroke="black" x1="50%" x2="11.9048%" y1="1.2em" y2="3em"/>
          <svg width="76.1905%" x="23.8095%" y="3em">
            <defs/>
            <svg width="100%" x="0" y="0em">
              <defs/>
              <text text-anchor="middle" x="50%" y="1em">Ab7</text>
            </svg>
            <svg width="68.75%" x="0%" y="3em">
              <defs/>
              <svg width="100%" x="0" y="0em">
                <defs/>
                <text text-anchor="middle" x="50%" y="1em">Dbo7</text>
              </svg>
              <svg width="45.4545%" x="0%" y="3em">
                <defs/>
                <svg width="100%" x="0" y="0em">
                  <defs/>
                  <text text-anchor="middle" x="50%" y="1em">Dm7</text>
                </svg>
                <svg width="100%" x="0%" y="3em">
                  <defs/>
                  <svg width="100%" x="0" y="0em">
                    <defs/>
                    <text text-anchor="middle" x="50%" y="1em">Dm7</text>
                  </svg>
                </svg>
                <line stroke="black" x1="50%" x2="50%" y1="1.2em" y2="3em"/>
              </svg>
              <line stroke="black" x1="50%" x2="22.7273%" y1="1.2em" y2="3em"/>
              <svg width="54.5455%" x="45.4545%" y="3em">
                <defs/>
                <svg width="100%" x="0" y="0em">
                  <defs/>
                  <text text-anchor="middle" x="50%" y="1em">Dbo7</text>
                </svg>
                <svg width="100%" x="0%" y="3em">
                  <defs/>
                  <svg width="100%" x="0" y="0em">
                    <defs/>
                    <text text-anchor="middle" x="50%" y="1em">?</text>
                  </svg>
                </svg>
                <line stroke="black" x1="50%" x2="50%" y1="1.2em" y2="3em"/>
              </svg>
              <line stroke="black" x1="50%" x2="72.7273%" y1="1.2em" y2="3em"/>
            </svg>
            <line stroke="black" x1="50%" x2="34.375%" y1="1.2em" y2="3em"/>
            <svg width="31.25%" x="68.75%" y="3em">
              <defs/>
              <svg width="100%" x="0" y="0em">
                <defs/>
                <text text-anchor="middle" x="50%" y="1em">Ab7</text>
              </svg>
              <svg width="100%" x="0%" y="6em">
                <defs/>
                <svg width="100%" x="0" y="0em">
                  <defs/>
                  <text text-anchor="middle" x="50%" y="1em">?</text>
                </svg>
              </svg>
              <line stroke="black" x1="50%" x2="50%" y1="1.2em" y2="6em"/>
            </svg>
            <line stroke="black" x1="50%" x2="84.375%" y1="1.2em" y2="3em"/>
          </svg>
          <line stroke="black" x1="50%" x2="61.9048%" y1="1.2em" y2="3em"/>
        </svg>
        <line stroke="black" x1="50%" x2="42%" y1="1.2em" y2="3em"/>
        <svg width="16%" x="84%" y="3em">
          <defs/>
          <svg width="100%" x="0" y="0em">
            <defs/>
            <text text-anchor="middle" x="50%" y="1em">G7</text>
          </svg>
          <svg width="100%" x="0%" y="12em">
            <defs/>
            <svg width="100%" x="0" y="0em">
              <defs/>
              <text text-anchor="middle" x="50%" y="1em">?</text>
            </svg>
          </svg>
          <line stroke="black" x1="50%" x2="50%" y1="1.2em" y2="12em"/>
        </svg>
        <line stroke="black" x1="50%" x2="92%" y1="1.2em" y2="3em"/>
      </svg>
      <line stroke="black" x1="50%" x2="56.8966%" y1="1.2em" y2="3em"/>
    </svg>
    <line stroke="black" x1="50%" x2="57.3529%" y1="1.2em" y2="3em"/>
  </svg>
  <line stroke="black" x1="50%" x2="43.5897%" y1="1.2em" y2="3em"/>
  <svg width="12.8205%" x="87.1795%" y="3em">
    <defs/>
    <svg width="100%" x="0" y="0em">
      <defs/>
      <text text-anchor="middle" x="50%" y="1em">CM7</text>
    </svg>
    <svg width="100%" x="0%" y="21em">
      <defs/>
      <svg width="100%" x="0" y="0em">
        <defs/>
        <text text-anchor="middle" x="50%" y="1em">?</text>
      </svg>
    </svg>
    <line stroke="black" x1="50%" x2="50%" y1="1.2em" y2="21em"/>
  </svg>
  <line stroke="black" x1="50%" x2="93.5897%" y1="1.2em" y2="3em"/>
</svg>
