<?xml version="1.0" encoding="utf-8" ?>
<svg baseProfile="full" height="696px" preserveAspectRatio="xMidYMid meet" style="font-family: times, serif; font-weight:normal; font-style: normal; font-size: 16px;" version="1.1" viewBox="0,0,688.0,696.0" width="688px" xmlns="http://www.w3.org/2000/svg" xmlns:ev="http://www.w3.org/2001/xml-events" xmlns:xlink="http://www.w3.org/1999/xlink">
  <defs/>
  <svg width="100%" x="0" y="0em">
    <defs/>
    <text text-anchor="middle" x="50%" y="1em">CM7</text>
  </svg>
  <svg width="10.4651%" x="0%" y="3em">
    <defs/>
    <svg width="100%" x="0" y="0em">
      <defs/>
      <text text-anchor="middle" x="50%" y="1em">G7</text>
    </svg>
    <svg width="55.5556%" x="0%" y="3em">
      <defs/>
      <svg width="100%" x="0" y="0em">
        <defs/>
        <text text-anchor="middle" x="50%" y="1em">Dm7</text>
      </svg>
      <svg width="100%" x="0%" y="36em">
        <defs/>
        <svg width="100%" x="0" y="0em">
          <defs/>
          <text text-anchor="middle" x="50%" y="1em">Dm7</text>
        </svg>
      </svg>
      <line stroke="black" x1="50%" x2="50%" y1="1.2em" y2="36em"/>
    </svg>
    <line stroke="black" x1="50%" x2="27.7778%" y1="1.2em" y2="3em"/>
    <svg width="44.4444%" x="55.5556%" y="3em">
      <defs/>
      <svg width="100%" x="0" y="0em">
        <defs/>
        <text text-anchor="middle" x="50%" y="1em">G7</text>
      </svg>
      <svg width="100%" x="0%" y="36em">
        <defs/>
        <svg width="100%" x="0" y="0em">
          <defs/>
          <text text-anchor="middle" x="50%" y="1em">G7</text>
        </svg>
      </svg>
      <line stroke="black" x1="50%" x2="50%" y1="1.2em" y2="36em"/>
    </svg>
    <line stroke="black" x1="50%" x2="77.7778%" y1="1.2em" y2="3em"/>
  </svg>
  <line stroke="black" x1="50%" x2="5.23256%" y1="1.2em" y2="3em"/>
  <svg width="89.5349%" x="10.4651%" y="3em">
    <defs/>
    <svg width="100%" x="0" y="0em">
      <defs/>
      <text text-anchor="middle" x="50%" y="1em">CM7</text>
    </svg>
    <svg width="6.49351%" x="0%" y="3em">
      <defs/>
      <svg width="100%" x="0" y="0em">
        <defs/>
        <text text-anchor="middle" x="50%" y="1em">CM7</text>
      </svg>
      <svg width="100%" x="0%" y="36em">
        <defs/>
        <svg width="100%" x="0" y="0em">
          <defs/>
          <text text-anchor="middle" x="50%" y="1em">CM7</text>
        </svg>
      </svg>
      <line stroke="black" x1="50%" x2="50%" y1="1.2em" y2="36em"/>
    </svg>
    <line stroke="black" x1="50%" x2="3.24675%" y1="1.2em" y2="3em"/>
    <svg width="93.5065%" x="6.49351%" y="3em">
      <defs/>
      <svg width="100%" x="0" y="0em">
        <defs/>
        <text text-anchor="middle" x="50%" y="1em">CM7</text>
      </svg>
      <svg width="93.0556%" x="0%" y="3em">
        <defs/>
        <svg width="100%" x="0" y="0em">
          <defs/>
          <text text-anchor="middle" x="50%" y="1em">FM7</text>
        </svg>
        <svg width="7.46269%" x="0%" y="3em">
          <defs/>
          <svg width="100%" x="0" y="0em">
            <defs/>
            <text text-anchor="middle" x="50%" y="1em">Dm7</text>
          </svg>
          <svg width="100%" x="0%" y="30em">
            <defs/>
            <svg width="100%" x="0" y="0em">
              <defs/>
              <text text-anchor="middle" x="50%" y="1em">Dm7</text>
            </svg>
          </svg>
          <line stroke="black" x1="50%" x2="50%" y1="1.2em" y2="30em"/>
        </svg>
        <line stroke="black" x1="50%" x2="3.73134%" y1="1.2em" y2="3em"/>
        <svg width="92.5373%" x="7.46269%" y="3em">
          <defs/>
          <svg width="100%" x="0" y="0em">
            <defs/>
            <text text-anchor="middle" x="50%" y="1em">FM7</text>
          </svg>
          <svg width="20.9677%" x="0%" y="3em">
            <defs/>
            <svg width="100%" x="0" y="0em">
              <defs/>
              <text text-anchor="middle" x="50%" y="1em">C7</text>
            </svg>
            <svg width="30.7692%" x="0%" y="3em">
              <defs/>
              <svg width="100%" x="0" y="0em">
                <defs/>
                <text text-anchor="middle" x="50%" y="1em">G7</text>
              </svg>
              <svg width="100%" x="0%" y="24em">
                <defs/>
                <svg width="100%" x="0" y="0em">
                  <defs/>
                  <text text-anchor="middle" x="50%" y="1em">G7</text>
                </svg>
              </svg>
              <line stroke="black" x1="50%" x2="50%" y1="1.2em" y2="24em"/>
            </svg>
            <line stroke="black" x1="50%" x2="15.3846%" y1="1.2em" y2="3em"/>
            <svg width="69.2308%" x="30.7692%" y="3em">
              <defs/>
              <svg width="100%" x="0" y="0em">
                <defs/>
                <text text-anchor="middle" x="50%" y="1em">C7</text>
              </svg>
              <svg width="55.5556%" x="0%" y="3em">
                <defs/>
                <svg width="100%" x="0" y="0em">
                  <defs/>
                  <text text-anchor="middle" x="50%" y="1em">Gm7</text>
                </svg>
                <svg width="100%" x="0%" y="21em">
                  <defs/>
                  <svg width="100%" x="0" y="0em">
                    <defs/>
                    <text text-anchor="middle" x="50%" y="1em">Gm7</text>
                  </svg>
                </svg>
                <line stroke="black" x1="50%" x2="50%" y1="1.2em" y2="21em"/>
              </svg>
              <line stroke="black" x1="50%" x2="27.7778%" y1="1.2em" y2="3em"/>
              <svg width="44.4444%" x="55.5556%" y="3em">
                <defs/>
                <svg width="100%" x="0" y="0em">
                  <defs/>
                  <text text-anchor="middle" x="50%" y="1em">C7</text>
                </svg>
                <svg width="100%" x="0%" y="21em">
                  <defs/>
                  <svg width="100%" x="0" y="0em">
                    <defs/>
                    <text text-anchor="middle" x="50%" y="1em">C7</text>
                  </svg>
                </svg>
                <line stroke="black" x1="50%" x2="50%" y1="1.2em" y2="21em"/>
              </svg>
              <line stroke="black" x1="50%" x2="77.7778%" y1="1.2em" y2="3em"/>
            </svg>
            <line stroke="black" x1="50%" x2="65.3846%" y1="1.2em" y2="3em"/>
          </svg>
          <line stroke="black" x1="50%" x2="10.4839%" y1="1.2em" y2="3em"/>
          <svg width="79.0323%" x="20.9677%" y="3em">
            <defs/>
            <svg width="100%" x="0" y="0em">
              <defs/>
              <text text-anchor="middle" x="50%" y="1em">FM7</text>
            </svg>
            <svg width="10.2041%" x="0%" y="3em">
              <defs/>
              <svg width="100%" x="0" y="0em">
                <defs/>
                <text text-anchor="middle" x="50%" y="1em">FM7</text>
              </svg>
              <svg width="100%" x="0%" y="24em">
                <defs/>
                <svg width="100%" x="0" y="0em">
                  <defs/>
                  <text text-anchor="middle" x="50%" y="1em">FM7</text>
                </svg>
              </svg>
              <line stroke="black" x1="50%" x2="50%" y1="1.2em" y2="24em"/>
            </svg>
            <line stroke="black" x1="50%" x2="5.10204%" y1="1.2em" y2="3em"/>
            <svg width="89.7959%" x="10.2041%" y="3em">
              <defs/>
              <svg width="100%" x="0" y="0em">
                <defs/>
                <text text-anchor="middle" x="50%" y="1em">Dm7</text>
              </svg>
              <svg width="88.6364%" x="0%" y="3em">
                <defs/>
                <svg width="100%" x="0" y="0em">
                  <defs/>
                  <text text-anchor="middle" x="50%" y="1em">Am7</text>
                </svg>
                <svg width="12.8205%" x="0%" y="3em">
                  <defs/>
                  <svg width="100%" x="0" y="0em">
                    <defs/>
                    <text text-anchor="middle" x="50%" y="1em">Bb7</text>
                  </svg>
                  <svg width="100%" x="0%" y="18em">
                    <defs/>
                    <svg width="100%" x="0" y="0em">
                      <defs/>
                      <text text-anchor="middle" x="50%" y="1em">Bb7</text>
                    </svg>
                  </svg>
                  <line stroke="black" x1="50%" x2="50%" y1="1.2em" y2="18em"/>
                </svg>
                <line stroke="black" x1="50%" x2="6.41026%" y1="1.2em" y2="3em"/>
                <svg width="87.1795%" x="12.8205%" y="3em">
                  <defs/>
                  <svg width="100%" x="0" y="0em">
                    <defs/>
                    <text text-anchor="middle" x="50%" y="1em">Am7</text>
                  </svg>
                  <svg width="14.7059%" x="0%" y="3em">
                    <defs/>
                    <svg width="100%" x="0" y="0em">
                      <defs/>
                      <text text-anchor="middle" x="50%" y="1em">Em7</text>
                    </svg>
                    <svg width="100%" x="0%" y="15em">
                      <defs/>
                      <svg width="100%" x="0" y="0em">
                        <defs/>
                        <text text-anchor="middle" x="50%" y="1em">Em7</text>
                      </svg>
                    </svg>
                    <line stroke="black" x1="50%" x2="50%" y1="1.2em" y2="15em"/>
                  </svg>
                  <line stroke="black" x1="50%" x2="7.35294%" y1="1.2em" y2="3em"/>
                  <svg width="85.2941%" x="14.7059%" y="3em">
                    <defs/>
                    <svg width="100%" x="0" y="0em">
                      <defs/>
                      <text text-anchor="middle" x="50%" y="1em">Am7</text>
                    </svg>
                    <svg width="17.2414%" x="0%" y="3em">
                      <defs/>
                      <svg width="100%" x="0" y="0em">
                        <defs/>
                        <text text-anchor="middle" x="50%" y="1em">Am7</text>
                      </svg>
                      <svg width="100%" x="0%" y="12em">
                        <defs/>
                        <svg width="100%" x="0" y="0em">
                          <defs/>
                          <text text-anchor="middle" x="50%" y="1em">Am7</text>
                        </svg>
                      </svg>
                      <line stroke="black" x1="50%" x2="50%" y1="1.2em" y2="12em"/>
                    </svg>
                    <line stroke="black" x1="50%" x2="8.62069%" y1="1.2em" y2="3em"/>
                    <svg width="82.7586%" x="17.2414%" y="3em">
                      <defs/>
                      <svg width="100%" x="0" y="0em">
                        <defs/>
                        <text text-anchor="middle" x="50%" y="1em">Am7</text>
                      </svg>
                      <svg width="37.5%" x="0%" y="3em">
                        <defs/>
                        <svg width="100%" x="0" y="0em">
                          <defs/>
                          <text text-anchor="middle" x="50%" y="1em">G7</text>
                        </svg>
                        <svg width="55.5556%" x="0%" y="3em">
                          <defs/>
                          <svg width="100%" x="0" y="0em">
                            <defs/>
                            <text text-anchor="middle" x="50%" y="1em">Dm7</text>
                          </svg>
                          <svg width="100%" x="0%" y="6em">
                            <defs/>
                            <svg width="100%" x="0" y="0em">
                              <defs/>
                              <text text-anchor="middle" x="50%" y="1em">Dm7</text>
                            </svg>
                          </svg>
                          <line stroke="black" x1="50%" x2="50%" y1="1.2em" y2="6em"/>
                        </svg>
                        <line stroke="black" x1="50%" x2="27.7778%" y1="1.2em" y2="3em"/>
                        <svg width="44.4444%" x="55.5556%" y="3em">
                          <defs/>
                          <svg width="100%" x="0" y="0em">
                            <defs/>
                            <text text-anchor="middle" x="50%" y="1em">G7</text>
                          </svg>
                          <svg width="100%" x="0%" y="6em">
                            <defs/>
                            <svg width="100%" x="0" y="0em">
                              <defs/>
                              <text text-anchor="middle" x="50%" y="1em">G7</text>
                            </svg>
                          </svg>
                          <line stroke="black" x1="50%" x2="50%" y1="1.2em" y2="6em"/>
                        </svg>
                        <line stroke="black" x1="50%" x2="77.7778%" y1="1.2em" y2="3em"/>
                      </svg>
                      <line stroke="black" x1="50%" x2="18.75%" y1="1.2em" y2="3em"/>
                      <svg width="62.5%" x="37.5%" y="3em">
                        <defs/>
                        <svg width="100%" x="0" y="0em">
                          <defs/>
                          <text text-anchor="middle" x="50%" y="1em">Am7</text>
                        </svg>
                        <svg width="66.6667%" x="0%" y="3em">
                          <defs/>
                          <svg width="100%" x="0" y="0em">
                            <defs/>
                            <text text-anchor="middle" x="50%" y="1em">CM7</text>
                          </svg>
                          <svg width="50%" x="0%" y="3em">
                            <defs/>
                            <svg width="100%" x="0" y="0em">
                              <defs/>
                              <text text-anchor="middle" x="50%" y="1em">CM7</text>
                            </svg>
                            <svg width="100%" x="0%" y="3em">
                              <defs/>
                              <svg width="100%" x="0" y="0em">
                                <defs/>
                                <text text-anchor="middle" x="50%" y="1em">CM7</text>
                              </svg>
                            </svg>
                            <line stroke="black" x1="50%" x2="50%" y1="1.2em" y2="3em"/>
                          </svg>
                          <line stroke="black" x1="50%" x2="25%" y1="1.2em" y2="3em"/>
                          <svg width="50%" x="50%" y="3em">
                            <defs/>
                            <svg width="100%" x="0" y="0em">
                              <defs/>
                              <text text-anchor="middle" x="50%" y="1em">CM7</text>
                            </svg>
                            <svg width="100%" x="0%" y="3em">
                              <defs/>
                              <svg width="100%" x="0" y="0em">
                                <defs/>
                                <text text-anchor="middle" x="50%" y="1em">?</text>
                              </svg>
                            </svg>
                            <line stroke="black" x1="50%" x2="50%" y1="1.2em" y2="3em"/>
                          </svg>
                          <line stroke="black" x1="50%" x2="75%" y1="1.2em" y2="3em"/>
                        </svg>
                        <line stroke="black" x1="50%" x2="33.3333%" y1="1.2em" y2="3em"/>
                        <svg width="33.3333%" x="66.6667%" y="3em">
                          <defs/>
                          <svg width="100%" x="0" y="0em">
                            <defs/>
                            <text text-anchor="middle" x="50%" y="1em">Am7</text>
                          </svg>
                          <svg width="100%" x="0%" y="6em">
                            <defs/>
                            <svg width="100%" x="0" y="0em">
                              <defs/>
                              <text text-anchor="middle" x="50%" y="1em">?</text>
                            </svg>
                          </svg>
                          <line stroke="black" x1="50%" x2="50%" y1="1.2em" y2="6em"/>
                        </svg>
                        <line stroke="black" x1="50%" x2="83.3333%" y1="1.2em" y2="3em"/>
                      </svg>
                      <line stroke="black" x1="50%" x2="68.75%" y1="1.2em" y2="3em"/>
                    </svg>
                    <line stroke="black" x1="50%" x2="58.6207%" y1="1.2em" y2="3em"/>
                  </svg>
                  <line stroke="black" x1="50%" x2="57.3529%" y1="1.2em" y2="3em"/>
                </svg>
                <line stroke="black" x1="50%" x2="56.4103%" y1="1.2em" y2="3em"/>
              </svg>
              <line stroke="black" x1="50%" x2="44.3182%" y1="1.2em" y2="3em"/>
              <svg width="11.3636%" x="88.6364%" y="3em">
                <defs/>
                <svg width="100%" x="0" y="0em">
                  <defs/>
                  <text text-anchor="middle" x="50%" y="1em">Dm7</text>
                </svg>
                <svg width="100%" x="0%" y="21em">
                  <defs/>
                  <svg width="100%" x="0" y="0em">
                    <defs/>
                    <text text-anchor="middle" x="50%" y="1em">?</text>
                  </svg>
                </svg>
                <line stroke="black" x1="50%" x2="50%" y1="1.2em" y2="21em"/>
              </svg>
              <line stroke="black" x1="50%" x2="94.3182%" y1="1.2em" y2="3em"/>
            </svg>
            <line stroke="black" x1="50%" x2="55.102%" y1="1.2em" y2="3em"/>
          </svg>
          <line stroke="black" x1="50%" x2="60.4839%" y1="1.2em" y2="3em"/>
        </svg>
        <line stroke="black" x1="50%" x2="53.7313%" y1="1.2em" y2="3em"/>
      </svg>
      <line stroke="black" x1="50%" x2="46.5278%" y1="1.2em" y2="3em"/>
      <svg width="6.94444%" x="93.0556%" y="3em">
        <defs/>
        <svg width="100%" x="0" y="0em">
          <defs/>
          <text text-anchor="middle" x="50%" y="1em">CM7</text>
        </svg>
        <svg width="100%" x="0%" y="33em">
          <defs/>
          <svg width="100%" x="0" y="0em">
            <defs/>
            <text text-anchor="middle" x="50%" y="1em">?</text>
          </svg>
        </svg>
        <line stroke="black" x1="50%" x2="50%" y1="1.2em" y2="33em"/>
      </svg>
      <line stroke="black" x1="50%" x2="96.5278%" y1="1.2em" y2="3em"/>
    </svg>
    <line stroke="black" x1="50%" x2="53.2468%" y1="1.2em" y2="3em"/>
  </svg>
  <line stroke="black" x1="50%" x2="55.2326%" y1="1.2em" y2="3em"/>
</svg>
